<svg xmlns="http://www.w3.org/2000/svg" width="22" height="22" fill="none"><path stroke="#4CA941" stroke-linecap="round" stroke-linejoin="round" stroke-width="2" d="M6.5 3.5a2.5 2.5 0 0 1 5 0V5h1c1.398 0 2.097 0 2.648.228a3 3 0 0 1 1.624 1.624C17 7.403 17 8.102 17 9.5h1.5a2.5 2.5 0 0 1 0 5H17v1.7c0 1.68 0 2.52-.327 3.162a3 3 0 0 1-1.311 1.311C14.72 21 13.88 21 12.2 21h-.7v-1.75a2.25 2.25 0 0 0-4.5 0V21H5.8c-1.68 0-2.52 0-3.162-.327a3 3 0 0 1-1.311-1.311C1 18.72 1 17.88 1 16.2v-1.7h1.5a2.5 2.5 0 0 0 0-5H1c0-1.398 0-2.097.228-2.648a3 3 0 0 1 1.624-1.624C3.403 5 4.102 5 5.5 5h1V3.5Z"/></svg>