<svg width="320" height="387" viewBox="0 0 320 387" fill="none" xmlns="http://www.w3.org/2000/svg">
<path fill-rule="evenodd" clip-rule="evenodd" d="M29.0273 7.183C30.1189 11.134 31.2174 14.701 31.4687 15.109C31.7199 15.517 29.4739 16.566 26.4763 17.44C17.7745 19.977 15.8036 24.485 20.8668 30.27C26.3367 36.52 25.7814 41.906 19.3914 44.585C14.4399 46.66 11.202 46.328 8.33595 43.453C5.99327 41.103 5.84872 40.45 6.47477 35.041C7.06991 29.899 6.89745 28.919 5.07215 27.088C3.92773 25.94 2.31776 25 1.49533 25C-0.779564 25 -0.289097 27.691 2.09944 28.317C4.02841 28.824 4.14704 29.339 3.55888 34.684C3.02654 39.523 3.25981 41.05 4.94854 43.775C7.66106 48.15 10.7843 49.232 16.9032 47.916C23.6471 46.465 26.9159 43.032 26.9159 37.398C26.9159 33.99 26.2629 32.324 23.8465 29.563C22.1588 27.634 20.9306 25.26 21.117 24.286C21.4869 22.364 25.0218 20.33 29.5855 19.414L32.4655 18.837L34.7624 28.395C38.2983 43.108 42.3477 46.297 49.4983 40C54.3482 35.729 59.1282 35.826 61.8178 40.25C62.9622 42.132 63.7946 45.279 63.7966 47.727C63.8016 53.598 60.9136 55.493 53.3971 54.551C48.7148 53.964 47.6979 54.153 45.9205 55.936C43.2508 58.614 43.3266 61.751 46.3103 72.047C47.676 76.761 48.3788 80.87 47.9003 81.35C47.4278 81.824 44.6445 82.276 41.7146 82.355L36.3863 82.5L36.6475 76.723C37.123 66.167 31.5205 60.7 22.6422 63.058C12.9525 65.631 9.78044 74.299 15.9502 81.347C21.2097 87.356 20.0523 88.989 8.32997 92.096C2.70654 93.586 0 94.776 0 95.76C0 97.377 0.876261 97.244 12.1779 93.911C22.1727 90.962 24.327 86.806 19.0086 80.73C13.2406 74.14 14.3372 68.099 21.6733 66.055C27.2249 64.508 28.7382 64.737 31.5394 67.547C33.8821 69.897 34.0267 70.55 33.4006 75.959C32.8055 81.101 32.9779 82.081 34.8032 83.912C37.0771 86.193 40.5104 86.538 45.7969 85.017C47.676 84.477 49.3797 84.201 49.5831 84.405C49.7864 84.609 50.9837 88.853 52.2437 93.838C53.5028 98.822 55.2832 104.048 56.1994 105.45C58.554 109.054 63.043 108.874 67.4422 105C71.2264 101.667 74.2251 101.231 77.5058 103.536C80.1725 105.41 82.246 111.86 81.3418 115.472C80.4466 119.05 75.6506 121.084 71.0859 119.819C66.8989 118.66 64.1924 119.47 62.2325 122.471C60.8817 124.539 60.8798 125.479 62.2096 131.145C63.029 134.64 64.333 139.575 65.1065 142.111L66.5122 146.721L61.5985 147.859C53.9933 149.62 52.7691 148.513 53.5108 140.548C54.086 134.362 53.9953 134.01 51.0564 131.062C48.626 128.624 47.1556 128 43.841 128C38.4189 128 33.1773 130.555 31.358 134.085C28.803 139.041 29.439 141.469 35.4393 149.677C36.9097 151.688 36.8917 151.993 35.204 153.686C33.3946 155.501 10.242 162.607 9.28 161.643C8.30704 160.666 3.98754 144.562 3.98754 141.908C3.98754 138.53 5.41009 137.982 12.3205 138.698C17.5222 139.236 18.0067 139.09 20.9974 136.091C23.9462 133.133 24.1336 132.535 23.7119 127.435C23.0958 119.977 19.4761 116 13.3064 116C9.98878 116 8.28411 116.667 5.63539 119C3.76224 120.65 1.7276 122 1.11452 122C0.501433 122 0 122.633 0 123.406C0 125.494 3.87888 124.213 7.76075 120.843C11.5818 117.525 15.1616 117.209 17.8911 119.947C20.5627 122.627 22.2066 129.144 21.0083 132.305C19.7264 135.687 14.4807 137.428 10.1423 135.911C7.53445 134.999 6.48972 135.091 4.48498 136.409C0.76162 138.856 0.573209 141.858 3.47713 152.548C6.24947 162.758 6.07003 163.947 1.74455 163.985C0.785545 163.993 0 164.662 0 165.47C0 166.536 1.00386 166.88 3.65159 166.72L7.30318 166.5L9.6638 176C13.0911 189.789 17.2391 192.988 23.9252 187C26.4005 184.783 28.2637 184 31.0599 184C35.2788 184 37.3712 186.189 38.4827 191.765C39.9831 199.288 36.4102 202.432 27.5479 201.387C23.2832 200.884 21.9703 201.104 20.5139 202.565C18.3138 204.772 18.7384 211.148 21.758 221.232L23.7737 227.964L19.6127 229.098C14.0601 230.611 10.9179 230.541 9.89608 228.882C9.43252 228.129 9.3129 225.022 9.62991 221.976C10.1473 217.017 9.93495 216.114 7.60723 213.338C4.88374 210.091 0 208.289 0 210.53C0 211.219 1.11352 212.063 2.47427 212.406C3.86093 212.755 5.66131 214.412 6.57047 216.177C7.9362 218.824 8.00399 219.958 7.00312 223.311C5.9514 226.833 6.03913 227.599 7.76075 229.898C9.79639 232.615 12.0962 232.959 21.3792 231.934L25.3129 231.5L27.536 239C30.1598 247.851 30.5156 253.551 28.495 254.329C27.7184 254.628 24.6041 254.616 21.5736 254.302C16.4087 253.768 15.8734 253.923 13.0163 256.789C9.57408 260.243 9.00486 264.781 11.3266 270.282C14.3063 277.344 21.3154 279.517 26.8003 275.081C34.3407 268.982 35.836 269.783 38.7698 281.5C41.8891 293.958 42.1393 292.95 35.4014 295.061C26.2091 297.94 24.6201 301.827 29.9065 308.5C33.3368 312.83 33.8672 317.825 31.1526 320.246C28.3793 322.719 22.2854 324.02 18.9458 322.852C15.2982 321.576 13.5417 316.938 14.9034 312.174C16.0917 308.017 14.5136 304.178 11.2807 303.364C7.56735 302.429 0 303.903 0 305.561C0 307.272 0.376823 307.3 5.21869 305.951C7.81259 305.229 9.54118 305.235 10.9119 305.971C12.6654 306.913 12.816 307.734 12.2836 313.452C11.7084 319.638 11.7991 319.99 14.7379 322.938C23.365 331.592 40.2731 321.235 34.7424 310.684C34.1134 309.483 32.5443 307.23 31.2573 305.678C28.0802 301.846 29.44 299.581 36.0952 297.624C38.9563 296.782 41.4435 296.24 41.6209 296.418C41.7984 296.596 43.0694 300.961 44.4451 306.118C45.8208 311.275 47.6092 316.508 48.4187 317.747C50.4613 320.875 55.4178 320.766 58.7973 317.518C64.9889 311.567 72.2343 314.297 73.3817 323.012C74.2031 329.252 71.8056 332.278 66.253 332.009C57.6907 331.594 56.4685 331.765 55.1626 333.556C53.2267 336.213 53.5188 340.689 56.2452 350.132C57.5731 354.73 58.5351 358.616 58.3826 358.768C58.231 358.921 55.6112 359.57 52.5607 360.212C44.9117 361.822 43.7104 360.756 44.5119 353.067C45.2117 346.346 44.1241 343.704 39.7149 341.417C34.9697 338.955 28.4112 340.3 24.1067 344.618C21.0313 347.703 20.7352 348.475 21.2257 352.14C21.5556 354.609 22.7888 357.288 24.3439 358.916C28.0693 362.817 27.7912 366.561 23.676 367.896C11.9885 371.687 1.54717 373.895 0.810467 372.732C-0.104673 371.287 -0.256199 380.441 0.628037 383.75C1.53022 387.127 4.07028 386.668 3.3924 383.25C2.06355 376.551 1.61695 376.953 14.3023 373.422C20.799 371.613 26.9667 369.359 28.0095 368.412C30.7569 365.918 30.3472 361.832 26.9159 357.5C22.2864 351.656 23.1566 346.162 29.0373 344.105C33.9399 342.391 38.3412 342.746 40.3948 345.023C42.1363 346.953 42.3437 348.744 41.7745 356.906C41.4545 361.495 44.8947 364.446 49.5721 363.594C51.3665 363.267 54.3452 362.726 56.1904 362.391L59.5449 361.782L61.3134 369.141C65.3807 386.062 68.8229 389.355 75.9776 383.169C77.7789 381.612 80.0728 380.037 81.0756 379.67C84.1132 378.557 87.7099 380.068 89.282 383.117C90.0994 384.703 91.205 386 91.7393 386C93.6743 386 92.6455 382.781 89.7964 379.923C85.756 375.87 80.4795 375.883 75.7254 379.959C69.3692 385.41 68.1869 384.375 64.3529 370.006C62.5874 363.386 62.2475 360.788 63.1108 360.508C63.7647 360.297 68.785 358.899 74.2679 357.402C85.9594 354.21 89.269 352.714 90.7424 349.952C92.1361 347.339 91.1591 344.318 87.5913 340.215C86.0202 338.409 84.7412 336.384 84.7492 335.715C84.807 330.549 87.8116 327.825 94.9323 326.485C98.0536 325.898 98.9647 326.183 101.236 328.461C103.685 330.919 103.838 331.548 103.206 336.617C102.033 346.035 106.18 349.008 116.391 346.07C119.398 345.205 119.665 345.327 120.218 347.82C122.595 358.532 125.068 366.105 126.66 367.551C129.348 369.99 133.026 369.648 136.607 366.625C142.561 361.599 147.515 362.304 150.116 368.548C152.037 373.16 151.887 376.332 149.617 379.139C147.895 381.27 147.026 381.474 140.71 381.238C134.42 381.003 133.553 381.205 132.136 383.233C130.242 385.946 131.87 386.96 134.412 384.652C135.716 383.468 137.446 383.235 141.678 383.673C151.615 384.702 155.945 379.187 153.003 369.247C151.194 363.135 148.607 361 143.011 361C139.881 361 138.142 361.702 135.576 364C129.82 369.155 128.239 368.015 125.058 356.417C123.715 351.52 122.617 346.8 122.617 345.928C122.617 344.735 126.014 343.431 136.324 340.667C154.607 335.766 156.087 335.516 157.138 337.149C157.615 337.892 158.006 341.575 158.006 345.334C158.006 351.582 158.246 352.375 160.803 354.584C165.559 358.692 176.365 356.83 179.992 351.278C182.283 347.768 181.361 341.578 178.024 338.084C173.176 333.008 175.132 329.879 184.547 327.646C186.96 327.073 187.211 327.325 187.777 330.873C188.779 337.159 192.336 347.794 193.992 349.455C196.326 351.796 200.893 351.349 203.984 348.476C207.113 345.566 210.307 344.536 213.273 345.481C218.041 346.999 220.152 358.025 216.337 361.488C214.448 363.203 212.944 363.4 205.62 362.891C200.507 362.536 198.033 365.443 198.721 371C199.598 378.087 202.291 386 203.825 386C204.944 386 204.83 384.67 203.226 378.985C202.137 375.127 201.387 370.514 201.558 368.735L201.869 365.5L208.587 365.838C214.933 366.157 215.471 366.009 218.307 363.165C224.942 356.509 219.872 342.8 210.774 342.8C208.52 342.8 206.086 343.618 204.483 344.914C199.774 348.723 197.481 349.528 195.904 347.927C194.675 346.68 188.959 327.069 189.645 326.458C189.789 326.331 196.86 324.338 205.358 322.03C225.946 316.438 228.78 313.673 222.305 305.5C216.987 298.786 218.724 293.107 226.78 290.875C234.283 288.797 239.238 293.847 237.148 301.44C236.163 305.017 237.176 308.577 239.651 310.235C241.654 311.576 246.611 310.986 258.163 308.031C264.452 306.422 269.753 305.262 269.943 305.453C270.659 306.171 275.14 323.575 275.14 325.636C275.14 328.448 273.467 328.992 266.904 328.312C261.941 327.799 261.221 327.995 258.227 330.678C255.521 333.105 254.971 334.301 255.018 337.68C255.099 343.578 257.51 348.595 261.178 350.497C265.153 352.559 268.888 351.792 273.752 347.915C277.054 345.282 277.669 345.113 279.5 346.332C280.834 347.221 282.317 350.451 283.751 355.598C287.254 368.165 288.011 367.068 273.201 370.909C266.104 372.75 259.606 373.99 258.76 373.665C257.543 373.196 257.273 371.596 257.459 365.961C257.689 359.017 257.615 358.776 254.312 355.811C251.283 353.09 250.417 352.822 246.014 353.247C237.511 354.066 232.128 360.004 234.198 366.278C234.783 368.05 236.403 370.83 237.798 372.455C242.603 378.053 241.264 379.381 226.293 383.87L219.813 385.813L224.798 385.826C231.394 385.844 239.116 383.118 241.455 379.945C243.579 377.064 243.086 375.106 238.728 369.102C235.608 364.804 235.606 361.967 238.721 359.031C241.85 356.082 249.773 355.129 252.71 357.347C254.381 358.609 254.704 360.022 254.704 366.058C254.704 372.68 254.917 373.423 257.339 375.247L259.974 377.231L273.605 373.708C283.166 371.237 287.368 370.53 287.677 371.342C287.92 371.979 288.933 375.399 289.928 378.942C290.923 382.484 292.265 385.559 292.91 385.775C294.58 386.334 294.37 384.151 292.017 376.509C290.882 372.823 290.099 369.66 290.279 369.481C290.457 369.302 294.125 368.23 298.429 367.099C309.178 364.275 310.298 364.927 309.424 373.492C308.792 379.676 308.872 379.991 311.817 382.945C313.491 384.625 315.794 386 316.933 386C319.924 386 319.476 384.439 316.077 383.027C312.358 381.481 310.811 377.373 312.136 372.56C313.121 368.983 312.108 365.423 309.632 363.765C307.783 362.526 302.826 362.913 295.917 364.834L289.324 366.668L286.706 356.65C285.267 351.14 283.352 345.815 282.45 344.816C280.039 342.142 275.924 342.594 271.651 346C265.908 350.578 261.192 349.656 258.607 343.452C256.625 338.693 256.85 335.347 259.319 332.871C261.177 331.007 262.175 330.819 267.349 331.361C272.716 331.924 273.479 331.757 275.693 329.536C277.034 328.191 278.131 326.474 278.131 325.72C278.131 324.966 276.867 319.83 275.321 314.308L272.511 304.268L280.48 301.958C284.864 300.688 289.269 298.827 290.269 297.824C292.945 295.14 292.509 291.245 289.097 287.347C285.633 283.391 285.076 278.213 287.85 275.781C290.461 273.494 296.523 271.824 299.498 272.573C303.149 273.492 305.328 278.039 304.389 282.778C303.489 287.314 303.764 288.977 305.789 291.25C308.226 293.983 319.003 293.181 319.003 290.267C319.003 289.152 318.321 288.95 316.262 289.454C314.754 289.823 312.575 290.355 311.421 290.635C307.653 291.55 306.163 288.771 306.777 281.975C307.289 276.318 307.135 275.709 304.504 272.954C302.184 270.524 300.873 270 297.118 270C291.792 270 286.154 272.691 284.326 276.107C282.581 279.369 283.54 284.771 286.421 287.906C291.663 293.611 290.5 296.035 281.121 298.956C271.518 301.947 271.766 302.071 269.721 293.25C268.733 288.988 267.325 284.03 266.592 282.234C264.368 276.781 258.979 276.212 254.27 280.935C248.114 287.111 240.249 282.43 240.249 272.59C240.249 267.408 243.191 265.445 250.478 265.764C260.793 266.217 262.105 263.015 257.755 248.006C256.417 243.39 255.516 239.3 255.752 238.917C255.988 238.533 259.416 237.424 263.371 236.452C274.825 233.637 277.78 229.106 272.284 222.785C268.668 218.627 267.845 215.966 269.127 212.584C271.116 207.336 281.355 205.206 285.148 209.25C287.005 211.229 287.181 212.243 286.61 217.678C286.042 223.1 286.216 224.11 288.028 225.928C290.609 228.517 293.345 228.472 304.215 225.666L312.854 223.436L315.485 233.256C318.983 246.313 318.048 248.955 310.652 246.906C299.458 243.806 293.095 257.248 301.311 266.635C305.468 271.385 310.568 271.366 315.774 266.58C317.821 264.699 319.158 262.822 318.747 262.409C318.335 261.997 316.99 262.606 315.759 263.763C310.139 269.045 304 268.517 301.51 262.538C299.406 257.488 299.721 254.251 302.597 251.367C304.866 249.09 305.643 248.895 310.015 249.498C318.186 250.625 319.004 249.958 318.995 242.183C318.991 238.458 318.135 232.686 317.06 229.141C315.153 222.849 315.153 222.777 317.068 222.274C320.008 221.503 319.46 219.091 316.394 219.312C313.957 219.488 313.632 218.977 311.434 211.5C307.495 198.104 308.313 195.211 315.648 196.591C320.194 197.447 320.013 195.49 315.405 193.964C312.24 192.916 311.49 193.014 309.175 194.775C306.977 196.447 306.566 197.504 306.685 201.173C306.763 203.591 307.811 208.878 309.011 212.923C310.738 218.738 310.928 220.444 309.922 221.068C307.705 222.442 294.619 225.211 292.055 224.848C289.702 224.515 289.595 224.191 289.595 217.358C289.595 209.671 288.111 206.73 283.297 204.884C279.574 203.456 273.198 205.016 269.523 208.253C264.374 212.788 264.819 217.102 271.382 226.25C273.484 229.18 271.061 231.303 262.736 233.824C258.496 235.108 254.844 235.974 254.619 235.748C254.394 235.522 253.31 231.774 252.211 227.419C249.623 217.17 248.355 214.14 246.16 212.962C243.194 211.37 241.182 211.849 237.604 215C234.222 217.979 229.333 218.955 226.581 217.2C225.035 216.214 222.305 209.694 222.305 206.987C222.305 205.844 223.448 203.763 224.844 202.362C227.187 200.012 227.838 199.867 233.23 200.495C238.356 201.092 239.333 200.919 241.158 199.088C243.841 196.397 243.792 195.322 240.435 183.323L237.628 173.297L245.668 171.281C256.244 168.627 257.635 169.261 256.781 176.341C255.575 186.325 261.277 191.886 270.574 189.797C280.047 187.67 283.13 179.069 277.134 171.5C273.854 167.36 273.486 165.791 275.42 164.181C276.664 163.146 294.185 157.715 294.594 158.238C294.708 158.382 295.598 161.875 296.574 166C300.672 183.331 304.277 186.035 313.218 178.488C314.839 177.119 316.804 176 317.585 176C318.365 176 319.003 175.55 319.003 175C319.003 172.956 314.171 174.097 310.53 177C306.028 180.588 304.513 180.738 302.92 177.751C301.802 175.655 296.93 157.781 297.371 157.39C297.48 157.293 302.052 156.022 307.529 154.566C313.007 153.111 317.912 151.495 318.429 150.976C320.614 148.784 317.554 149.028 307.396 151.857C301.46 153.511 296.488 154.748 296.348 154.608C296.208 154.467 294.901 149.787 293.443 144.208C290.151 131.607 290.583 130.619 298.966 131.564C303.793 132.109 304.929 131.892 307.365 129.966C308.913 128.74 310.618 126.581 311.154 125.168C312.523 121.553 310.486 113.777 307.408 110.877C304.398 108.04 298.528 107.751 294.999 110.266C293.672 111.212 291.609 112.697 290.415 113.566C288.412 115.026 288.099 114.999 286.327 113.222C285.237 112.128 283.424 107.302 282.129 102.043C280.258 94.446 280.09 92.64 281.19 91.957C281.927 91.5 287.376 89.921 293.297 88.447C306.462 85.171 307.487 85.565 306.496 93.526C305.455 101.881 309.045 107 315.947 107C317.999 107 319.003 106.507 319.003 105.5C319.003 104.454 317.953 104 315.537 104C310.594 104 308.559 100.654 309.441 93.981C309.839 90.977 309.666 88.185 309.008 86.951C306.95 83.094 304.086 82.957 291.602 86.122C285.158 87.756 279.778 88.959 279.648 88.796C279.518 88.633 278.377 84.243 277.113 79.041C274.44 68.043 271.804 64.375 267.365 65.476C265.884 65.842 263.551 67.203 262.181 68.5C256.508 73.865 249.796 71.55 248.567 63.804C247.273 55.65 250.418 52.644 259.161 53.683C263.19 54.162 264.603 53.921 266.183 52.486C268.786 50.124 268.679 47.016 265.636 36.479C264.246 31.67 263.354 27.49 263.653 27.19C263.952 26.89 269.178 25.194 275.268 23.42C281.357 21.646 287.034 19.498 287.883 18.645C290.431 16.09 289.77 11.533 286.272 7.537C284.536 5.553 283.115 3.046 283.115 1.965C283.115 0.884 282.442 0 281.62 0C280.798 0 280.125 0.464 280.125 1.032C280.125 3.167 282.919 8.57 284.971 10.405C287.359 12.539 287.733 15.236 285.857 16.782C284.665 17.764 264.415 24 262.417 24C261.456 24 256.199 6.89 256.199 3.759C256.199 2.846 256.985 1.641 257.944 1.08C259.508 0.166 259.46 0.058 257.48 0.03C253.387 -0.026 253.002 2.982 255.746 13.576C257.132 18.93 258.488 23.67 258.758 24.109C259.03 24.548 257.33 25.406 254.983 26.017C252.637 26.628 249.146 27.547 247.227 28.058C242.104 29.424 237.554 29.215 236.931 27.584C236.633 26.805 236.64 23.724 236.948 20.738C237.373 16.597 237.102 14.69 235.805 12.705C233.591 9.314 228.877 7.803 224.027 8.927C213.296 11.416 210.338 19.674 217.319 27.651C218.965 29.531 220.312 31.418 220.312 31.844C220.312 34.071 217.053 36.044 210.279 37.916C201.2 40.425 201.371 40.417 201.371 38.318C201.371 37.393 200.399 33.023 199.21 28.606C195.878 16.215 191.6 13.253 185.191 18.897C182.048 21.665 180.076 22.37 176.184 22.115C172.407 21.868 168.777 11.085 171.23 7.4C172.867 4.94 176.517 3.94 181.457 4.598C185.504 5.136 186.846 4.921 188.436 3.477C189.519 2.494 190.405 1.31 190.405 0.845C190.405 -0.498 188.405 -0.137 186.772 1.501C185.74 2.537 184.45 2.774 182.607 2.265C174.663 0.0710001 167.452 4.367 167.499 11.266C167.527 15.505 170.763 22.553 173.307 23.919C177.137 25.975 182.126 25.207 185.766 22C189.544 18.674 191.55 18.269 193.369 20.467C194.616 21.975 199.651 40.059 199.004 40.708C198.806 40.907 193.572 42.433 187.373 44.098C181.176 45.764 174.843 47.782 173.3 48.582C169.425 50.592 168.618 54.441 171.361 57.837C177.368 65.272 177.238 70.935 171.004 73.548C166.13 75.591 161.861 75.367 159.445 72.943C157.713 71.206 157.441 69.863 157.7 64.328C157.987 58.177 157.837 57.643 155.259 55.686L152.512 53.601L137.459 57.429C129.18 59.535 121.708 61.312 120.853 61.379C119.695 61.469 118.699 59.084 116.94 52C113.478 38.07 109.758 35.427 102.353 41.637C96.6809 46.394 91.6845 45.568 89.1365 39.452C86.2784 32.59 87.9163 27.981 93.7311 26.526C95.1138 26.18 97.3548 26.308 98.7095 26.811C102.231 28.117 106.367 26.395 107.45 23.172C108.345 20.508 107.418 15.097 104.336 5L102.962 0.5L93.1011 0.258C83.9965 0.035 83.3924 0.136 85.2337 1.579C86.5585 2.618 88.314 2.951 90.4673 2.571C92.2487 2.257 95.2005 1.729 97.0268 1.397L100.346 0.794L103.049 10.885C106.598 24.133 106.158 25.157 97.272 24.325C91.3695 23.772 90.7085 23.917 88.3549 26.278C85.0363 29.607 84.3275 32.766 85.7271 37.981C88.2044 47.212 95.8435 49.846 103.178 44C107.681 40.41 109.142 40.271 111.06 43.25C112.209 45.035 116.636 60.186 116.636 62.336C116.636 62.613 114.281 63.595 111.402 64.518C102.388 67.409 100.497 71.742 105.67 77.653C107.911 80.213 108.66 82.058 108.66 85.012C108.66 89.876 105.833 92.086 98.7345 92.77C94.3661 93.191 93.7421 92.983 92.1779 90.588C90.8182 88.507 90.5869 86.765 91.0933 82.438C91.6765 77.467 91.5001 76.695 89.279 74.467C87.9262 73.11 86.2754 72 85.6105 72C84.9445 72 78.083 73.644 70.3621 75.653C50.4862 80.825 51.8211 81.085 49.0756 71.5C47.8146 67.1 46.9114 62.15 47.0679 60.5C47.349 57.53 47.4059 57.503 52.8349 57.753C63.0201 58.223 67.4652 54.356 66.4663 45.895C65.0338 33.759 55.6302 30.283 47.032 38.709C45.2765 40.429 42.3985 40.345 40.8972 38.53C39.6212 36.987 34.7065 18.852 35.3814 18.175C35.5958 17.96 42.7843 15.847 51.3545 13.48C59.9247 11.114 67.8011 8.393 68.8578 7.434C71.1118 5.388 71.4876 0 69.3772 0C68.5468 0 68.1451 0.714 68.3933 1.75C68.6226 2.713 68.4042 4.124 67.9068 4.887C67.203 5.968 37.7012 14.947 34.7125 14.99C34.3397 14.996 33.3059 12.412 32.4127 9.25C31.5205 6.087 30.5615 2.712 30.2814 1.75C30.0012 0.787 29.1579 0 28.4072 0C27.3097 0 27.4313 1.407 29.0273 7.183ZM264.438 0.718C265.953 0.947 268.196 0.941 269.422 0.704C270.648 0.467 269.408 0.279 266.667 0.286C263.925 0.294 262.922 0.488 264.438 0.718ZM301.481 4.668C300.693 9.935 301.609 12.088 305.181 13.366C308.661 14.612 319.003 12.327 319.003 10.312C319.003 9.186 318.395 8.941 316.76 9.409C315.526 9.762 312.433 10.322 309.885 10.653C305.882 11.172 305.103 10.974 304.153 9.193C303.394 7.771 303.362 6.314 304.05 4.5C305.398 0.943 305.306 0 303.612 0C302.669 0 301.939 1.598 301.481 4.668ZM232.413 12.915C234.522 14.632 234.74 15.532 234.513 21.582C234.101 32.538 236.15 33.571 251.139 29.967C255.758 28.856 259.878 28.297 260.296 28.724C261.515 29.971 265.171 44.162 265.171 47.647C265.171 51.489 264.322 51.861 257.004 51.225C251.7 50.765 251.128 50.933 248.281 53.789C244.822 57.259 244.275 61.761 246.623 67.401C249.612 74.575 257.546 76.265 263.523 71C269.678 65.58 271.223 66.858 274.58 80.142C276.311 86.992 276.634 89.678 275.785 90.164C275.148 90.529 270.665 91.789 265.823 92.963C254.86 95.621 253.801 95.097 254.75 87.474C255.823 78.867 252.218 74 244.769 74C232.924 74 227.166 84.233 234.375 92.469C238.438 97.112 237.835 100.199 232.545 101.829C230.478 102.466 226.715 103.626 224.183 104.406L219.583 105.823L216.928 95.662C215.468 90.073 213.433 84.656 212.405 83.625C209.79 81.002 205.719 81.282 202.552 84.304C196.73 89.858 190.396 88.395 188.422 81.04C186.933 75.492 188.019 72.155 191.922 70.288C194.504 69.053 195.828 68.958 198.312 69.826C202.253 71.204 205.984 69.91 207.465 66.651C208.316 64.776 208.067 62.459 206.303 55.881C202.749 42.628 202.527 43.227 212.171 40.068C216.741 38.571 220.883 36.706 221.377 35.923C223.06 33.255 222.309 29.769 219.315 26.347C214.305 20.624 215.53 14.836 222.326 12.116C226.232 10.553 229.864 10.84 232.413 12.915ZM202.412 51.151C206.959 66.465 206.399 68.288 197.439 67.348C192.113 66.79 191.488 66.951 188.447 69.676C185.767 72.078 185.19 73.317 185.234 76.564C185.352 85.117 189.28 90 196.041 90C199.38 90 201.062 89.333 203.798 86.923C208.595 82.698 210.885 83.563 212.767 90.314C215.492 100.088 216.313 103.502 216.318 105.074C216.323 106.256 213.153 107.458 203.614 109.894C188.003 113.88 186.947 113.652 187.787 106.477C188.516 100.252 187.143 95.707 183.885 93.566C179.324 90.568 170.187 92.233 166.131 96.801C163.604 99.647 163.733 105.567 166.394 108.878C170.315 113.755 171.004 115.891 169.23 117.67C167.428 119.477 136.767 128.122 136.085 127.015C134.585 124.582 130.905 107.277 131.615 106C132.235 104.884 134.276 104.5 139.579 104.5C146.155 104.5 146.897 104.282 149.118 101.694C155.242 94.56 148.508 79.931 139.756 81.356C137.943 81.651 134.899 83.267 132.992 84.946C131.085 86.626 129.124 88 128.635 88C126.54 88 124.719 84.581 122.676 76.802C121.475 72.236 120.281 67.753 120.021 66.84C119.472 64.909 120.56 64.499 138.268 59.963C144.957 58.25 151.462 56.995 152.723 57.174C154.895 57.483 154.999 57.858 154.702 64.285C154.397 70.868 154.49 71.173 157.842 74.535C160.426 77.127 162.137 77.994 164.636 77.978C168.96 77.95 175.988 74.732 177.365 72.151C179.727 67.723 178.313 61.865 173.748 57.179C172.11 55.497 172.088 52.353 173.707 51.331C175.342 50.299 196.388 44.154 198.587 44.067C199.853 44.017 200.832 45.83 202.412 51.151ZM119.363 75.256C120.589 80.333 122.428 85.615 123.449 86.993C126.207 90.715 129.985 90.742 134.154 87.07C141.299 80.776 148.536 84.663 148.536 94.795C148.536 100.755 146.09 102.433 138.637 101.587C133.43 100.997 132.416 101.17 130.637 102.955C127.981 105.619 128.066 108.783 131.069 119.051C132.428 123.698 133.55 127.793 133.562 128.15C133.574 128.508 131.337 129.341 128.591 130.002C125.389 130.772 122.881 132.119 121.595 133.759C119.302 136.683 119.7 139.065 123.183 143.245C129.643 150.998 125.963 158.038 115.372 158.184C109.204 158.27 107.346 155.493 108.202 147.467C108.83 141.591 108.734 141.203 106.148 139.163C104.268 137.679 102.631 137.2 100.814 137.6C98.1264 138.192 73.5631 144.676 70.6582 145.561C69.3563 145.957 68.4959 144.091 66.228 135.945C62.6941 123.249 63.054 122.36 71.5394 122.837C77.0233 123.145 77.8168 122.918 80.8842 120.168C83.8211 117.536 84.2158 116.609 84.0673 112.688C83.7184 103.426 77.8507 97.757 70.8067 99.874C68.807 100.475 66.1094 102.099 64.8135 103.483C60.2368 108.369 58.0755 106.058 54.6991 92.671C53.0602 86.169 52.7781 83.653 53.6314 83.124C54.2684 82.73 61.7002 80.642 70.1468 78.486C88.2711 73.859 89.1823 74.043 88.1136 82.122C86.8955 91.337 91.7961 96.882 99.9975 95.566C110.912 93.816 115.146 85.062 108.66 77.653C105.497 74.039 104.853 70.921 106.916 69.213C108.084 68.245 113.923 66.275 116.137 66.103C116.685 66.06 118.137 70.179 119.363 75.256ZM250.569 79.28C252.081 81.077 252.304 82.473 251.795 86.987C250.646 97.188 254.522 99.002 268.917 95C272.874 93.9 276.324 93 276.585 93C276.845 93 277.543 94.912 278.135 97.25C281.235 109.473 283.289 115.023 285.065 115.976C288.302 117.714 291.183 117.125 294.732 114C298.062 111.067 302.189 110.162 304.759 111.8C306.418 112.858 309.034 119.386 309.034 122.468C309.034 123.861 308.085 125.952 306.925 127.116C305.072 128.975 304.104 129.151 298.954 128.567C293.554 127.954 292.892 128.102 290.55 130.451C287.646 133.364 287.757 135.126 291.639 147.757C292.865 151.748 293.58 155.186 293.228 155.396C292.875 155.607 288.997 156.779 284.611 158.001C274.676 160.769 273.285 161.505 272.106 164.617C271.118 167.224 273.198 173 275.126 173C275.638 173 276.589 174.78 277.239 176.955C278.766 182.069 276.941 185.142 271.386 186.812C265.744 188.508 264.404 188.321 261.53 185.438C259.192 183.093 259.034 182.41 259.66 177.383C260.944 167.077 257.3 165.11 243.998 168.926C240.305 169.985 237.116 170.547 236.91 170.176C236.703 169.804 235.738 166.125 234.764 162C232.921 154.194 230.789 149.022 228.895 147.765C226.58 146.229 222.943 147.109 219.661 150C212.407 156.388 205.358 152.137 205.358 141.374C205.358 136.476 208.714 134.565 215.762 135.449C220.444 136.036 221.461 135.847 223.238 134.064C225.92 131.374 225.833 128.084 222.804 117.597C221.433 112.852 220.312 108.814 220.312 108.624C220.312 108.434 223.921 107.247 228.333 105.987C240.214 102.593 242.791 98.549 237.317 91.888C233.216 86.897 232.688 84.014 235.271 80.719C239.142 75.783 247.005 75.044 250.569 79.28ZM183.751 97.308C185.264 99.054 185.455 100.387 184.892 105.259C183.665 115.867 187.06 116.96 206.113 112.085C212.285 110.506 217.551 109.564 217.815 109.993C218.08 110.422 219.406 114.935 220.763 120.02C223.956 131.991 223.403 133.406 215.895 132.466C206.774 131.322 201.349 136.317 202.693 144.622C204.359 154.923 213.641 159.077 220.58 152.626C226.509 147.114 228.446 148.567 231.744 161C233.129 166.225 234.264 170.746 234.265 171.047C234.267 171.348 228.261 173.131 220.918 175.009C205.007 179.08 203.922 178.801 204.964 170.917C205.841 164.297 204.862 161.277 201.095 158.973C197.214 156.599 193.726 156.484 188.557 158.558C181.173 161.522 179.275 170.678 184.937 176.014C187.608 178.53 188.176 182.121 186.168 183.792C184.791 184.939 154.606 193.422 154.015 192.829C153.348 192.161 148.536 174.821 148.536 173.088C148.536 169.917 150.586 169.037 156.521 169.659C163.175 170.357 166.715 168.631 168.364 163.885C170.111 158.858 167.459 150.131 163.544 148.03C159.338 145.771 153.075 147.132 149.245 151.136C147.311 153.157 145.78 153.436 143.74 152.138C142.512 151.357 137.666 135.383 137.6 131.899C137.577 130.672 141.246 129.301 153.271 126.042C161.906 123.701 169.579 121.29 170.322 120.684C172.643 118.789 173.503 115.192 172.278 112.496C171.655 111.123 170.779 110 170.333 110C168.619 110 166.356 103.841 166.996 100.919C168.356 94.706 179.425 92.321 183.751 97.308ZM316.905 126.626C315.063 128.852 315.212 135.015 317.174 137.825C318.72 140.039 318.784 139.816 318.673 132.569C318.61 128.406 318.49 125 318.405 125C318.319 125 317.645 125.732 316.905 126.626ZM46.6542 131.08C50.5311 132.436 52.4511 137.251 50.8262 141.54C49.4106 145.273 51.2299 149.809 54.4688 150.624C56.4446 151.122 62.4558 150.662 66.2021 149.726C66.7006 149.602 68.3245 154.197 69.8118 159.937C71.7787 167.529 73.1454 170.884 74.8242 172.248C77.6214 174.521 81.1414 173.9 84.7352 170.5C88.9441 166.519 92.1839 166.318 95.676 169.821C98.1114 172.264 98.6886 173.679 98.6766 177.173C98.6677 179.553 98.3317 181.995 97.929 182.6C96.2921 185.06 92.6415 186.06 87.7019 185.402C83.6546 184.864 82.3128 185.079 80.7227 186.523C78.1358 188.871 78.2385 191.994 81.2461 202.403C82.6168 207.148 83.7383 211.23 83.7383 211.475C83.7383 211.72 81.8323 212.464 79.5016 213.13C70.6662 215.653 68.5368 220.675 73.7695 226.653C77.6424 231.077 77.8467 235.997 74.2769 238.814C71.4328 241.058 65.6329 242.401 62.7489 241.483C59.6626 240.5 57.614 235.578 58.4773 231.222C59.3774 226.686 59.1023 225.023 57.0766 222.75C54.9264 220.338 52.0543 220.537 39.3769 223.978C33.3458 225.615 27.9198 226.965 27.3186 226.977C26.3287 226.998 23.0869 217.238 21.4719 209.374C20.6186 205.214 22.9662 202.697 26.7384 203.728C33.5212 205.581 39.6162 202.889 41.2032 197.339C42.3257 193.413 40.4047 186.44 37.3593 183.385C33.8263 179.841 28.0065 180.101 23.5793 184C19.4123 187.67 16.649 187.833 15.1347 184.499C13.123 180.07 9.82729 165.737 10.6587 165.032C11.1023 164.656 16.1745 163.077 21.9315 161.523C27.6885 159.969 33.5781 158.107 35.0196 157.386C39.8375 154.974 40.1784 150.249 35.8879 145.347C33.8403 143.008 32.8972 140.876 32.8972 138.588C32.8972 134.797 34.2579 133.347 39.6172 131.429C41.6778 130.691 43.4093 130.068 43.4652 130.044C43.52 130.02 44.9555 130.486 46.6542 131.08ZM137.003 141.5C138.452 147 140.475 152.344 141.498 153.375C144.121 156.019 148.178 155.719 151.378 152.643C152.87 151.209 155.503 149.752 157.229 149.406C165.582 147.73 170.077 163.917 162.104 166.958C160.781 167.463 157.235 167.621 154.224 167.309C149.088 166.777 148.641 166.909 146.982 169.45C145.26 172.086 145.292 172.45 148.191 183.022L151.171 193.886L146.421 195.029C143.811 195.657 140.704 195.863 139.519 195.486C137.538 194.855 137.421 194.36 138.05 189.308C139.171 180.306 135.375 174.963 127.9 175.022C124.041 175.052 117.019 178.411 115.719 180.849C113.67 184.691 114.435 189.695 117.632 193.347C121.666 197.955 121.545 200.715 117.233 202.523C111.489 204.931 87.3371 211.013 86.6103 210.234C85.449 208.989 81.7446 194.553 81.7446 191.27C81.7446 187.515 82.6188 187.141 89.912 187.775C95.2155 188.235 95.7877 188.067 98.6348 185.211C102.094 181.741 102.641 177.239 100.293 171.599C97.3039 164.425 89.3697 162.735 83.3924 168C79.7259 171.23 77.6035 171.73 75.9786 169.75C74.9079 168.445 69.3762 149.013 69.9514 148.578C70.3262 148.293 96.8912 141.322 100.685 140.512C104.346 139.731 106.022 141.28 105.706 145.155C105.036 153.379 105.495 155.444 108.621 158.25C112.092 161.367 116.695 161.848 121.901 159.638C129.725 156.316 131.375 148.937 125.736 142.494C122.278 138.543 121.901 136.841 124.08 135.026C125.303 134.008 133.77 130.956 134.225 131.37C134.303 131.441 135.553 136 137.003 141.5ZM200.577 161.75C202.779 164.303 203.358 167.721 202.167 171.146C200.877 174.859 202.316 178.563 205.636 180.081C207.433 180.902 210.586 180.463 219.981 178.084C226.603 176.407 232.684 174.779 233.493 174.468C234.629 174.031 235.583 176.087 237.673 183.475C239.163 188.741 240.239 194.05 240.066 195.274C239.778 197.31 239.198 197.503 233.271 197.538C223.511 197.595 220.026 200.389 220.133 208.077C220.287 219.263 229.626 224.482 237.813 217.956C243.45 213.461 245.306 214.207 247.871 222C249.048 225.575 250.317 230.386 250.691 232.69L251.37 236.881L247.056 237.991C234.77 241.15 225.786 244.15 224.144 245.641C221.452 248.085 221.889 252.199 225.296 256.5C230.311 262.831 228.481 268.911 221.115 270.389C212.262 272.165 209.849 269.874 209.846 259.691C209.844 253.023 209.68 252.494 207.162 251.072C204.67 249.664 203.465 249.818 190.215 253.237C182.369 255.262 175.02 257.193 173.883 257.53C171.991 258.089 171.588 257.263 169.142 247.821C165.489 233.714 162.03 230.976 155.3 236.865C151.105 240.535 148.4 241.351 145.228 239.901C140.556 237.765 138.416 227.723 141.892 224.236C143.212 222.912 145.315 222.501 150.771 222.5C157.519 222.5 158.005 222.347 159.454 219.767C160.868 217.248 160.803 216.351 158.61 208.267C155.326 196.151 155.35 195.794 159.502 194.65C182.386 188.346 187.072 186.774 188.66 184.87C191.218 181.803 190.801 178.522 187.352 174.581C184.886 171.764 184.358 170.361 184.61 167.296C184.873 164.094 185.467 163.227 188.411 161.752C192.942 159.481 198.62 159.48 200.577 161.75ZM134.173 180.5C135.44 182.44 135.653 184.227 135.124 188.477C134.498 193.503 134.655 194.167 137.039 196.558C139.346 198.871 140.107 199.078 143.837 198.401C153.072 196.725 152.653 196.406 155.465 207.253C158.246 217.985 157.811 220.716 153.39 220.253C145.332 219.41 143.422 219.75 140.508 222.551C138.253 224.718 137.57 226.268 137.57 229.219C137.57 241.244 147.682 247.204 155.86 240C162.021 234.574 163.359 235.694 166.756 249.117L169.188 258.724L163.889 260.4C157.822 262.318 154.114 266.132 155.132 269.407C155.49 270.558 157.068 272.978 158.639 274.785C163.132 279.952 162.072 285.025 155.965 287.585C150.639 289.816 147 289.398 144.549 286.274C142.707 283.924 142.502 282.762 143.069 277.862C143.641 272.913 143.457 271.905 141.645 270.088C140.501 268.94 138.815 268 137.899 268C136.984 268 129.122 269.864 120.431 272.143C111.738 274.421 104.382 276.041 104.084 275.742C102.809 274.463 98.6916 257.304 99.1761 255.288C99.6675 253.243 100.229 253.092 106.599 253.285C112.603 253.467 113.808 253.194 115.959 251.168C119.047 248.257 119.785 244.71 118.438 239.236C116.945 233.167 112.534 229.618 107.352 230.315C105.062 230.623 102.346 231.904 100.769 233.42C96.9929 237.048 93.9315 236.806 92.2926 232.75C90.0047 227.087 87.4328 214.891 88.3479 214.048C88.8284 213.606 95.5016 211.558 103.178 209.497C110.854 207.437 118.361 205.124 119.861 204.357C123.664 202.414 124.449 198.538 121.723 195.163C120.539 193.698 118.913 191.059 118.11 189.298C115.303 183.147 119.864 178.12 128.326 178.04C131.745 178.008 132.848 178.472 134.173 180.5ZM85.7361 219.25C88.8364 231.473 90.89 237.023 92.6664 237.976C95.8116 239.665 98.0725 239.16 101.522 236C107.688 230.35 114.753 232.785 116.144 241.04C117.36 248.265 113.611 251.515 105.264 250.468C100.315 249.848 99.849 249.98 97.8044 252.588C95.3879 255.669 95.4417 256.425 98.9468 268.786C101.353 277.271 101.013 277.983 94.1897 278.755C88.3649 279.413 87.6112 278.394 88.3908 270.914C88.8414 266.588 88.5872 264.721 87.2713 262.708C83.51 256.949 73.4525 257.164 67.5061 263.129C64.9251 265.718 64.6171 266.615 65.0916 270.16C65.4186 272.609 66.6567 275.293 68.2069 276.916C69.6314 278.408 70.7788 280.776 70.7788 282.224C70.7788 284.461 70.094 285.062 66.0436 286.381C59.5948 288.481 46.6343 292 45.3473 292C44.7701 292 43.204 287.625 41.8652 282.278C40.5274 276.931 38.6353 271.756 37.6603 270.778C35.3495 268.46 30.4578 268.505 28.2009 270.864C25.8632 273.308 22.5455 275 20.0922 275C16.7536 275 12.9595 269.456 12.9595 264.578C12.9595 257.877 17.4594 255.176 24.965 257.371C28.4202 258.382 32.8972 254.882 32.8972 251.17C32.8972 249.694 31.7897 244.448 30.4359 239.512C29.0821 234.576 28.2976 230.246 28.6913 229.89C29.9105 228.788 49.3308 224 52.5837 224C56.311 224 56.649 224.822 56.0748 232.5C55.6511 238.163 55.7976 238.663 58.6866 241.409C61.1768 243.775 62.5904 244.305 66.2659 244.249C78.2355 244.068 83.3376 234.001 75.8171 225.408C74.1423 223.495 72.7796 221.609 72.7875 221.215C72.8254 219.433 74.9368 217.446 77.9564 216.348C83.6486 214.279 84.5617 214.619 85.7361 219.25ZM254.809 248C258.262 260.339 258.315 260.735 256.72 262.335C255.61 263.448 253.775 263.68 249.299 263.273C243.671 262.761 243.19 262.896 240.306 265.789C237.01 269.096 236.554 271.913 238.295 278.205C240.499 286.164 249.208 288.585 255.548 283C259.327 279.673 261.332 279.269 263.153 281.47C264.776 283.431 269.266 301.293 268.363 302.198C267.973 302.59 262.109 304.268 255.331 305.928C239.662 309.767 238.94 309.514 239.859 300.508C240.491 294.324 240.412 294.009 237.467 291.055C235.058 288.64 233.564 288 230.325 288C222.249 288 216.324 292.347 216.324 298.272C216.324 301.453 218.399 305.992 220.744 307.945C222.85 309.698 222.737 313.892 220.561 314.753C219.601 315.133 212.087 317.299 203.863 319.568L188.91 323.693L187.762 320.481C187.13 318.713 185.837 314.063 184.888 310.146C182.623 300.796 183.391 299.67 191.409 300.58C196.761 301.188 197.3 301.046 200.482 298.195C203.454 295.53 203.842 294.619 203.693 290.665C203.418 283.389 200.105 278.415 194.875 277.431C191.477 276.791 186.843 278.575 184.479 281.434C182.176 284.217 178.496 283.385 177.028 279.75C174.725 274.049 172.169 261.892 173.083 260.99C174.106 259.98 201.112 253 203.995 253C207.38 253 208.137 254.782 207.599 261.494C207.136 267.295 207.307 268.046 209.629 270.375C211.024 271.774 213.365 273.221 214.833 273.59C218.591 274.537 225.122 272.329 228.453 268.987C232.691 264.736 232.171 260.34 226.643 253.673C224.048 250.543 223.938 250.12 225.208 248.108C226.205 246.529 247.667 239.942 250.717 240.279C252.294 240.454 253.149 242.068 254.809 248ZM83.7961 262.846C86.1936 264.793 86.8137 269.191 85.3762 274.043C84.812 275.946 85.1798 277.298 86.8386 279.413C88.8583 281.988 89.4604 282.186 93.6244 281.645C96.1366 281.318 99.0903 280.799 100.187 280.491C101.974 279.989 102.415 280.891 104.447 289.216C105.693 294.322 107.531 299.625 108.533 301C111.238 304.716 115.033 304.741 119.201 301.07C126.346 294.776 133.583 298.663 133.583 308.795C133.583 314.755 131.137 316.433 123.683 315.587C118.477 314.997 117.463 315.17 115.683 316.955C113.015 319.632 113.113 322.932 116.171 333.521C117.561 338.33 118.569 342.364 118.414 342.485C118.258 342.606 115.956 343.239 113.296 343.892C106.576 345.542 105.271 344.354 106.14 337.374C107.242 328.531 103.706 324 95.7009 324C91.2369 324 88.4785 325.107 84.9844 328.299C81.5282 331.457 81.8731 337.938 85.7321 342.347C91.2987 348.707 89.6658 350.355 73.271 354.928C67.2399 356.61 62.0272 357.99 61.6872 357.993C61.3473 357.997 59.8241 353.288 58.3018 347.528C54.8695 334.539 55.2653 333.611 63.8126 334.581C70.4857 335.338 73.8014 333.751 75.836 328.825C76.8508 326.366 76.8608 324.825 75.8839 321.163C74.4533 315.798 73.4435 314.399 69.5327 312.371C65.7904 310.429 62.0212 311.297 57.936 315.04C54.065 318.587 52.3674 318.747 50.4274 315.75C48.8264 313.277 44.3165 296.212 45.0652 295.461C45.3214 295.203 50.9797 293.497 57.6369 291.67C64.2941 289.842 70.6472 287.524 71.7558 286.518C74.6417 283.898 74.2739 280 70.7788 276.161C67.3047 272.345 66.7584 267.245 69.5536 264.708C73.8044 260.848 80.2931 260 83.7961 262.846ZM170.414 265.75C170.986 267.813 171.455 269.881 171.458 270.346C171.461 270.811 172.182 273.669 173.059 276.696C175.873 286.407 180.202 288.352 186.977 282.951C193.699 277.593 199.834 280.542 201.061 289.72C201.498 292.994 201.187 294.184 199.436 295.941C197.573 297.81 196.352 298.072 190.732 297.807C184.664 297.522 184.054 297.689 182.203 300.142L180.208 302.783L182.815 312.932C184.248 318.513 185.421 323.459 185.421 323.921C185.421 324.384 183.393 325.275 180.916 325.901C172.295 328.078 170.168 333.311 175.452 339.347C179.741 344.248 179.642 349.296 175.202 352.011C170.892 354.647 164.382 354.648 162.005 352.012C160.528 350.375 160.321 348.979 160.829 344.094C161.34 339.202 161.125 337.763 159.605 335.88C157.108 332.787 153.681 333.013 137.966 337.306C130.894 339.238 124.269 340.972 123.242 341.159C121.691 341.442 120.974 340.145 119.005 333.5C117.702 329.1 116.748 323.925 116.885 322L117.134 318.5L122.815 318.802C129.015 319.131 133.788 317.352 135.546 314.055C138.073 309.32 135.798 300.893 130.962 297.078C127.404 294.27 122.504 294.791 118.723 298.379C114.611 302.28 111.383 302.234 109.811 298.25C108.259 294.315 104.609 279.73 105.064 279.275C105.798 278.537 135.1 271.017 137.271 271.009C140.424 270.996 141.405 273.457 140.256 278.497C138.481 286.273 144.165 292.633 151.88 291.505C163.714 289.774 167.967 279.508 159.971 271.973C156.032 268.261 156.987 265.659 163.09 263.478C168.749 261.455 169.271 261.617 170.414 265.75ZM316.568 316.223C314.624 319.007 314.58 324.018 316.46 328.532C317.255 330.439 318.06 332 318.25 332C318.44 332 318.575 327.95 318.551 323C318.526 318.05 318.418 314 318.312 314C318.206 314 317.421 315 316.568 316.223ZM0.664922 328.667C0.299065 329.033 0 329.891 0 330.573C0 331.524 0.799502 331.567 3.43427 330.755C8.21034 329.285 11.2688 331.441 12.9495 337.465C15.1327 345.288 11.1202 349.87 3.36648 348.411C1.35776 348.033 0 348.183 0 348.782C0 351.459 9.39165 351.786 12.7093 349.224C17.4086 345.596 17.1783 335.505 12.2856 330.597C10.3207 328.626 8.68785 328 5.51277 328C3.21196 328 1.02978 328.3 0.664922 328.667ZM173.956 372.403C168.76 374.704 165.664 379.848 166.978 384C167.819 386.656 170.455 386.672 169.764 384.016C168.777 380.231 170.391 376.93 173.959 375.434C177.62 373.9 183.224 373.561 185.022 374.765C187.131 376.178 188.607 380.268 188.038 383.122C187.631 385.163 187.858 386 188.818 386C192.475 386 190.931 376.347 186.747 373.045C183.762 370.69 178.429 370.422 173.956 372.403Z" fill="#48A03E"/>
</svg>
