<svg width="1440" height="413" viewBox="0 0 1440 413" fill="none" xmlns="http://www.w3.org/2000/svg">
<path fill-rule="evenodd" clip-rule="evenodd" d="M161.601 3.39603C153.575 6.08103 150.405 8.26103 146.505 13.778C144.186 17.059 143.617 18.918 143.626 23.184C143.642 30.591 145.767 34.899 152.844 41.872C160.256 49.174 162.981 54.84 163.02 63.029C163.089 77.333 152.653 86.262 132.321 89.295C123.353 90.633 117.116 89.077 111.653 84.138C106.825 79.773 105.374 76.98 104.003 69.415C103.073 64.283 103.202 62.334 104.897 55.957C105.987 51.856 106.89 46.505 106.902 44.066C106.951 34.897 100.414 27.02 91.0007 24.903C87.9299 24.213 84.5802 24.496 77.1993 26.072C69.7245 27.668 20.038 40.591 9.78714 43.606C8.42908 44.005 7.74855 42.923 6.44845 38.304C5.55008 35.112 3.74833 29.125 2.44424 25L0.073881 17.5L0.151827 35.62C0.21878 50.945 0.457614 53.721 1.70475 53.62C2.81498 53.53 4.59674 59.172 8.92873 76.5C15.739 103.735 19.2286 115.339 21.9247 119.71C26.3416 126.87 36.5875 130.598 44.6 127.961C46.8424 127.223 51.1944 124.075 54.9618 120.465C58.5343 117.041 63.267 113.329 65.4775 112.215C77.5071 106.158 90.2732 109.852 96.43 121.171C99.6637 127.118 102.886 138.754 102.911 144.572C102.955 154.945 96.6428 163.524 86.8176 166.444C79.9244 168.492 75.7763 168.391 68.1136 165.987C60.2771 163.529 55.6323 163.504 50.4649 165.89C43.3708 169.167 38.9729 176.07 38.9729 183.929C38.9729 190.117 45.1356 214.48 53.8475 242.737L55.7702 248.974L51.6181 250.041C34.9836 254.313 20.8235 258.945 16.6004 261.494C10.3917 265.242 6.99507 271.149 6.99507 278.197C6.99507 284.533 9.46736 289.257 16.4315 296.226C23.6995 303.498 26.4356 309.487 26.3806 318C26.3037 329.928 19.0707 337.865 4.99646 341.468C0.78139 342.547 0.480599 342.85 0.189801 346.31C-0.165952 350.543 -0.178944 350.539 7.06303 348.388C23.6805 343.455 34.0103 331.812 33.9643 318.068C33.9324 308.529 28.739 297.406 21.482 291.335C14.3959 285.408 12.1895 278.386 15.4382 272.099C17.6247 267.868 20.5077 266.447 36.6495 261.645C58.5503 255.13 57.6429 255.233 58.4483 259.191C62.9662 281.373 72.2707 314.915 75.6314 321.132C79.3328 327.98 85.9093 332.014 93.3341 331.99C98.4156 331.974 106.231 327.684 110.355 322.649C118.183 313.089 132.289 309.681 141.901 315.026C150.922 320.042 156.382 332.281 156.388 347.5C156.391 355.453 156.106 356.907 153.93 360C147.061 369.767 135.516 373.122 122.557 369.117C118.79 367.952 114.271 367 112.513 367C107.379 367 99.7786 371.382 96.7178 376.105C92.5327 382.564 92.3368 386.911 95.6175 400.583L98.4755 412.5L102.289 412.816C105.577 413.088 106.028 412.881 105.564 411.316C104.466 407.617 101.112 393.381 100.503 389.841C99.7367 385.383 102.147 378.742 105.276 376.691C109.485 373.931 113.488 373.774 121.595 376.051C135.877 380.061 147.922 377.13 156.712 367.506C162.28 361.409 163.886 356.895 163.886 347.344C163.886 330.058 155.608 313.469 144.47 308.435C130.891 302.298 117.612 305.403 105.389 317.575C101.557 321.39 97.9419 324.058 96.0392 324.477C87.6021 326.331 82.4147 321.489 78.1307 307.758C73.2671 292.171 64.5441 255.004 65.5374 254.105C66.0421 253.649 78.5954 250.042 93.4351 246.09C142.023 233.149 146.059 231.529 150.278 223.267C155.052 213.916 152.782 205.674 142.686 195.703C135.563 188.668 132.895 182.807 132.903 174.21C132.909 168.049 135.201 162.962 140.065 158.312C144.135 154.422 150.062 151.807 159.917 149.554C176.257 145.818 187.165 151.363 191.441 165.578C193.356 171.945 193.238 175.635 190.88 183.161C187.784 193.046 188.48 199.75 193.288 206.35C199.057 214.268 207.549 215.052 230.177 209.757C240.095 207.437 245.117 206.654 245.348 207.394C245.536 208.002 248.21 218.705 251.285 231.177C260.397 268.114 263.269 275.149 270.804 278.996C280.457 283.924 288.578 281.915 297.875 272.298C304.034 265.927 309.549 263.086 317.317 262.284C327.697 261.212 337.065 268.21 341.029 280C345.285 292.66 345.552 301.569 341.888 308.753C339.472 313.489 337.324 315.424 331.733 317.896C324.496 321.096 318.242 321.448 310.904 319.068C300.307 315.631 293.117 316.627 286.973 322.384C282.778 326.314 280.803 330.959 280.813 336.872C280.822 342.611 287.651 369.656 295.648 395.624L297.533 401.747L289.919 403.775C285.73 404.89 277.77 406.82 272.23 408.064C262.224 410.311 262.13 410.313 258.304 408.413C250.633 404.603 248.756 397.952 252.322 387.215C254.932 379.355 254.07 367.992 250.297 360.531C243.537 347.16 231.006 341.99 213.716 345.441C198.288 348.519 188.725 354.415 183.319 364.181C180.695 368.92 180.379 370.427 180.408 378C180.436 385.294 180.836 387.28 183.237 392C184.776 395.025 188.92 400.494 192.448 404.153C195.976 407.812 198.862 411.299 198.862 411.903C198.862 412.514 200.61 413 202.807 413H206.752L205.642 409.813C205.032 408.061 201.635 403.673 198.094 400.063C194.554 396.453 190.784 391.587 189.716 389.249C185.647 380.339 186.321 371.245 191.57 364.212C199.192 354.002 223.569 348.097 234.535 353.804C244.521 359.001 249.579 374.314 245.21 386.124C243.236 391.459 243.002 401.596 244.773 405C245.488 406.375 247.227 408.738 248.636 410.25L251.199 413L267.251 412.988C281.134 412.977 284.485 412.648 292.045 410.555L300.787 408.135L301.397 410.567C301.914 412.632 302.606 413 305.963 413C310.135 413 310.167 412.909 308.042 407.25C307.783 406.563 307.863 406 308.218 406C308.573 406 322.385 402.375 338.911 397.944C355.437 393.514 373.203 389.002 378.39 387.918C387.788 385.954 387.838 385.954 392.306 387.932C399.246 391.004 401.407 397.97 398.223 407C396.176 412.808 396.241 413 400.247 413C404.478 413 405.646 410.803 406.453 401.335C407.152 393.113 404.331 386.978 398.002 382.961C391.371 378.753 387.739 378.52 374.71 381.463C365.749 383.487 313.319 397.23 305.66 399.562C304.565 399.895 303.864 399.312 303.515 397.779C303.23 396.525 300.089 385.375 296.534 373C286.467 337.951 285.95 333.105 291.698 327.595C295.728 323.732 300.678 323.301 309.66 326.031C325.513 330.849 341.843 324.712 348.297 311.511C351.788 304.37 352.467 296.292 350.368 286.873C347.184 272.589 341.391 263.326 332.593 258.449C327.82 255.804 326.398 255.508 318.779 255.582C307.841 255.689 302.762 257.909 293.925 266.445C286.478 273.64 283.118 275.337 278.167 274.408C272.762 273.393 269.456 269.445 266.454 260.422C263.974 252.964 251.631 204.786 252.113 204.438C252.229 204.353 261.094 201.936 271.811 199.067C294.705 192.938 325.792 183.749 330.77 181.639C337.765 178.674 343.761 169.946 343.761 162.728C343.761 157.819 339.49 150.085 333.726 144.557C327.447 138.535 324.7 133.287 324.053 126.072C322.767 111.741 330.827 103.046 349.599 98.512C367.574 94.17 379.515 100.907 382.958 117.332C384.014 122.371 383.928 123.965 382.285 129.805C379.552 139.519 379.221 146.111 381.25 150.391C383.854 155.883 389.729 160.62 395.462 161.85C400.479 162.927 407.732 161.742 426.878 156.717L432.55 155.229L434.202 162.864C436.759 174.681 444.271 203.608 447.092 212.5C451.169 225.348 457.452 231.074 467.563 231.152C473.8 231.201 477.621 229.176 485.786 221.498C495.585 212.284 505.912 209.612 515.142 213.902C522.431 217.289 526.164 222.335 529.534 233.355C533.205 245.358 531.973 256.733 526.336 262.869C520.328 269.411 507.173 271.848 496.58 268.381C489.056 265.918 480.682 266.828 476.005 270.616C473.975 272.261 471.391 275.383 470.263 277.553C466.375 285.038 467.899 294.319 479.341 332.853C482.338 342.947 484.649 351.296 484.476 351.405C484.305 351.515 477.643 353.523 469.674 355.869C461.704 358.214 453.794 361.075 452.096 362.227C445.885 366.436 441.935 375.145 443.192 381.854C444.212 387.292 446.032 390.157 452.894 397.124C456.947 401.239 459.745 405.106 460.767 408.004C462.219 412.123 462.662 412.526 466.047 412.812C469.637 413.116 469.724 413.044 469.081 410.312C467.781 404.785 462.493 396.254 457.136 391.045C449.92 384.026 448.598 379.883 451.598 373.681C454.228 368.245 456.279 367.166 473.768 362.008L486.642 358.212L487.606 361.856C488.137 363.86 489.065 367.75 489.67 370.5C491.858 380.468 497.736 403.611 499.256 408.25C500.723 412.728 501.016 413 504.347 413C507.539 413 507.817 412.783 507.226 410.75C505.078 403.372 493.563 356.769 493.832 356.543C494.011 356.392 512.819 351.267 535.628 345.152C586.187 331.599 594.587 329 599.2 325.479C605.814 320.431 608.39 310.274 605.071 302.325C604.241 300.339 600.522 295.51 596.805 291.595C587.191 281.466 584.665 273.019 588.17 262.724C590.985 254.454 598.671 249.149 613.074 245.533C627.472 241.918 638.368 245.938 644.15 257C646.636 261.758 646.666 274.342 644.211 282.87C642.663 288.248 642.558 289.961 643.54 293.87C645.901 303.275 653.638 309.386 663.039 309.273C667.101 309.224 692.728 304.008 697.038 302.353C698.964 301.613 714.495 357.3 714.666 365.562C714.885 376.198 706.109 381.508 695.017 377.449C683.077 373.08 669.721 375.431 660.778 383.477C658.034 385.946 655.054 389.515 654.156 391.409C651.839 396.294 650.452 404.547 651.181 409.108C651.756 412.71 652.046 413 655.07 413H658.338L658.689 404.592C659.01 396.951 659.324 395.834 662.133 392.342C666.46 386.962 670.739 384.31 677.342 382.915C682.373 381.852 684.001 381.963 691.52 383.883C696.191 385.076 701.558 386.04 703.445 386.026C708.576 385.987 715.271 382.308 718.16 377.94C724.35 368.58 723.832 365.178 707.794 309.712C706.396 304.879 705.423 300.765 705.631 300.571C705.84 300.377 715.678 297.659 727.495 294.531C753.79 287.571 787.387 277.961 797.336 274.553C801.397 273.162 806.281 270.833 808.188 269.378C814.591 264.49 817.218 254.21 814.02 246.55C813.242 244.688 809.434 239.741 805.557 235.556C800.216 229.792 798.137 226.698 796.977 222.793C791.983 205.961 800.304 194.86 821.929 189.508C837.455 185.665 849.428 190.985 853.98 203.748C855.819 208.903 855.734 218.301 853.809 222.782C852.93 224.827 852.143 229.498 852.06 233.162C851.925 239.098 852.24 240.297 854.95 244.162C859.013 249.955 864.937 253.157 871.658 253.191C877.753 253.223 884.36 251.688 924.709 240.868C941.114 236.468 954.785 233.114 955.086 233.415C955.81 234.14 963.452 260.106 967.819 276.68C972.522 294.529 973.011 299.594 970.429 303.701C966.308 310.256 961.044 311.158 948.341 307.488C937.673 304.406 922.303 308.524 915.856 316.192C910.166 322.959 908.875 326.806 908.872 337C908.869 344.938 909.345 347.845 911.765 354.679C917.116 369.789 926.011 377.721 938.752 378.744C949.042 379.571 956.502 376.529 966.333 367.496C975.711 358.88 978.444 357.913 984.77 360.978C988.029 362.556 989.719 364.223 991.191 367.31C992.946 370.991 998.642 390.847 1002.58 407C1003.88 412.365 1004.01 412.508 1007.7 412.816C1010.95 413.088 1011.4 412.88 1010.93 411.316C1010.63 410.317 1008.77 403.029 1006.8 395.119C999.516 365.924 996.238 358.571 988.813 354.774C979.464 349.993 973.078 351.627 962.255 361.571C952.906 370.16 947.248 372.58 938.603 371.687C928.044 370.596 921.31 363.415 917.462 349.142C915.104 340.4 914.827 334.528 916.504 328.922C920.172 316.674 935.044 310.312 949.221 314.925C956.817 317.397 962.074 317.552 967.096 315.452C974.494 312.359 979.256 305.265 979.298 297.278C979.323 292.557 973.867 270.422 966.918 247.053C964.392 238.557 962.664 231.3 963.078 230.925C964.267 229.85 1003.22 219.943 1011.78 218.537C1016.17 217.817 1022.75 221.339 1024.7 225.445C1026.8 229.894 1026.7 232.814 1024.15 241.214C1019.21 257.497 1025.94 274.388 1040.01 281.006C1052.58 286.919 1075.25 282.495 1086.76 271.882C1094.15 265.061 1095.73 261.204 1095.73 250C1095.73 241.5 1095.43 239.931 1092.89 235.093C1091.33 232.12 1087.64 227.39 1084.7 224.582C1076.03 216.312 1074.32 209.134 1079.5 202.723C1082.21 199.37 1088.44 197.168 1118.63 188.89C1141.03 182.746 1142.14 182.652 1142.19 186.885C1142.22 189.156 1152.83 230.854 1155.59 239.5C1158.54 248.771 1162.73 254.432 1168.62 257.107C1177.27 261.042 1184.12 259.105 1193.53 250.057C1201.04 242.841 1207.58 239.694 1215.16 239.642C1225.98 239.569 1233.5 246.119 1237.66 259.257C1240.75 269.023 1241.31 276.163 1239.49 282.293C1236.81 291.257 1227.04 298 1216.72 298C1214.48 298 1209.51 297.1 1205.66 296C1201.82 294.9 1197.77 294.003 1196.67 294.006C1192.81 294.016 1187.21 296.102 1184.16 298.664C1176.76 304.895 1175.52 313.37 1179.59 329.795C1182.19 340.304 1191.58 373.3 1193.11 377.349L1194.06 379.839L1167.14 386.476C1152.33 390.127 1138.06 393.162 1135.43 393.222C1124.51 393.471 1119.37 384.01 1123.83 371.876C1124.8 369.232 1125.43 364.461 1125.42 359.822C1125.38 345.785 1118.08 334.709 1105.86 330.135C1098.69 327.45 1092.29 327.435 1081.92 330.08C1070.85 332.902 1062.83 337.336 1058.2 343.205C1053.35 349.336 1051.81 353.945 1051.91 362C1052.02 371.516 1055.09 378.59 1062.4 386.227C1069.7 393.838 1071.04 395.766 1071.29 399C1071.71 404.507 1071.12 406.341 1067.86 409.6L1064.46 413H1069.91C1075.25 413 1075.39 412.93 1076.95 409.25C1078.89 404.671 1078.87 397.424 1076.91 392.719C1076.1 390.795 1072.91 386.815 1069.81 383.876C1062.38 376.829 1059.01 369.935 1058.99 361.727C1058.94 347.871 1068.44 339.596 1088.65 335.869C1093.82 334.916 1096.37 334.931 1100.95 335.941C1114.69 338.972 1122.24 355.616 1116.79 370.876C1112.04 384.179 1117.7 396.628 1130.02 399.948C1135.33 401.379 1141.37 400.309 1173.91 392.161L1197.12 386.35L1199.08 392.425C1200.16 395.766 1201.99 401.762 1203.15 405.75C1205.23 412.947 1205.27 413 1208.7 413C1210.6 413 1212.16 412.613 1212.16 412.14C1212.16 411.667 1210.38 405.269 1208.21 397.923C1206.04 390.576 1204.36 384.494 1204.46 384.407C1204.57 384.32 1213.21 381.92 1223.65 379.072C1249.47 372.031 1271.89 365.156 1276.11 362.983C1281.21 360.363 1285.04 355.887 1286.49 350.886C1289.04 342.034 1286.77 335.704 1278 327.229C1270.83 320.295 1267.79 313.849 1267.79 305.5C1267.77 291.909 1277.44 283.568 1297.51 279.869C1314.63 276.711 1327.04 286.895 1327.07 304.124C1327.07 307.768 1326.4 312.662 1325.58 315C1320.87 328.351 1326.66 340.655 1339.23 344.044C1344.29 345.406 1348.86 344.558 1383.54 335.834C1398.93 331.962 1412.47 328.575 1413.63 328.308C1415.6 327.852 1416.06 329.161 1421.01 349.161C1423.91 360.897 1427.58 374.755 1429.17 379.955C1432.08 389.473 1436.27 398 1438.04 398C1439.99 398 1438.92 387.556 1436.02 378.156C1431.79 364.442 1422.75 326.931 1423.49 326.153C1423.84 325.794 1427.35 324.593 1431.31 323.484L1438.5 321.467L1438.82 317.6C1439.05 314.732 1438.8 313.857 1437.82 314.213C1434.27 315.506 1422.94 318.255 1422.62 317.902C1422.42 317.681 1419.94 308.05 1417.1 296.5C1409.44 265.264 1405.67 253.83 1401.65 249.559C1397.68 245.346 1392.53 243 1387.26 243C1381.88 243 1373.85 247.314 1369.62 252.482C1361.73 262.115 1347.4 265.343 1337.74 259.662C1331.66 256.085 1327.9 250.246 1325.18 240.142C1320.63 223.276 1323.86 212.882 1335.57 206.71C1340.86 203.921 1351.17 203.826 1360.26 206.482C1366.16 208.207 1367.52 208.288 1371.73 207.162C1380.57 204.796 1385.75 198.709 1386.79 189.468C1387.33 184.676 1382.77 165.223 1375.1 139.624C1372.32 130.343 1370.05 122.407 1370.05 121.991C1370.05 121.574 1371.06 121.015 1372.3 120.749C1373.53 120.483 1383.99 117.784 1395.53 114.751C1428.67 106.042 1430.25 105.748 1434.97 107.378L1439 108.766V104.942C1439 102.839 1438.48 100.794 1437.84 100.398C1433.86 97.937 1421.06 100.33 1383.16 110.622C1374.15 113.066 1366.64 114.926 1366.47 114.755C1365.81 114.093 1355.97 80.522 1353.09 69.116C1349.25 53.898 1349.15 48.242 1352.63 44.095C1356.8 39.14 1361.22 38.381 1370.6 41.015C1380.33 43.746 1388.4 43.357 1396.17 39.784C1407.79 34.437 1413.25 26.165 1413.4 13.686C1413.52 2.94603 1412.76 1.00003 1408.42 1.00003C1404.94 1.00003 1404.88 1.06603 1405.57 4.20703C1405.96 5.97103 1406.27 10.154 1406.27 13.502C1406.27 24.035 1401.17 30.904 1390.75 34.397C1384.42 36.518 1379.56 36.419 1371.89 34.013C1368.4 32.92 1364.08 32.02 1362.27 32.013C1357.98 31.996 1352.26 34.437 1348.72 37.803C1340.1 46.005 1340.61 52.297 1353.64 97.394C1356.65 107.785 1358.88 116.513 1358.6 116.789C1358.03 117.365 1337.31 123.053 1312.57 129.425C1290.06 135.226 1286.02 135.483 1281.21 131.427C1276.39 127.37 1275.58 122.524 1278.18 113.245C1283.36 94.802 1277 78.262 1262.24 71.725C1248.7 65.733 1224.2 71.472 1213.78 83.08C1207.94 89.578 1205.74 96.091 1206.43 104.884C1207.14 113.939 1210.2 120.09 1218.22 128.566C1225.19 135.935 1227.08 140.138 1225.78 145.331C1224.52 150.361 1221.36 152.765 1211.9 155.907C1197.03 160.843 1146.87 174.077 1146.15 173.254C1145.36 172.347 1136.23 141.317 1132.83 128C1129.09 113.344 1128.75 109.779 1130.7 105.665C1134.07 98.57 1140.05 96.857 1150.34 100.044C1166.67 105.101 1183.44 99.015 1190.41 85.5C1196.13 74.417 1192.17 51.115 1182.56 39.318C1178.69 34.562 1170.94 30.43 1164.08 29.463C1154.62 28.131 1140.33 34.046 1134.49 41.706C1126.53 52.143 1113.81 50.631 1109.43 38.727C1108.37 35.852 1105.57 26.188 1103.21 17.25L1098.92 1.00003H1095.58C1093.74 1.00003 1092.24 1.47603 1092.24 2.05803C1092.24 4.18403 1098.25 26.858 1101.24 36.007C1102.93 41.178 1105.4 46.846 1106.74 48.602C1109.82 52.641 1116.68 56 1121.84 56C1127.39 56 1135.35 51.758 1139.64 46.518C1147.52 36.891 1161.88 33.695 1171.61 39.4C1177.59 42.909 1181.37 48.803 1184.08 58.858C1187.65 72.103 1186.51 80.875 1180.38 87.342C1173.87 94.201 1162.68 96.691 1153.09 93.414C1144.87 90.609 1136.33 90.992 1131.19 94.395C1125.34 98.274 1121.74 106.219 1122.58 113.402C1123.35 119.939 1127.56 136.649 1133.96 158.5C1137.35 170.096 1138.58 175.697 1137.82 176.12C1137.21 176.461 1129.52 178.649 1120.72 180.982C1095.12 187.776 1082.43 191.851 1078.24 194.628C1073.63 197.681 1069.26 205.648 1069.26 211C1069.26 216.135 1073.73 224.433 1078.68 228.493C1087.46 235.691 1091.47 248.888 1087.8 258.503C1085.78 263.778 1081.61 268.266 1076.09 271.081C1071.26 273.55 1058.02 276.964 1053.2 276.985C1044.58 277.022 1036.25 271.786 1032.16 263.761C1029.31 258.173 1028.63 248.503 1030.72 243.5C1031.64 241.3 1032.66 236.746 1032.97 233.379C1033.48 227.944 1033.23 226.675 1030.72 222.054C1026.9 215.036 1021 211.498 1013.31 211.623C1008.15 211.706 990.505 215.692 969.871 221.434C964.95 222.803 960.767 223.767 960.576 223.576C960.385 223.385 957.601 212.715 954.388 199.865C945.926 166.009 943.97 160.369 938.96 155.351C929.845 146.225 916.567 147.692 907.64 158.813C903.94 163.42 895.952 167.697 889.372 168.593C882.186 169.571 876.581 167.526 871.194 161.96C864.804 155.361 861.027 143.602 861.555 131.959C861.869 125.028 862.246 123.758 864.995 120.339C869.272 115.021 873.563 112.329 880.095 110.866C885.128 109.739 886.538 109.843 894.552 111.935C908.788 115.652 916.656 113.475 922.008 104.337C926.971 95.863 925.769 88.765 910.943 39C909.55 34.325 908.402 30.014 908.39 29.421C908.378 28.828 912.979 27.064 918.612 25.501C924.246 23.938 935.777 20.512 944.238 17.886C960.358 12.884 964.428 10.457 967.939 3.75003L969.378 1.00003H965.529C962.747 1.00003 961.049 1.67203 959.403 3.42703C958.149 4.76103 954.811 6.77403 951.984 7.90003C946.419 10.115 909.105 21.002 907.096 20.997C906.365 20.994 904.935 16.955 903.553 10.997L901.236 1.00003H897.695C893.658 1.00003 893.692 -0.178974 897.273 15.658L899.118 23.816L896.998 24.311C895.833 24.583 878.751 28.899 859.039 33.903C821.72 43.375 815.482 44.323 810.357 41.294C804.249 37.683 803.369 31.924 806.951 19C808.292 14.158 808.565 11.033 808.023 6.75003L807.295 1.00003H803.568H799.84L800.799 6.79703C801.612 11.719 801.431 13.631 799.602 19.465C797.127 27.352 796.858 33.664 798.797 38.282C800.904 43.297 806.312 47.907 812.047 49.575C816.824 50.965 817.945 50.918 827.557 48.93C838.122 46.745 876.916 37.033 892.518 32.666L901.15 30.251L906.712 49.375C918.096 88.518 919.402 96.325 915.486 101.829C911.489 107.447 907.206 107.995 894.415 104.526C873.488 98.852 854.02 112.848 854.114 133.5C854.201 152.628 864.205 170.117 877.607 174.572C888.965 178.347 904.3 173.688 912.483 163.977C917.688 157.8 923.539 155.244 928.626 156.924C933.605 158.569 936.139 161.8 938.982 170.125C941.904 178.685 953.639 225.032 953.037 225.634C952.814 225.858 942.559 228.754 930.25 232.071C873.145 247.457 869.101 248.147 863.543 243.467C858.557 239.268 857.912 235.495 860.466 225.471C865.627 205.225 858.865 189.058 842.707 183.008C835.98 180.49 828.837 180.46 819.341 182.911C808.001 185.837 802.831 188.481 796.96 194.355C792.738 198.581 791.219 200.989 789.89 205.56C786.368 217.688 790.283 230.656 800.439 240.5C803.276 243.25 806.237 246.715 807.018 248.2C810.101 254.062 807.543 262.361 801.737 265.332C798.531 266.972 781.228 272.391 764.469 277.002C758.148 278.742 750.953 280.787 748.48 281.548C746.007 282.309 735.036 285.237 724.101 288.053C713.167 290.87 703.663 293.388 702.983 293.65C702.173 293.96 700.977 291.596 699.524 286.812C694.421 270.017 687.535 244.951 685.945 237.377C684.3 229.545 684.307 229.117 686.13 225.442C689.878 217.89 696.161 216.061 706.524 219.505C713.269 221.747 725.016 221.134 731.68 218.192C737.285 215.718 743.328 209.918 745.979 204.467C750.326 195.532 748.239 175.271 741.851 164.362C734.79 152.304 723.856 146.904 711.006 149.127C703.293 150.462 696.59 154.14 690.71 160.266C688.133 162.951 684.809 165.79 683.325 166.574C677.473 169.666 669.196 167.113 666.186 161.288C664.124 157.297 659.334 140.336 654.526 120C652.252 110.375 650.018 101.314 649.562 99.865L648.733 97.231L666.379 92.536C691.501 85.852 733.665 74.31 742.463 71.709C755.244 67.931 762.833 58.251 760.978 48.091C760.046 42.982 756.055 36.56 751.571 32.955C749.454 31.252 746.442 27.528 744.876 24.68C742.47 20.301 742.027 18.34 742.008 12C741.995 7.87503 742.37 3.71203 742.841 2.75003C743.585 1.23003 743.164 1.00003 739.638 1.00003C735.787 1.00003 735.546 1.17903 734.92 4.52103C732.704 16.341 736.929 28.509 746.536 37.974C754.17 45.496 755.639 49.965 752.565 56.319C749.97 61.683 748.258 62.6 731.992 67.335C712.378 73.044 647.492 90.279 647.134 89.874C646.448 89.101 635.529 51.081 633.097 41C631.704 35.225 630.566 28.925 630.567 27C630.57 23.012 633.47 17.654 636.507 16.027C639.568 14.388 646.445 14.545 651.84 16.378C663.888 20.471 677.535 17.307 686.273 8.39403C689.159 5.45103 691.52 2.58303 691.52 2.02103C691.52 1.46003 689.805 1.00003 687.709 1.00003C684.801 1.00003 683.235 1.69303 681.097 3.92703C679.555 5.53803 676.043 7.82403 673.293 9.00703C667.41 11.54 659.809 11.406 649.679 8.59203C644.348 7.11003 642.562 7.01203 638.686 7.98703C629.285 10.351 623.623 17.673 623.598 27.5C623.591 30.25 624.725 37 626.118 42.5C629.204 54.685 637.081 82.397 639.025 87.913L640.443 91.933L634.753 93.603C621.426 97.515 609.941 101.278 607.597 102.499C599.279 106.831 595.288 118.561 599.058 127.591C599.867 129.531 603.195 133.904 606.451 137.309C616.573 147.892 619.474 156.753 616.122 166.849C613.721 174.085 607.902 178.946 597.351 182.532C585.714 186.486 575.931 186.556 569.411 182.733C558.706 176.454 555.027 163.837 559.624 149.161C560.717 145.674 561.607 141.849 561.604 140.661C561.583 132.24 555.404 123.982 547.188 121.39C542.175 119.809 541.517 119.833 531.547 121.956C522.013 123.986 475.901 136.046 450.764 143.084C445.035 144.688 439.606 146 438.7 146C436.878 146 435.517 141.886 426.637 109.5C420.721 87.926 419.934 80.208 423.206 75.818C426.971 70.766 433.619 69.611 441.817 72.587C451.366 76.052 465.665 73.844 473.769 67.652C483.796 59.99 486.912 47.134 482.652 30.997C477.266 10.6 466.553 1.18603 449.854 2.18003C440.867 2.71503 433.26 6.34103 426.508 13.309C420.218 19.799 418.109 21 413.001 21C406.185 21 402.673 17.52 399.631 7.75003L397.529 1.00003H393.689H389.848L392.163 7.80903C395.16 16.627 396.907 19.896 400.383 23.186C408.638 31.002 422.202 29.272 430.493 19.344C441.379 6.30903 460.171 5.57103 469.401 17.816C476.205 26.843 479.542 46.982 475.483 54.521C469.588 65.469 456.4 69.892 442.862 65.461C428.24 60.675 415.062 68.012 413.921 81.575C413.433 87.381 417.585 105.336 425.531 131.777C428.222 140.729 430.148 148.221 429.812 148.426C427.578 149.787 403.83 155 399.863 155C389.384 155 384.065 145.55 388.48 134.77C389.673 131.856 390.229 127.802 390.229 122C390.229 114.918 389.792 112.568 387.611 107.914C380.439 92.609 366.095 87.014 346.759 91.979C332.065 95.752 323.589 101.797 319.036 111.748C316.939 116.332 316.63 118.269 316.953 124.815C317.451 134.938 320.738 142.094 328.152 149.196C337.286 157.946 338.821 165.495 332.734 171.725C329.545 174.988 322.028 177.64 291.298 186.345C264.986 193.798 250.89 197.397 250.305 196.812C249.594 196.1 241.585 168.872 237.361 152.803C233.318 137.426 232.851 131.81 235.231 127.205C238.583 120.716 244.174 119.813 258.11 123.508C264.05 125.083 265.749 125.153 271.776 124.076C278.77 122.825 286.234 118.977 290.008 114.678C291.059 113.48 293.101 110.025 294.547 107C298.149 99.461 298.061 88.882 294.301 77.505C291.099 67.818 289.102 64.456 283.468 59.259C271.475 48.197 250.153 50.451 238.747 63.988C230.246 74.077 219.387 73.855 214.066 63.483C212.302 60.046 201.467 19.133 198.378 4.25003L197.704 1.00003L183.044 1.06303C170.572 1.11703 167.37 1.46603 161.601 3.39603ZM1178.18 2.30403C1178.18 5.09803 1183.49 14.07 1186.94 17.1C1195.44 24.564 1206.47 26.544 1220.05 23.044C1234.1 19.425 1243.24 13.647 1247.19 5.88503C1248.26 3.79203 1249.13 1.83703 1249.13 1.54003C1249.13 1.24303 1247.45 1.00303 1245.39 1.00603C1242.28 1.01203 1241.35 1.52003 1239.94 3.99503C1236.03 10.873 1220.09 17.484 1207.52 17.443C1201.36 17.423 1199.71 17.008 1195.53 14.43C1192.25 12.414 1189.7 9.75203 1187.68 6.25403C1185.05 1.70503 1184.28 1.06303 1181.43 1.03303C1179.41 1.01303 1178.18 1.49303 1178.18 2.30403ZM194.349 18.25C199.431 39.353 205.647 61.721 207.756 66.5C211.526 75.044 222.01 80.379 230.522 78.086C234.994 76.881 240.413 73.013 244.374 68.201C250.431 60.84 263.69 57.152 272.284 60.437C281.995 64.148 289.869 79.076 289.916 93.864C289.941 101.796 289.011 104.55 284.619 109.556C278.111 116.974 267.486 119.47 256.822 116.087C248.296 113.382 242.384 113.43 236.805 116.25C228.778 120.308 225.119 128.564 226.904 138.59C228.285 146.351 233.983 168.144 239.001 184.86C241.206 192.208 242.633 198.571 242.172 199C240.66 200.404 214.473 206.244 209.335 206.323C203.226 206.417 198.465 203.358 196.782 198.256C195.519 194.425 195.815 191.347 198.341 182.015C202.544 166.492 194.904 149.336 181.064 143.217C171.316 138.908 148.434 142.904 138.187 150.705C132.198 155.265 131.384 156.259 128.232 162.852C125.971 167.579 125.723 169.156 126.1 176.352C126.459 183.198 127.064 185.505 129.88 190.792C131.862 194.515 135.162 198.702 137.959 201.046C144.271 206.334 146.505 211.761 144.832 217.741C144.165 220.125 142.499 222.958 141.129 224.036C138.043 226.465 127.025 229.868 92.4357 239.074C77.596 243.024 64.8989 246.469 64.2193 246.73C62.6045 247.349 61.9669 245.563 54.4791 219.421C46.7275 192.362 45.0796 183.56 46.9293 179.093C49.9932 171.691 56.4717 169.743 67.1753 173.005C83.6978 178.041 100.074 172.014 106.871 158.396C113.217 145.678 108.338 121.432 97.2634 110.662C91.0907 104.659 85.6714 102.493 76.9465 102.542C67.0883 102.597 60.362 105.668 51.1644 114.312C43.6476 121.376 40.0231 122.832 34.495 121.006C29.6393 119.403 27.4469 116.163 24.0802 105.623C21.8398 98.611 13.9103 67.562 10.5856 52.791C10.1369 50.794 8.66492 51.265 48.9659 40.508C80.4411 32.107 88.7033 30.793 93.7188 33.389C99.6607 36.463 101.689 45.029 98.3107 52.782C95.9413 58.218 96.0173 70.178 98.4636 76.915C100.916 83.666 107.493 91.117 113.693 94.166C122.406 98.451 140.165 96.878 152.394 90.74C165.886 83.968 172.144 72.412 169.876 58.461C168.538 50.239 165.341 44.413 158.213 37.209C150.379 29.293 148.755 24.975 151.516 19.412C152.548 17.331 154.582 14.761 156.033 13.7C158.539 11.869 185.523 3.15803 189.023 3.05103C190.336 3.01003 191.429 6.13103 194.349 18.25ZM1261.29 79.151C1271.11 84.587 1276.14 100.187 1271.48 110.782C1269.28 115.779 1269.25 126.541 1271.41 130.66C1273.75 135.112 1279.6 139.633 1284.66 140.908C1290.32 142.336 1296.72 141.084 1332.59 131.521C1348.11 127.384 1361.25 124 1361.8 124C1363.43 124 1375.89 166.318 1379.07 182.65C1380.51 190.092 1379.27 194.994 1375.22 197.859C1370.63 201.107 1366.71 201.371 1358.92 198.956C1341.27 193.491 1322.88 201.418 1317.66 216.734C1312.55 231.738 1320.36 256.697 1332.73 264.895C1345.19 273.157 1361.03 270.698 1373.52 258.559C1381 251.292 1384.54 249.496 1389.51 250.43C1394.87 251.436 1397.75 254.686 1400.61 262.957C1403.39 271.003 1415.02 316.289 1415.02 319.063C1415.02 320.444 1409.01 322.249 1381.79 329.043C1363.52 333.604 1346.51 337.347 1343.99 337.361C1338.56 337.389 1333.96 334.552 1332.08 330.014C1330.66 326.571 1331.16 320.355 1333.55 312C1335.52 305.115 1334.79 297.536 1331.42 290C1324.67 274.855 1310.16 269.067 1291.2 273.955C1272.78 278.705 1263.97 286.286 1261.06 299.888C1260.18 303.957 1260.2 306.686 1261.11 311.34C1262.75 319.677 1265.12 323.922 1272.21 331.253C1278.99 338.266 1280.11 340.377 1280.11 346.165C1280.11 352.689 1275.97 355.975 1262.1 360.469C1249.94 364.407 1200.97 378.175 1200.64 377.751C1200.15 377.134 1190.95 345.154 1187.64 332.538C1182.18 311.788 1183.46 304.792 1193.26 301.855C1196.38 300.921 1198.14 301.102 1204.31 302.987C1226.4 309.733 1246.63 297.499 1247.63 276.792C1247.97 269.777 1245.43 257.73 1242.12 250.688C1237.66 241.185 1228.74 234.04 1219.45 232.525C1214.25 231.677 1205.14 233.476 1199.17 236.534C1196.69 237.8 1192.42 241.173 1189.67 244.03C1182.19 251.808 1177.14 253.497 1170.61 250.398C1168.2 249.25 1166.55 247.333 1164.84 243.648C1161.4 236.281 1147.4 182.475 1148.6 181.268C1148.9 180.969 1162.09 177.223 1177.9 172.943C1214.23 163.113 1221.4 160.811 1225.57 157.624C1232.23 152.546 1234.93 142.222 1231.66 134.39C1230.85 132.439 1227.23 127.781 1223.62 124.038C1213.88 113.951 1210.79 103.599 1214.71 94.218C1218.47 85.2 1225.57 80.876 1243.64 76.589C1248.07 75.537 1257.13 76.853 1261.29 79.151ZM647.856 122.787C657.34 161.673 660.522 169.271 668.919 173.087C677.933 177.183 686.406 174.788 695.302 165.629C702.651 158.063 706.206 156.5 716.076 156.5C723.028 156.5 724.656 156.846 727.847 159C735.932 164.456 740.948 176.56 740.97 190.66C740.984 199.24 740.794 200.092 737.978 204.106C732.01 212.611 718.77 216.243 707.45 212.48C701.056 210.355 692.765 210.304 688.781 212.366C681.324 216.225 676.785 225.305 678.001 233.929C678.823 239.752 684.355 260.886 690.12 280.224C692.584 288.489 694.445 295.407 694.254 295.597C694.064 295.787 688.015 297.306 680.812 298.972C664.216 302.809 658.77 302.904 654.641 299.427C649.415 295.026 648.98 290.608 652.585 278.506C653.267 276.215 653.586 271.252 653.332 266.867C652.545 253.25 645.684 243.438 633.852 239.008C627.122 236.488 619.998 236.461 610.403 238.916C596.08 242.582 587.587 248.263 582.824 257.362C580.565 261.68 580.133 263.777 580.117 270.5C580.093 280.702 583.092 287.543 591.425 296.305C598.326 303.561 599.585 305.703 599.58 310.184C599.575 315.074 596.249 319.789 591.33 321.882C586.091 324.111 571.058 328.384 526.401 340.341L491.692 349.634L490.717 346.567C488.087 338.303 480.508 311.092 477.703 299.837C475.027 289.103 474.706 286.58 475.597 283.272C477.748 275.275 485.388 272.18 495.294 275.291C502.958 277.698 506.044 277.986 512.68 276.917C523.785 275.127 531.753 269.538 536.219 260.404C540.569 251.505 539.49 237.429 533.337 222.81C531.276 217.915 524.209 210.356 519.184 207.673C515.883 205.91 513.495 205.521 506.148 205.552C494.658 205.6 490.347 207.489 480.159 216.942C472.877 223.7 472.344 224 467.631 224C460.766 224 457.391 220.789 454.166 211.188C451.64 203.672 439.695 156.931 439.695 154.568C439.695 153.759 442.694 152.477 447.439 151.258C451.698 150.164 468 145.789 483.664 141.535C526.779 129.826 540.283 126.831 544.645 128.006C552.261 130.059 555.565 137.346 552.96 146.351C550.796 153.832 550.194 163.546 551.532 169.398C553.109 176.3 559.034 184.777 564.737 188.289C571.995 192.759 580.37 193.78 591.174 191.511C614.103 186.696 625.897 174.17 624.238 156.396C623.436 147.795 619.758 140.45 612.971 133.901C604.539 125.763 602.643 119.691 606.539 113.299C607.611 111.538 609.828 109.404 611.465 108.557C613.777 107.361 639.216 99.331 641.554 99.059C641.829 99.027 644.665 109.705 647.856 122.787ZM548.619 410.252L543.123 412.5L551.916 412.79C556.752 412.949 564.397 412.949 568.904 412.79L577.099 412.5L573.102 410.588C566.858 407.602 555.479 407.446 548.619 410.252Z" fill="#48A03E"/>
</svg>
