<svg xmlns="http://www.w3.org/2000/svg" width="180" height="96" fill="none"><path fill="url(#a)" d="M98.748 49.001c2.423 5.418-1.643 9.35-5.422 7.164-.585-.336-4.18-.62-3.44 2.18.134.503.41 1.168.77 1.915a8.006 8.006 0 0 0-.7-.292c-.591-1.132-1.066-2.17-1.255-2.882-.742-2.801 2.855-2.516 3.439-2.18 3.78 2.186 7.845-1.746 5.422-7.164-.38-.852-.793-1.56-1.226-2.143.868.708 1.698 1.801 2.412 3.402Z"/><path fill="url(#b)" d="M97.562 47.742c2.423 5.418-1.643 9.35-5.422 7.165-.584-.337-4.18-.622-3.44 2.179.19.712.665 1.75 1.256 2.882-1.252-.456-2.763-.68-4.557-.68-2.938 0-5.238.625-6.837 1.856-.389.3-.734.63-1.036.992-1.038-1.897-2.996-2.932-5.706-2.932-.742 0-1.455.115-2.13.34v-5.86H59.601v3.585c-.854.356-1.498 1.032-1.69 1.95a2.64 2.64 0 0 1-.096.345c-.697-.218-1.472-.327-2.32-.327a5.28 5.28 0 0 0-.313.009c-.619-1.342-1.33-3.03-1.946-4.53v-.998h-.406c-.23-.566-.434-1.08-.602-1.503.164-.053.254-.08.254-.08s-.01-.016-.026-.048c1.182-.237 6.606-1.381 8.811-2.825.767-.505.851-1.737.349-2.65.004-.077-.03-.127-.094-.155a2.026 2.026 0 0 0-.95-.794 2.215 2.215 0 0 0-.142-.308c.005-.079-.03-.13-.094-.157-.253-.387-.62-.7-1.094-.845a.817.817 0 0 1-.096-.036c-.907-1.69-.966-4.55 3.162-5.905 1.514-.498 2.629-.37 3.413.064.453.911.438 1.96.096 2.468-.558.829-.19 2.139 1.008 2.63.269.886 1.24 1.662 2.846 1.404 2.813-.452 9.026-4.75 11.001-6.156.903 2.698 2.623 7.51 3.992 9.422.173.243.424.412.71.506.162.283.321.537.476.753.832 1.166 3.453.637 3.243-1.772-.157-1.744 3.833-4.914 7.242-2.132.434.583.847 1.29 1.226 2.143Z"/><path fill="#FFC20E" d="M96.336 45.6c-3.409-2.783-7.4.387-7.242 2.131.21 2.41-2.41 2.938-3.243 1.772a8.963 8.963 0 0 1-.476-.753c1.09.359 2.7-.37 2.532-2.277-.175-1.953 4.844-5.69 8.429-.874Z"/><path fill="url(#c)" d="M85.2 19.569c2.383 5.331-1.784 9.273-5.582 7.16-.59-.326-4.226-.56-3.512 2.202.604 2.336 4.363 8.187 5.068 9.273l-.605.307c-.322-.972-.516-1.6-.516-1.6l-.064.034c-.706-1.087-4.465-6.938-5.069-9.273-.715-2.763 2.923-2.528 3.511-2.201 3.8 2.112 7.966-1.83 5.583-7.16-.36-.807-.752-1.481-1.165-2.04.852.69 1.661 1.752 2.351 3.298Z"/><path fill="url(#d)" d="M85.375 48.75a1.39 1.39 0 0 1-.71-.506c-1.369-1.912-3.089-6.724-3.992-9.422.39-.278.615-.444.615-.444l-.114-.174.064-.034s2.257 7.296 4.137 10.58Z"/><path fill="url(#e)" d="M84.014 18.31c2.383 5.331-1.783 9.273-5.583 7.16-.588-.326-4.226-.56-3.51 2.202.603 2.335 4.362 8.186 5.068 9.273-.753.381-7.96 4.042-10.608 5.38-.551.277-1.096.352-1.554.25-.081-.43-.034-.956.186-1.563.648-1.773.927-2.317-.311-4.538-.34-.61-.767-1.057-1.25-1.372-1.438-2.421-4.323-2.134-6.381-1.187a7.187 7.187 0 0 0-1.89 1.276c-.061-.858-.285-1.832-.719-2.932-.404-1.027-1.143-1.977-2.086-2.815-3.054-3.964-10.878-6.22-13.433-4.13-.526-2.043-.887-3.719-.887-3.719s-.323.046-.869.135l-.103-.443c2.83-1.025 7.101-2.674 7.482-3.417.806-1.568-.028-1.99-.868-2.186.136-1.176-1.216-1.25-1.949-1.41a2.91 2.91 0 0 1-.758-.276c-.272-.542-.423-1.18-.488-1.855-.237-2.47 1.682-4.747 3.905-5.773 1.627-.746 3.752-1.109 5.29-.121l.038.066c1.223 2.181.933 2.723.255 4.485-.597 1.563-.017 2.573.971 2.78.199 1.211 1.457 1.65 2.768.992 2.346-1.18 8.208-4.144 10.201-5.152.851 2.591 2.604 7.611 4.013 9.554.17.233.414.395.695.486.167.292.332.552.492.773.828 1.144 3.49.586 3.308-1.794-.137-1.732 3.984-4.944 7.41-2.168.413.559.806 1.233 1.165 2.04Z"/><path fill="url(#f)" d="m81.174 38.204.114.174s-.225.166-.615.444l-.104-.311c.296-.151.506-.258.605-.307Z"/><path fill="url(#g)" d="m80.569 38.51.104.312c-1.975 1.407-8.188 5.704-11.001 6.156-1.606.258-2.577-.518-2.846-1.404.442.182.997.252 1.66.145l.139-.025c.52.268 1.225.251 1.942-.11 2.3-1.161 8.041-4.077 10.002-5.073Z"/><path fill="url(#h)" d="M80.052 36.912s.195.627.517 1.599c-1.961.996-7.701 3.911-10.003 5.072-.716.362-1.421.379-1.941.11 3.45-.677 11.478-6.573 11.478-6.573l-.114-.175.063-.033Z"/><path fill="url(#i)" d="m79.989 36.945.114.175s-8.027 5.896-11.478 6.574c-.406-.21-.699-.592-.798-1.12.458.103 1.003.028 1.554-.25 2.648-1.337 9.855-4.998 10.608-5.38Z"/><path fill="#C1272D" d="M82.849 16.271c-3.426-2.776-7.547.436-7.41 2.168.183 2.38-2.48 2.938-3.308 1.794a8.737 8.737 0 0 1-.492-.773c1.1.355 2.76-.384 2.614-2.28-.153-1.939 5.026-5.728 8.596-.909Z"/><path fill="url(#j)" d="M71.64 19.46a1.362 1.362 0 0 1-.696-.486c-1.409-1.943-3.162-6.963-4.013-9.554l.676-.342s2.178 7.14 4.032 10.382Z"/><path fill="url(#k)" d="m68.625 43.694-.139.025c-.663.106-1.218.037-1.66-.145-.144-.472-.088-.976.177-1.37a.774.774 0 0 0 .04-.067c.207.22.476.368.784.437.1.528.392.91.798 1.12Z"/><path fill="url(#l)" d="M67.702 36.474c1.238 2.221.96 2.765.311 4.538-.22.607-.267 1.133-.186 1.563a1.516 1.516 0 0 1-.784-.438c.311-.546.298-1.592-.178-2.484.62-1.694.866-2.26-.35-4.439a9.245 9.245 0 0 0-.064-.111c.484.314.91.761 1.251 1.371Z"/><path fill="url(#m)" d="M66.865 39.653c.476.892.49 1.938.179 2.484-.453-.481-.608-1.304-.216-2.385l.037-.1Z"/><path fill="url(#n)" d="M67.043 42.137a.79.79 0 0 1-.04.066c-.265.395-.321.899-.177 1.371-1.198-.491-1.566-1.801-1.008-2.63.341-.508.357-1.557-.096-2.468.52.288.894.711 1.143 1.177-.013.032-.024.066-.037.1-.392 1.08-.237 1.903.215 2.384Z"/><path fill="url(#o)" d="M66.515 35.214c1.216 2.179.97 2.745.35 4.439a2.874 2.874 0 0 0-1.143-1.177c-.6-1.206-2.022-2.17-4.598-1.324-2.636.866-3.565 2.345-3.657 3.74-.228-2.474 1.625-4.72 3.79-5.717 1.587-.73 3.666-1.068 5.194-.073l.064.112Z"/><path fill="#C1272D" d="M66.42 7.82s.192.63.511 1.6a7200.712 7200.712 0 0 1-10.201 5.152c-1.31.659-2.569.22-2.768-.992.464.097 1.018.016 1.581-.267 2.85-1.432 10.878-5.493 10.878-5.493Z"/><path fill="url(#p)" d="M66.451 35.102c-1.528-.995-3.607-.657-5.195.073-2.164.997-4.018 3.244-3.789 5.717a4.003 4.003 0 0 0 .32 1.805c.106.572.14 1.117-.08 1.893-.403 1.431.563.309.664.332.162.039.121.333.034.695-.6.187-1.143.338-1.313.23-.431-.276.514-2.084.095-2.184-.104-.024-1.07 1.098-.665-.333.412-1.455-.071-2.097-.234-3.63a2.77 2.77 0 0 1-.01-.104c1.182-.837 2.054-2.256 1.903-4.404a7.186 7.186 0 0 1 1.89-1.277c2.057-.946 4.943-1.234 6.38 1.188Z"/><path fill="url(#q)" d="M65.722 38.476c-.784-.434-1.9-.562-3.413-.064-4.128 1.356-4.069 4.216-3.162 5.905-.472-.199-1.019-.815-1.36-1.62-.091-.501-.237-1.023-.314-1.739l-.006-.066c.092-1.395 1.02-2.874 3.656-3.74 2.577-.847 3.998.118 4.599 1.324Z"/><path fill="url(#r)" d="M61.617 46.612c.502.913.418 2.145-.349 2.65-2.205 1.444-7.629 2.589-8.811 2.825-.071-.13-.287-.531-.591-1.114.303-.102 1.193-.404 2.319-.809 2.04-.52 4.56-1.286 5.897-2.16.166-.11.3-.253.402-.419.578-.307.973-.58 1.074-.787a.49.49 0 0 0 .059-.186Z"/><path fill="#FFC20E" d="M61.523 46.458c.064.027.098.077.093.154a1.937 1.937 0 0 0-.093-.154Z"/><path fill="url(#s)" d="M61.617 46.612a.49.49 0 0 1-.059.186c-.1.207-.496.48-1.074.787.184-.297.27-.67.262-1.057.35-.09.636-.133.777-.07.034.05.065.102.094.154Z"/><path fill="url(#t)" d="M61.523 46.458c-.14-.063-.428-.02-.778.07a2.546 2.546 0 0 0-.172-.865c.405.16.724.447.95.795Z"/><path fill="url(#u)" d="M60.746 46.528c.008.387-.078.76-.262 1.057-1.515.808-4.285 1.856-6.3 2.579a61.28 61.28 0 0 1-2.443.568c-.18-.345-.383-.74-.6-1.174 1.339-.459 4.739-1.651 7.024-2.683.01.106.044.187.111.23.281.179 1.577-.348 2.47-.577Z"/><path fill="url(#v)" d="M60.573 45.663c.109.28.167.576.173.865-.893.229-2.189.756-2.47.577-.067-.044-.1-.124-.111-.23 1.12-.505 1.972-.97 2.182-1.294a.73.73 0 0 0 .083.03c.049.016.096.033.143.052Z"/><path fill="url(#w)" d="M60.573 45.663a1.617 1.617 0 0 0-.143-.051.736.736 0 0 1-.083-.03.501.501 0 0 0 .083-.227c.056.1.104.202.143.308Z"/><path fill="url(#x)" d="M60.336 45.198c.066.028.1.079.094.157a1.968 1.968 0 0 0-.094-.157Z"/><path fill="url(#y)" d="M60.43 45.355a.505.505 0 0 1-.083.227 1.766 1.766 0 0 1-.537-.37c.234-.047.42-.06.527-.014.033.051.065.104.094.157Z"/><path fill="url(#z)" d="M60.337 45.198c-.106-.046-.293-.033-.527.014a3.595 3.595 0 0 1-.663-.895.817.817 0 0 0 .096.036c.474.146.841.458 1.094.845Z"/><path fill="url(#A)" d="M60.484 47.585a1.332 1.332 0 0 1-.402.418c-1.337.875-3.857 1.64-5.897 2.16 2.014-.722 4.784-1.77 6.299-2.578Z"/><path fill="url(#B)" d="M59.81 45.212c.18.172.364.3.537.37-.21.322-1.063.788-2.182 1.293-.03-.308.136-.831.24-1.258.487-.151 1.012-.326 1.405-.405Z"/><path fill="url(#C)" d="M59.602 57.269v2.133c-.184.23-.329.492-.426.782a5.726 5.726 0 0 0-1.36-.62c.038-.108.07-.223.095-.346.193-.917.837-1.593 1.69-1.95Z"/><path fill="url(#D)" d="M59.147 44.317c.193.36.425.667.663.895-.393.079-.918.253-1.405.404.087-.362.128-.655-.034-.694-.1-.023-1.067 1.099-.663-.332.22-.777.185-1.322.08-1.894.34.806.887 1.422 1.36 1.621Z"/><path fill="url(#E)" d="M58.18 35.191c.152 2.149-.72 3.568-1.902 4.405-.14-1.684.68-3.26 1.903-4.405Z"/><path fill="url(#F)" d="M58.405 45.617c-.104.427-.27.95-.24 1.259-2.285 1.03-5.685 2.223-7.025 2.682-1.309-2.595-3.151-6.502-3.5-8.569-.234-1.399 2.072-2.876 3.666-1.048.745.86 3.204.91 4.973-.345.002.035.005.069.009.103.163 1.534.646 2.176.234 3.631-.405 1.431.56.309.665.333.418.1-.526 1.908-.095 2.183.17.109.713-.042 1.313-.23Z"/><path fill="url(#G)" d="M57.462 32.26c.433 1.099.658 2.074.718 2.931-1.222 1.145-2.043 2.721-1.902 4.405-1.768 1.254-4.227 1.204-4.972.345-1.594-1.828-3.9-.35-3.665 1.048.348 2.067 2.19 5.974 3.5 8.57l-.43.146-.23-.374a.013.013 0 0 0-.002-.004c-1.274-2.463-3.627-7.234-4.024-9.596-.172-1.022 1.013-2.086 2.284-1.873.21.142.453.228.717.263.229.134.452.318.663.56 1.443 1.663 9.3.295 6.156-7.682a6.395 6.395 0 0 0-.9-1.555c.944.839 1.683 1.788 2.087 2.815Z"/><path fill="url(#H)" d="M57.473 40.958c.077.716.223 1.238.315 1.739a4.003 4.003 0 0 1-.32-1.805l.005.066Z"/><path fill="url(#I)" d="M56.275 30.999c3.145 7.977-4.713 9.345-6.156 7.682a2.693 2.693 0 0 0-.663-.56c1.975.267 5.076-2.303 3.166-6.03-.425-.832-.974-1.468-1.583-1.931-2.256-3.308-6.724-2.638-7.33.018-.033.15-.076.288-.128.415l-.166-.336c-.312-.85-.623-1.85-.912-2.865 1.314-3.03 8.9-1.48 12.873 2.052.38.493.686 1.013.899 1.555Z"/><path fill="#FFC20E" d="M55.183 59.246c-.183.01-.367.028-.551.055-.398-.77-.891-1.854-1.395-3.02v-1.564a123.468 123.468 0 0 0 1.946 4.529Z"/><path fill="url(#J)" d="M53.921 7.574c1.224 2.182.934 2.724.256 4.486-.226.59-.284 1.1-.215 1.52-.988-.207-1.569-1.217-.97-2.78.677-1.762.967-2.304-.256-4.485l-.038-.066a3.67 3.67 0 0 1 1.223 1.325Z"/><path fill="#FFC20E" d="M52.83 53.718h-.672c-.188-.456-.367-.898-.534-1.311l.604-.192c.168.424.373.937.602 1.503Z"/><path fill="url(#K)" d="M55.376 29.444c-3.973-3.533-11.56-5.082-12.873-2.052-.2-.701-.389-1.41-.56-2.077 2.555-2.09 10.379.165 13.433 4.13Z"/><path fill="url(#L)" d="M52.622 32.09c1.91 3.728-1.19 6.298-3.166 6.03a2.1 2.1 0 0 0-.717-.262.72.72 0 0 1-.035-.024c-1.636-1.175-4.457-.39-3.668 1.688.798 2.096 3.583 6.773 5.443 9.805l.002.004.199.384-.112.037s.147.377.389.989c-.73-1.155-5.963-9.472-7.108-12.478-.788-2.079 2.034-2.863 3.669-1.688 1.752 1.256 6.098-1.49 3.918-5.744a6.177 6.177 0 0 0-.397-.671c.609.463 1.158 1.099 1.583 1.93Z"/><path fill="url(#M)" d="m52.457 52.087.025.047-.253.081-.085-.214.083.132.23-.046Z"/><path fill="url(#N)" d="m52.457 52.088-.23.045-.084-.131c-.243-.614-.39-.99-.39-.99l.113-.038c.304.582.52.983.59 1.114Z"/><path fill="url(#O)" d="M52.144 52.001c.026.069.055.14.084.214l-.604.192c-.22-.545-.418-1.04-.581-1.45l.254-.081s-.01-.016-.026-.047l.122-.024c.358.574.623.995.75 1.196Z"/><path fill="url(#P)" d="M54.185 50.164c-1.126.405-2.016.707-2.319.81l-.125-.242c.574-.12 1.452-.315 2.444-.568Z"/><path fill="url(#Q)" d="m51.74 50.732.126.242-.112.037s.146.377.39.99c-.128-.2-.393-.621-.751-1.196.098-.02.215-.044.347-.073Z"/><path fill="url(#R)" d="M51.436 30.83c2.18 4.255-2.166 7-3.918 5.745-1.636-1.175-4.457-.39-3.669 1.688 1.145 3.006 6.377 11.323 7.108 12.478v.001l.086.215c-1.45.46-8.733 2.775-11.494 3.66-1.807.58-2.254 2.381-.323 3.432.168.523.648 1.035 1.502 1.415.536.238.966.42 1.323.629.072.14.141.293.21.464-1.486-.898-3.471-1.353-5.918-1.353-1.741 0-3.205.194-4.423.59-.06-.404-.405-.787-1.303-1.077-.438-.141-1.879.329-3.547.989h-7.375c-.96-2.245-1.99-4.777-2.287-5.961-.346-1.368 1.04-2.585 2.665-1.57 2.505 1.562 6.501-1.55 5.05-5.905-.394-1.184-1.028-1.988-1.757-2.49-1.944-3.102-6.077-2.018-6.386-.107-.23 1.45-1.665 2.6-2.79 2.33-1.477-3.514-3.855-13.756-3.855-13.756s5.588-3.729 8.537-4.318c.299-.058.602-.01.884.117.247.572.286 1.235-.025 1.819-.429.807.022 2.964 1.616 4.008.892 1.505 2.845 2.683 6.123 1.066 3.979-1.964 2.34-5.186.948-5.89-.386-.743-1.011-1.28-1.524-1.381a1.432 1.432 0 0 1-.102-.025c-.205-.786.07-1.783 1.188-2.576 1.624-1.154 5.772-2.139 8.965-2.761.941 2.373 2.85 7.082 3.786 8.617.218.357.533.598.88.712.11.21.214.394.307.547.567.933 1.81 1.073 2.525.22.158.25.146.201.03-.036.188-.236.337-.544.423-.927.512-2.245 3.78-3.072 6.143-1.28.141.208.274.432.397.672Z"/><path fill="url(#S)" d="m51.74 50.732-.347.073-.682-1.1.43-.147c.217.433.42.829.6 1.174Z"/><path fill="url(#T)" d="m51.393 50.805-.122.024c-.071-.131-.287-.532-.591-1.114l.031-.01.682 1.1Z"/><path fill="url(#U)" d="m51.27 50.829.026.047-.253.08a27.06 27.06 0 0 0-.085-.214c.054.087.084.132.084.132l.229-.045Z"/><path fill="url(#V)" d="M51.043 50.956c.163.41.36.906.581 1.45l-4.12 1.312h-4.508l.006 1.433-2.268.724c-1.19.383-1.79 1.295-1.508 2.174-1.931-1.05-1.484-2.853.323-3.432 2.761-.885 10.043-3.2 11.494-3.66Z"/><path fill="url(#W)" d="M51.27 50.829c-.147.03-.229.045-.229.045s-.03-.045-.084-.132c-.242-.613-.389-.99-.389-.99l.112-.037c.304.582.52.983.59 1.114Z"/><path fill="url(#X)" d="m50.711 49.705-.031.01-.199-.384.23.374Z"/><path fill="#C1272D" d="M52.698 6.25c-1.538-.988-3.663-.626-5.29.12-2.223 1.026-4.142 3.303-3.905 5.773.065.675.216 1.313.487 1.855-1.078-.576-1.543-1.776-1.674-3.115-.236-2.47 1.683-4.746 3.906-5.771 2.11-.97 5.057-1.29 6.476 1.137Z"/><path fill="url(#Y)" d="M50.479 49.327c-1.86-3.032-4.645-7.709-5.443-9.804-.789-2.079 2.032-2.864 3.669-1.689a.655.655 0 0 0 .035.024c-1.272-.213-2.456.85-2.285 1.873.398 2.362 2.75 7.133 4.024 9.596Z"/><path fill="url(#Z)" d="M48.74 37.858c.238.04.48.125.716.263a1.657 1.657 0 0 1-.717-.263Z"/><path fill="url(#aa)" d="M51.039 30.16c-2.362-1.793-5.63-.966-6.142 1.278a2.275 2.275 0 0 1-.424.927c-.16-.328-.517-1.018-.892-1.772.052-.127.095-.265.129-.415.605-2.656 5.073-3.326 7.329-.018Z"/><path fill="#C1272D" d="M46.698 15.684c.84.197 1.674.618.867 2.186-.38.743-4.65 2.392-7.48 3.417-.137-.59-.215-.952-.215-.952s-1.479.214-3.467.588l-.006-.015s9.409-3.178 9.983-4.297c.19-.368.289-.673.318-.927Z"/><path fill="url(#ab)" d="M44.75 14.274c.732.16 2.084.235 1.948 1.41-.272-.064-.545-.104-.762-.152-.95-.208-1.567-.775-1.946-1.534.226.121.478.214.76.276Z"/><path fill="#6D9D31" d="M44.473 32.366c.116.237.129.287-.03.036l.03-.036Z"/><path fill="url(#ac)" d="m44.473 32.366-.03.036c-.06-.095-.143-.232-.255-.419-.204-.338-.415-.8-.627-1.343l.02-.047c.374.755.731 1.444.892 1.773Z"/><path fill="url(#ad)" d="M44.188 31.983c.112.186.196.324.255.419-.716.853-1.958.713-2.525-.22a9.952 9.952 0 0 1-.306-.548c.56.185 1.203.036 1.645-.492.158.252.146.202.03-.036a2 2 0 0 0 .274-.466c.212.542.423 1.005.627 1.343Z"/><path fill="url(#ae)" d="M43.58 30.593a.805.805 0 0 1-.019.047 24.177 24.177 0 0 1-.146-.383l.166.336Z"/><path fill="url(#af)" d="m43.415 30.256.146.384a2 2 0 0 1-.275.466c-.183-.378-.626-1.23-1.056-2.11a40.6 40.6 0 0 1-.913-2.863c.14-.325.353-.596.625-.819.172.668.361 1.376.561 2.077a2.295 2.295 0 0 0-.106.275c-.074.266.461 1.45 1.018 2.59Z"/><path fill="url(#ag)" d="M43.286 31.106c.117.238.13.288-.03.036a.525.525 0 0 0 .03-.036Z"/><path fill="url(#ah)" d="M43.286 31.106a.527.527 0 0 1-.03.036c-.059-.095-.143-.232-.254-.417-.25-.416-.511-1.02-.772-1.729.43.88.873 1.732 1.056 2.11Z"/><path fill="url(#ai)" d="M43.026 60.99v.106a6.611 6.611 0 0 0-.766-.539 5.4 5.4 0 0 0-.21-.465c.4.23.708.493.976.898Z"/><path fill="url(#aj)" d="M43.002 30.725c.111.185.195.323.255.417-.442.528-1.085.677-1.645.493-1.359-2.582-3.882-9.092-4.022-9.453 1.06-.198 1.973-.352 2.597-.452a97.681 97.681 0 0 0 1.13 4.403c-.039.09-.078.178-.105.275-.074.265.46 1.45 1.018 2.588.26.709.522 1.313.772 1.729Z"/><path fill="url(#ak)" d="M42.503 27.392c.289 1.015.6 2.015.912 2.865-.557-1.14-1.092-2.325-1.018-2.59.028-.097.067-.186.106-.275Z"/><path fill="url(#al)" d="M41.317 26.133c.289 1.015.6 2.015.913 2.863-.558-1.138-1.092-2.323-1.018-2.588.027-.097.066-.186.105-.275Z"/><path fill="#6D9D31" d="M39.542 58.206c1.298.575 1.966.826 2.509 1.886-.357-.207-.787-.39-1.323-.628-.854-.38-1.334-.892-1.502-1.415.099.054.205.107.316.157Z"/><path fill="url(#am)" d="M41.056 21.595s.361 1.676.887 3.72a2.153 2.153 0 0 0-.626.818 97.529 97.529 0 0 1-1.13-4.403c.546-.088.869-.135.869-.135Z"/><path fill="url(#an)" d="M41.612 31.634a1.628 1.628 0 0 1-.88-.711c-.936-1.535-2.846-6.244-3.787-8.617l.645-.124c.14.361 2.663 6.87 4.022 9.453Z"/><path fill="url(#ao)" d="M40.084 21.287c.03.136.065.284.103.443-.623.1-1.537.254-2.597.452l-.006-.015s1.065-.36 2.5-.88Z"/><path fill="#C1272D" d="M39.87 20.335s.078.36.214.952c-1.435.52-2.5.88-2.5.88l.006.015c-.21.04-.425.08-.645.123-.303-.766-.506-1.289-.542-1.382 1.988-.374 3.467-.588 3.467-.588Z"/><path fill="#6D9D31" d="M36.403 20.923c.036.093.24.616.542 1.383-3.192.622-7.34 1.607-8.965 2.761-1.118.793-1.392 1.79-1.188 2.576-1.3-.355-1.993-2.42.002-3.834 1.735-1.233 6.355-2.274 9.609-2.886Z"/><path fill="url(#ap)" d="M31.92 59.793c-.16.052-.315.107-.466.166a3.075 3.075 0 0 0-.325.05l.064-.303H27.07c1.668-.66 3.109-1.13 3.547-.99.898.29 1.244.673 1.304 1.077Z"/><path fill="#469E46" d="M31.454 59.959a7.705 7.705 0 0 0-.344.142l.02-.092c.12-.024.229-.041.325-.05Z"/><path fill="#6D9D31" d="M28.418 29.049c1.393.703 3.03 3.926-.948 5.89-3.278 1.617-5.23.439-6.123-1.066 1.087.713 2.705.909 4.937-.193 2.751-1.358 2.817-3.319 2.134-4.631Z"/><path fill="url(#aq)" d="M28.418 29.049c-.116-.059-.23-.1-.338-.122-.62-.124-1.118-.631-1.288-1.284.034.01.067.018.102.024.513.103 1.138.639 1.524 1.382Z"/><path fill="#6D9D31" d="M25.123 46.27c1.451 4.355-2.545 7.467-5.05 5.905-1.625-1.015-3.011.202-2.665 1.57.298 1.184 1.328 3.716 2.287 5.961h-.643c-1.076-2.473-2.474-5.807-2.829-7.221-.348-1.367 1.041-2.583 2.667-1.568 2.503 1.562 6.498-1.551 5.047-5.906a5.705 5.705 0 0 0-.571-1.232c.73.503 1.363 1.307 1.757 2.491Z"/><path fill="url(#ar)" d="M23.366 43.779c-2.084-1.44-4.945-.426-5.2 1.152-.318 1.99-2.902 3.417-3.841 1.38a9.91 9.91 0 0 1-.136-.309c1.126.271 2.56-.88 2.791-2.33.31-1.91 4.442-2.994 6.386.107Z"/><path fill="url(#as)" d="M19.756 28.046c1.017.455 1.777 1.92 1.16 3.079-.292.55-.176 1.724.43 2.748-1.593-1.044-2.044-3.2-1.614-4.008.31-.584.27-1.247.024-1.82Z"/><path fill="#6D9D31" d="M19.757 28.046a1.465 1.465 0 0 0-.885-.117c-2.948.589-8.537 4.318-8.537 4.318s2.378 10.242 3.854 13.755c-.42-.1-.795-.397-1.051-.95-1.46-3.175-3.988-14.064-3.988-14.064s5.59-3.729 8.538-4.318c.83-.163 1.691.5 2.069 1.376Z"/><path fill="url(#at)" d="M98.748 49.001c2.423 5.418-1.643 9.35-5.422 7.164-.585-.336-4.18-.62-3.44 2.18.134.503.41 1.168.77 1.915a8.006 8.006 0 0 0-.7-.292c-.591-1.132-1.066-2.17-1.255-2.882-.742-2.801 2.855-2.516 3.439-2.18 3.78 2.186 7.845-1.746 5.422-7.164-.38-.852-.793-1.56-1.226-2.143.868.708 1.698 1.801 2.412 3.402Z"/><path fill="url(#au)" d="M97.562 47.742c2.423 5.418-1.643 9.35-5.422 7.165-.584-.337-4.18-.622-3.44 2.179.19.712.665 1.75 1.256 2.882-1.252-.456-2.763-.68-4.557-.68-2.938 0-5.238.625-6.837 1.856-.389.3-.734.63-1.036.992-1.038-1.897-2.996-2.932-5.706-2.932-.742 0-1.455.115-2.13.34v-5.86H59.601v3.585c-.854.356-1.498 1.032-1.69 1.95a2.64 2.64 0 0 1-.096.345c-.697-.218-1.472-.327-2.32-.327a5.28 5.28 0 0 0-.313.009c-.619-1.342-1.33-3.03-1.946-4.53v-.998h-.406c-.23-.566-.434-1.08-.602-1.503.164-.053.254-.08.254-.08s-.01-.016-.026-.048c1.182-.237 6.606-1.381 8.811-2.825.767-.505.851-1.737.349-2.65.004-.077-.03-.127-.094-.155a2.026 2.026 0 0 0-.95-.794 2.215 2.215 0 0 0-.142-.308c.005-.079-.03-.13-.094-.157-.253-.387-.62-.7-1.094-.845a.817.817 0 0 1-.096-.036c-.907-1.69-.966-4.55 3.162-5.905 1.514-.498 2.629-.37 3.413.064.453.911.438 1.96.096 2.468-.558.829-.19 2.139 1.008 2.63.269.886 1.24 1.662 2.846 1.404 2.813-.452 9.026-4.75 11.001-6.156.903 2.698 2.623 7.51 3.992 9.422.173.243.424.412.71.506.162.283.321.537.476.753.832 1.166 3.453.637 3.243-1.772-.157-1.744 3.833-4.914 7.242-2.132.434.583.847 1.29 1.226 2.143Z"/><path fill="#FFC20E" d="M96.336 45.6c-3.409-2.783-7.4.387-7.242 2.131.21 2.41-2.41 2.938-3.243 1.772a8.963 8.963 0 0 1-.476-.753c1.09.359 2.7-.37 2.532-2.277-.175-1.953 4.844-5.69 8.429-.874Z"/><path fill="url(#av)" d="M85.2 19.569c2.383 5.331-1.784 9.273-5.582 7.16-.59-.326-4.226-.56-3.512 2.202.604 2.336 4.363 8.187 5.068 9.273l-.605.307c-.322-.972-.516-1.6-.516-1.6l-.064.034c-.706-1.087-4.465-6.938-5.069-9.273-.715-2.763 2.923-2.528 3.511-2.201 3.8 2.112 7.966-1.83 5.583-7.16-.36-.807-.752-1.481-1.165-2.04.852.69 1.661 1.752 2.351 3.298Z"/><path fill="url(#aw)" d="M85.375 48.75a1.39 1.39 0 0 1-.71-.506c-1.369-1.912-3.089-6.724-3.992-9.422.39-.278.615-.444.615-.444l-.114-.174.064-.034s2.257 7.296 4.137 10.58Z"/><path fill="url(#ax)" d="M84.014 18.31c2.383 5.331-1.783 9.273-5.583 7.16-.588-.326-4.226-.56-3.51 2.202.603 2.335 4.362 8.186 5.068 9.273-.753.381-7.96 4.042-10.608 5.38-.551.277-1.096.352-1.554.25-.081-.43-.034-.956.186-1.563.648-1.773.927-2.317-.311-4.538-.34-.61-.767-1.057-1.25-1.372-1.438-2.421-4.323-2.134-6.381-1.187a7.187 7.187 0 0 0-1.89 1.276c-.061-.858-.285-1.832-.719-2.932-.404-1.027-1.143-1.977-2.086-2.815-3.054-3.964-10.878-6.22-13.433-4.13-.526-2.043-.887-3.719-.887-3.719s-.323.046-.869.135l-.103-.443c2.83-1.025 7.101-2.674 7.482-3.417.806-1.568-.028-1.99-.868-2.186.136-1.176-1.216-1.25-1.949-1.41a2.91 2.91 0 0 1-.758-.276c-.272-.542-.423-1.18-.488-1.855-.237-2.47 1.682-4.747 3.905-5.773 1.627-.746 3.752-1.109 5.29-.121l.038.066c1.223 2.181.933 2.723.255 4.485-.597 1.563-.017 2.573.971 2.78.199 1.211 1.457 1.65 2.768.992 2.346-1.18 8.208-4.144 10.201-5.152.851 2.591 2.604 7.611 4.013 9.554.17.233.414.395.695.486.167.292.332.552.492.773.828 1.144 3.49.586 3.308-1.794-.137-1.732 3.984-4.944 7.41-2.168.413.559.806 1.233 1.165 2.04Z"/><path fill="url(#ay)" d="m81.174 38.204.114.174s-.225.166-.615.444l-.104-.311c.296-.151.506-.258.605-.307Z"/><path fill="url(#az)" d="m80.569 38.51.104.312c-1.975 1.407-8.188 5.704-11.001 6.156-1.606.258-2.577-.518-2.846-1.404.442.182.997.252 1.66.145l.139-.025c.52.268 1.225.251 1.942-.11 2.3-1.161 8.041-4.077 10.002-5.073Z"/><path fill="url(#aA)" d="M80.052 36.912s.195.627.517 1.599c-1.961.996-7.701 3.911-10.003 5.072-.716.362-1.421.379-1.941.11 3.45-.677 11.478-6.573 11.478-6.573l-.114-.175.063-.033Z"/><path fill="url(#aB)" d="m79.989 36.945.114.175s-8.027 5.896-11.478 6.574c-.406-.21-.699-.592-.798-1.12.458.103 1.003.028 1.554-.25 2.648-1.337 9.855-4.998 10.608-5.38Z"/><path fill="#C1272D" d="M82.849 16.271c-3.426-2.776-7.547.436-7.41 2.168.183 2.38-2.48 2.938-3.308 1.794a8.737 8.737 0 0 1-.492-.773c1.1.355 2.76-.384 2.614-2.28-.153-1.939 5.026-5.728 8.596-.909Z"/><path fill="url(#aC)" d="M71.64 19.46a1.362 1.362 0 0 1-.696-.486c-1.409-1.943-3.162-6.963-4.013-9.554l.676-.342s2.178 7.14 4.032 10.382Z"/><path fill="url(#aD)" d="m68.625 43.694-.139.025c-.663.106-1.218.037-1.66-.145-.144-.472-.088-.976.177-1.37a.774.774 0 0 0 .04-.067c.207.22.476.368.784.437.1.528.392.91.798 1.12Z"/><path fill="url(#aE)" d="M67.702 36.474c1.238 2.221.96 2.765.311 4.538-.22.607-.267 1.133-.186 1.563a1.516 1.516 0 0 1-.784-.438c.311-.546.298-1.592-.178-2.484.62-1.694.866-2.26-.35-4.439a9.245 9.245 0 0 0-.064-.111c.484.314.91.761 1.251 1.371Z"/><path fill="url(#aF)" d="M66.865 39.653c.476.892.49 1.938.179 2.484-.453-.481-.608-1.304-.216-2.385l.037-.1Z"/><path fill="url(#aG)" d="M67.043 42.137a.79.79 0 0 1-.04.066c-.265.395-.321.899-.177 1.371-1.198-.491-1.566-1.801-1.008-2.63.341-.508.357-1.557-.096-2.468.52.288.894.711 1.143 1.177-.013.032-.024.066-.037.1-.392 1.08-.237 1.903.215 2.384Z"/><path fill="url(#aH)" d="M66.515 35.214c1.216 2.179.97 2.745.35 4.439a2.874 2.874 0 0 0-1.143-1.177c-.6-1.206-2.022-2.17-4.598-1.324-2.636.866-3.565 2.345-3.657 3.74-.228-2.474 1.625-4.72 3.79-5.717 1.587-.73 3.666-1.068 5.194-.073l.064.112Z"/><path fill="#C1272D" d="M66.42 7.82s.192.63.511 1.6a7200.712 7200.712 0 0 1-10.201 5.152c-1.31.659-2.569.22-2.768-.992.464.097 1.018.016 1.581-.267 2.85-1.432 10.878-5.493 10.878-5.493Z"/><path fill="url(#aI)" d="M66.451 35.102c-1.528-.995-3.607-.657-5.195.073-2.164.997-4.018 3.244-3.789 5.717a4.003 4.003 0 0 0 .32 1.805c.106.572.14 1.117-.08 1.893-.403 1.431.563.309.664.332.162.039.121.333.034.695-.6.187-1.143.338-1.313.23-.431-.276.514-2.084.095-2.184-.104-.024-1.07 1.098-.665-.333.412-1.455-.071-2.097-.234-3.63a2.77 2.77 0 0 1-.01-.104c1.182-.837 2.054-2.256 1.903-4.404a7.186 7.186 0 0 1 1.89-1.277c2.057-.946 4.943-1.234 6.38 1.188Z"/><path fill="url(#aJ)" d="M65.722 38.476c-.784-.434-1.9-.562-3.413-.064-4.128 1.356-4.069 4.216-3.162 5.905-.472-.199-1.019-.815-1.36-1.62-.091-.501-.237-1.023-.314-1.739l-.006-.066c.092-1.395 1.02-2.874 3.656-3.74 2.577-.847 3.998.118 4.599 1.324Z"/><path fill="url(#aK)" d="M61.617 46.612c.502.913.418 2.145-.349 2.65-2.205 1.444-7.629 2.589-8.811 2.825-.071-.13-.287-.531-.591-1.114.303-.102 1.193-.404 2.319-.809 2.04-.52 4.56-1.286 5.897-2.16.166-.11.3-.253.402-.419.578-.307.973-.58 1.074-.787a.49.49 0 0 0 .059-.186Z"/><path fill="#FFC20E" d="M61.523 46.458c.064.027.098.077.093.154a1.937 1.937 0 0 0-.093-.154Z"/><path fill="url(#aL)" d="M61.617 46.612a.49.49 0 0 1-.059.186c-.1.207-.496.48-1.074.787.184-.297.27-.67.262-1.057.35-.09.636-.133.777-.07.034.05.065.102.094.154Z"/><path fill="url(#aM)" d="M61.523 46.458c-.14-.063-.428-.02-.778.07a2.546 2.546 0 0 0-.172-.865c.405.16.724.447.95.795Z"/><path fill="url(#aN)" d="M60.746 46.528c.008.387-.078.76-.262 1.057-1.515.808-4.285 1.856-6.3 2.579a61.28 61.28 0 0 1-2.443.568c-.18-.345-.383-.74-.6-1.174 1.339-.459 4.739-1.651 7.024-2.683.01.106.044.187.111.23.281.179 1.577-.348 2.47-.577Z"/><path fill="url(#aO)" d="M60.573 45.663c.109.28.167.576.173.865-.893.229-2.189.756-2.47.577-.067-.044-.1-.124-.111-.23 1.12-.505 1.972-.97 2.182-1.294a.73.73 0 0 0 .083.03c.049.016.096.033.143.052Z"/><path fill="url(#aP)" d="M60.573 45.663a1.617 1.617 0 0 0-.143-.051.736.736 0 0 1-.083-.03.501.501 0 0 0 .083-.227c.056.1.104.202.143.308Z"/><path fill="url(#aQ)" d="M60.336 45.198c.066.028.1.079.094.157a1.968 1.968 0 0 0-.094-.157Z"/><path fill="url(#aR)" d="M60.43 45.355a.505.505 0 0 1-.083.227 1.766 1.766 0 0 1-.537-.37c.234-.047.42-.06.527-.014.033.051.065.104.094.157Z"/><path fill="url(#aS)" d="M60.337 45.198c-.106-.046-.293-.033-.527.014a3.595 3.595 0 0 1-.663-.895.817.817 0 0 0 .096.036c.474.146.841.458 1.094.845Z"/><path fill="url(#aT)" d="M60.484 47.585a1.332 1.332 0 0 1-.402.418c-1.337.875-3.857 1.64-5.897 2.16 2.014-.722 4.784-1.77 6.299-2.578Z"/><path fill="url(#aU)" d="M59.81 45.212c.18.172.364.3.537.37-.21.322-1.063.788-2.182 1.293-.03-.308.136-.831.24-1.258.487-.151 1.012-.326 1.405-.405Z"/><path fill="url(#aV)" d="M59.602 57.269v2.133c-.184.23-.329.492-.426.782a5.726 5.726 0 0 0-1.36-.62c.038-.108.07-.223.095-.346.193-.917.837-1.593 1.69-1.95Z"/><path fill="url(#aW)" d="M59.147 44.317c.193.36.425.667.663.895-.393.079-.918.253-1.405.404.087-.362.128-.655-.034-.694-.1-.023-1.067 1.099-.663-.332.22-.777.185-1.322.08-1.894.34.806.887 1.422 1.36 1.621Z"/><path fill="url(#aX)" d="M58.18 35.191c.152 2.149-.72 3.568-1.902 4.405-.14-1.684.68-3.26 1.903-4.405Z"/><path fill="url(#aY)" d="M58.405 45.617c-.104.427-.27.95-.24 1.259-2.285 1.03-5.685 2.223-7.025 2.682-1.309-2.595-3.151-6.502-3.5-8.569-.234-1.399 2.072-2.876 3.666-1.048.745.86 3.204.91 4.973-.345.002.035.005.069.009.103.163 1.534.646 2.176.234 3.631-.405 1.431.56.309.665.333.418.1-.526 1.908-.095 2.183.17.109.713-.042 1.313-.23Z"/><path fill="url(#aZ)" d="M57.462 32.26c.433 1.099.658 2.074.718 2.931-1.222 1.145-2.043 2.721-1.902 4.405-1.768 1.254-4.227 1.204-4.972.345-1.594-1.828-3.9-.35-3.665 1.048.348 2.067 2.19 5.974 3.5 8.57l-.43.146-.23-.374a.013.013 0 0 0-.002-.004c-1.274-2.463-3.627-7.234-4.024-9.596-.172-1.022 1.013-2.086 2.284-1.873.21.142.453.228.717.263.229.134.452.318.663.56 1.443 1.663 9.3.295 6.156-7.682a6.395 6.395 0 0 0-.9-1.555c.944.839 1.683 1.788 2.087 2.815Z"/><path fill="url(#ba)" d="M57.473 40.958c.077.716.223 1.238.315 1.739a4.003 4.003 0 0 1-.32-1.805l.005.066Z"/><path fill="url(#bb)" d="M56.275 30.999c3.145 7.977-4.713 9.345-6.156 7.682a2.693 2.693 0 0 0-.663-.56c1.975.267 5.076-2.303 3.166-6.03-.425-.832-.974-1.468-1.583-1.931-2.256-3.308-6.724-2.638-7.33.018-.033.15-.076.288-.128.415l-.166-.336c-.312-.85-.623-1.85-.912-2.865 1.314-3.03 8.9-1.48 12.873 2.052.38.493.686 1.013.899 1.555Z"/><path fill="#FFC20E" d="M55.183 59.246c-.183.01-.367.028-.551.055-.398-.77-.891-1.854-1.395-3.02v-1.564a123.468 123.468 0 0 0 1.946 4.529Z"/><path fill="url(#bc)" d="M53.921 7.574c1.224 2.182.934 2.724.256 4.486-.226.59-.284 1.1-.215 1.52-.988-.207-1.569-1.217-.97-2.78.677-1.762.967-2.304-.256-4.485l-.038-.066a3.67 3.67 0 0 1 1.223 1.325Z"/><path fill="#FFC20E" d="M52.83 53.718h-.672c-.188-.456-.367-.898-.534-1.311l.604-.192c.168.424.373.937.602 1.503Z"/><path fill="url(#bd)" d="M55.376 29.444c-3.973-3.533-11.56-5.082-12.873-2.052-.2-.701-.389-1.41-.56-2.077 2.555-2.09 10.379.165 13.433 4.13Z"/><path fill="url(#be)" d="M52.622 32.09c1.91 3.728-1.19 6.298-3.166 6.03a2.1 2.1 0 0 0-.717-.262.72.72 0 0 1-.035-.024c-1.636-1.175-4.457-.39-3.668 1.688.798 2.096 3.583 6.773 5.443 9.805l.002.004.199.384-.112.037s.147.377.389.989c-.73-1.155-5.963-9.472-7.108-12.478-.788-2.079 2.034-2.863 3.669-1.688 1.752 1.256 6.098-1.49 3.918-5.744a6.177 6.177 0 0 0-.397-.671c.609.463 1.158 1.099 1.583 1.93Z"/><path fill="url(#bf)" d="m52.457 52.087.025.047-.253.081-.085-.214.083.132.23-.046Z"/><path fill="url(#bg)" d="m52.457 52.088-.23.045-.084-.131c-.243-.614-.39-.99-.39-.99l.113-.038c.304.582.52.983.59 1.114Z"/><path fill="url(#bh)" d="M52.144 52.001c.026.069.055.14.084.214l-.604.192c-.22-.545-.418-1.04-.581-1.45l.254-.081s-.01-.016-.026-.047l.122-.024c.358.574.623.995.75 1.196Z"/><path fill="url(#bi)" d="M54.185 50.164c-1.126.405-2.016.707-2.319.81l-.125-.242c.574-.12 1.452-.315 2.444-.568Z"/><path fill="url(#bj)" d="m51.74 50.732.126.242-.112.037s.146.377.39.99c-.128-.2-.393-.621-.751-1.196.098-.02.215-.044.347-.073Z"/><path fill="#8DC63F" d="M51.436 30.83c2.18 4.255-2.166 7-3.918 5.745-1.636-1.175-4.457-.39-3.669 1.688 1.145 3.006 6.377 11.323 7.108 12.478v.001l.086.215c-1.45.46-8.733 2.775-11.494 3.66-1.807.58-2.254 2.381-.323 3.432.168.523.648 1.035 1.502 1.415.536.238.966.42 1.323.629.072.14.141.293.21.464-1.486-.898-3.471-1.353-5.918-1.353-1.741 0-3.205.194-4.423.59-.06-.404-.405-.787-1.303-1.077-.438-.141-1.879.329-3.547.989h-7.375c-.96-2.245-1.99-4.777-2.287-5.961-.346-1.368 1.04-2.585 2.665-1.57 2.505 1.562 6.501-1.55 5.05-5.905-.394-1.184-1.028-1.988-1.757-2.49-1.944-3.102-6.077-2.018-6.386-.107-.23 1.45-1.665 2.6-2.79 2.33-1.477-3.514-3.855-13.756-3.855-13.756s5.588-3.729 8.537-4.318c.299-.058.602-.01.884.117.247.572.286 1.235-.025 1.819-.429.807.022 2.964 1.616 4.008.892 1.505 2.845 2.683 6.123 1.066 3.979-1.964 2.34-5.186.948-5.89-.386-.743-1.011-1.28-1.524-1.381a1.432 1.432 0 0 1-.102-.025c-.205-.786.07-1.783 1.188-2.576 1.624-1.154 5.772-2.139 8.965-2.761.941 2.373 2.85 7.082 3.786 8.617.218.357.533.598.88.712.11.21.214.394.307.547.567.933 1.81 1.073 2.525.22.158.25.146.201.03-.036.188-.236.337-.544.423-.927.512-2.245 3.78-3.072 6.143-1.28.141.208.274.432.397.672Z"/><path fill="url(#bk)" d="m51.74 50.732-.347.073-.682-1.1.43-.147c.217.433.42.829.6 1.174Z"/><path fill="url(#bl)" d="m51.393 50.805-.122.024c-.071-.131-.287-.532-.591-1.114l.031-.01.682 1.1Z"/><path fill="url(#bm)" d="m51.27 50.829.026.047-.253.08a27.06 27.06 0 0 0-.085-.214c.054.087.084.132.084.132l.229-.045Z"/><path fill="url(#bn)" d="M51.043 50.956c.163.41.36.906.581 1.45l-4.12 1.312h-4.508l.006 1.433-2.268.724c-1.19.383-1.79 1.295-1.508 2.174-1.931-1.05-1.484-2.853.323-3.432 2.761-.885 10.043-3.2 11.494-3.66Z"/><path fill="url(#bo)" d="M51.27 50.829c-.147.03-.229.045-.229.045s-.03-.045-.084-.132c-.242-.613-.389-.99-.389-.99l.112-.037c.304.582.52.983.59 1.114Z"/><path fill="url(#bp)" d="m50.711 49.705-.031.01-.199-.384.23.374Z"/><path fill="#C1272D" d="M52.698 6.25c-1.538-.988-3.663-.626-5.29.12-2.223 1.026-4.142 3.303-3.905 5.773.065.675.216 1.313.487 1.855-1.078-.576-1.543-1.776-1.674-3.115-.236-2.47 1.683-4.746 3.906-5.771 2.11-.97 5.057-1.29 6.476 1.137Z"/><path fill="url(#bq)" d="M50.479 49.327c-1.86-3.032-4.645-7.709-5.443-9.804-.789-2.079 2.032-2.864 3.669-1.689a.655.655 0 0 0 .035.024c-1.272-.213-2.456.85-2.285 1.873.398 2.362 2.75 7.133 4.024 9.596Z"/><path fill="url(#br)" d="M48.74 37.858c.238.04.48.125.716.263a1.657 1.657 0 0 1-.717-.263Z"/><path fill="url(#bs)" d="M51.039 30.16c-2.362-1.793-5.63-.966-6.142 1.278a2.275 2.275 0 0 1-.424.927c-.16-.328-.517-1.018-.892-1.772.052-.127.095-.265.129-.415.605-2.656 5.073-3.326 7.329-.018Z"/><path fill="#C1272D" d="M46.698 15.684c.84.197 1.674.618.867 2.186-.38.743-4.65 2.392-7.48 3.417-.137-.59-.215-.952-.215-.952s-1.479.214-3.467.588l-.006-.015s9.409-3.178 9.983-4.297c.19-.368.289-.673.318-.927Z"/><path fill="url(#bt)" d="M44.75 14.274c.732.16 2.084.235 1.948 1.41-.272-.064-.545-.104-.762-.152-.95-.208-1.567-.775-1.946-1.534.226.121.478.214.76.276Z"/><path fill="#6D9D31" d="M44.473 32.366c.116.237.129.287-.03.036l.03-.036Z"/><path fill="url(#bu)" d="m44.473 32.366-.03.036c-.06-.095-.143-.232-.255-.419-.204-.338-.415-.8-.627-1.343l.02-.047c.374.755.731 1.444.892 1.773Z"/><path fill="url(#bv)" d="M44.188 31.983c.112.186.196.324.255.419-.716.853-1.958.713-2.525-.22a9.952 9.952 0 0 1-.306-.548c.56.185 1.203.036 1.645-.492.158.252.146.202.03-.036a2 2 0 0 0 .274-.466c.212.542.423 1.005.627 1.343Z"/><path fill="url(#bw)" d="M43.58 30.593a.805.805 0 0 1-.019.047 24.177 24.177 0 0 1-.146-.383l.166.336Z"/><path fill="url(#bx)" d="m43.415 30.256.146.384a2 2 0 0 1-.275.466c-.183-.378-.626-1.23-1.056-2.11a40.6 40.6 0 0 1-.913-2.863c.14-.325.353-.596.625-.819.172.668.361 1.376.561 2.077a2.295 2.295 0 0 0-.106.275c-.074.266.461 1.45 1.018 2.59Z"/><path fill="url(#by)" d="M43.286 31.106c.117.238.13.288-.03.036a.525.525 0 0 0 .03-.036Z"/><path fill="url(#bz)" d="M43.286 31.106a.527.527 0 0 1-.03.036c-.059-.095-.143-.232-.254-.417-.25-.416-.511-1.02-.772-1.729.43.88.873 1.732 1.056 2.11Z"/><path fill="url(#bA)" d="M43.026 60.99v.106a6.611 6.611 0 0 0-.766-.539 5.4 5.4 0 0 0-.21-.465c.4.23.708.493.976.898Z"/><path fill="url(#bB)" d="M43.002 30.725c.111.185.195.323.255.417-.442.528-1.085.677-1.645.493-1.359-2.582-3.882-9.092-4.022-9.453 1.06-.198 1.973-.352 2.597-.452a97.681 97.681 0 0 0 1.13 4.403c-.039.09-.078.178-.105.275-.074.265.46 1.45 1.018 2.588.26.709.522 1.313.772 1.729Z"/><path fill="url(#bC)" d="M42.503 27.392c.289 1.015.6 2.015.912 2.865-.557-1.14-1.092-2.325-1.018-2.59.028-.097.067-.186.106-.275Z"/><path fill="url(#bD)" d="M41.317 26.133c.289 1.015.6 2.015.913 2.863-.558-1.138-1.092-2.323-1.018-2.588.027-.097.066-.186.105-.275Z"/><path fill="#6D9D31" d="M39.542 58.206c1.298.575 1.966.826 2.509 1.886-.357-.207-.787-.39-1.323-.628-.854-.38-1.334-.892-1.502-1.415.099.054.205.107.316.157Z"/><path fill="url(#bE)" d="M41.056 21.595s.361 1.676.887 3.72a2.153 2.153 0 0 0-.626.818 97.529 97.529 0 0 1-1.13-4.403c.546-.088.869-.135.869-.135Z"/><path fill="url(#bF)" d="M41.612 31.634a1.628 1.628 0 0 1-.88-.711c-.936-1.535-2.846-6.244-3.787-8.617l.645-.124c.14.361 2.663 6.87 4.022 9.453Z"/><path fill="url(#bG)" d="M40.084 21.287c.03.136.065.284.103.443-.623.1-1.537.254-2.597.452l-.006-.015s1.065-.36 2.5-.88Z"/><path fill="#C1272D" d="M39.87 20.335s.078.36.214.952c-1.435.52-2.5.88-2.5.88l.006.015c-.21.04-.425.08-.645.123-.303-.766-.506-1.289-.542-1.382 1.988-.374 3.467-.588 3.467-.588Z"/><path fill="#6D9D31" d="M36.403 20.923c.036.093.24.616.542 1.383-3.192.622-7.34 1.607-8.965 2.761-1.118.793-1.392 1.79-1.188 2.576-1.3-.355-1.993-2.42.002-3.834 1.735-1.233 6.355-2.274 9.609-2.886Z"/><path fill="url(#bH)" d="M31.92 59.793c-.16.052-.315.107-.466.166a3.075 3.075 0 0 0-.325.05l.064-.303H27.07c1.668-.66 3.109-1.13 3.547-.99.898.29 1.244.673 1.304 1.077Z"/><path fill="#469E46" d="M31.454 59.959a7.705 7.705 0 0 0-.344.142l.02-.092c.12-.024.229-.041.325-.05Z"/><path fill="#6D9D31" d="M28.418 29.049c1.393.703 3.03 3.926-.948 5.89-3.278 1.617-5.23.439-6.123-1.066 1.087.713 2.705.909 4.937-.193 2.751-1.358 2.817-3.319 2.134-4.631Z"/><path fill="url(#bI)" d="M28.418 29.049c-.116-.059-.23-.1-.338-.122-.62-.124-1.118-.631-1.288-1.284.034.01.067.018.102.024.513.103 1.138.639 1.524 1.382Z"/><path fill="#6D9D31" d="M25.123 46.27c1.451 4.355-2.545 7.467-5.05 5.905-1.625-1.015-3.011.202-2.665 1.57.298 1.184 1.328 3.716 2.287 5.961h-.643c-1.076-2.473-2.474-5.807-2.829-7.221-.348-1.367 1.041-2.583 2.667-1.568 2.503 1.562 6.498-1.551 5.047-5.906a5.705 5.705 0 0 0-.571-1.232c.73.503 1.363 1.307 1.757 2.491Z"/><path fill="url(#bJ)" d="M23.366 43.779c-2.084-1.44-4.945-.426-5.2 1.152-.318 1.99-2.902 3.417-3.841 1.38a9.91 9.91 0 0 1-.136-.309c1.126.271 2.56-.88 2.791-2.33.31-1.91 4.442-2.994 6.386.107Z"/><path fill="url(#bK)" d="M19.756 28.046c1.017.455 1.777 1.92 1.16 3.079-.292.55-.176 1.724.43 2.748-1.593-1.044-2.044-3.2-1.614-4.008.31-.584.27-1.247.024-1.82Z"/><path fill="#6D9D31" d="M19.757 28.046a1.465 1.465 0 0 0-.885-.117c-2.948.589-8.537 4.318-8.537 4.318s2.378 10.242 3.854 13.755c-.42-.1-.795-.397-1.051-.95-1.46-3.175-3.988-14.064-3.988-14.064s5.59-3.729 8.538-4.318c.83-.163 1.691.5 2.069 1.376Z"/><path fill="#fff" d="M174.985 74.354v.566c0 3.396-1.639 5.094-4.918 5.094-1.488 0-2.661-.421-3.517-1.265-.857-.844-1.284-1.998-1.284-3.463V67.41c0-3.474 1.695-5.211 5.086-5.211 1.444 0 2.577.42 3.4 1.259.822.84 1.233 1.983 1.233 3.428v4.753h-6.954v.149c0 .166-.014.52-.042 1.064-.028.541-.042.885-.042 1.028 0 2.647.776 3.97 2.329 3.97.866 0 1.463-.4 1.797-1.2.188-.455.316-1.22.382-2.297h2.53Zm-2.53-4.879v-1.464c0-2.487-.72-3.73-2.162-3.73-1.441 0-2.262 1.249-2.262 3.746v1.448h4.424ZM160.264 71.058c-.017-.85-.026-1.398-.026-1.642 0-3.399-.707-5.11-2.122-5.134h.033c1.435 0 2.151 1.712 2.151 5.134 0 .244.01.791.027 1.642.017.85.025 1.397.025 1.641 0 3.435-.807 5.151-2.422 5.151h-.03c1.593-.022 2.389-1.738 2.389-5.15 0-.245-.008-.792-.025-1.642Z"/><path fill="#fff" d="M158.086 64.281c-1.155 0-1.906.54-2.253 1.617-.179.534-.275 1.539-.285 3.017l-.052 4.818c0 2.745.791 4.117 2.372 4.117h.062c1.615 0 2.422-1.716 2.422-5.151 0-.244-.008-.792-.025-1.641-.017-.85-.027-1.398-.027-1.643 0-3.422-.716-5.134-2.151-5.134h-.063Zm4.868-8.857v24.208h-2.665V78.1c-1.262 1.276-2.429 1.914-3.502 1.914-1.676 0-2.833-.832-3.469-2.497-.391-1.066-.587-2.603-.587-4.612v-3.363c0-2.209.225-3.84.671-4.895.684-1.598 1.995-2.397 3.931-2.397.818 0 1.753.51 2.805 1.532v-8.358h2.816ZM150.754 75.886h-2.983v3.812h2.983v-3.812ZM146.464 61.218v4.694h-1.19c-1.519 0-2.539.248-3.058.741-.52.494-.78 1.413-.78 2.756v10.323h-5.496V61.634h5.496v2.68c.257-.899.883-1.643 1.877-2.231a6.013 6.013 0 0 1 3.151-.865ZM133.543 73.738v.5c0 2.075-.547 3.601-1.642 4.578-1.094.977-2.82 1.465-5.178 1.465-3.094 0-5.144-.766-6.15-2.298-.771-1.165-1.156-3.358-1.156-6.576 0-2.797.056-4.59.166-5.378.258-1.776.927-3.044 2.009-3.804 1.082-.76 2.734-1.14 4.955-1.14 4.508 0 6.762 1.803 6.762 5.41v5.361h-8.312v2.664c0 1.377.548 2.065 1.643 2.065 1.096 0 1.709-.744 1.709-2.231a3.77 3.77 0 0 0-.05-.616h5.244Zm-5.328-5.261.033-1.932c0-1.342-.519-2.014-1.558-2.014-1.162 0-1.743.76-1.743 2.28v1.666h3.268ZM118.311 76.185v3.513h-3.167c-1.755 0-2.969-.322-3.645-.966-.676-.643-1.014-1.798-1.014-3.463V64.897h-2.447V61.55h2.447v-5.893h5.396v5.894h2.43v3.346h-2.43v9.79c0 .643.265 1.07.793 1.282.282.11.827.183 1.637.216ZM107.787 66.529v.416h-5.212v-.583c0-.455-.148-.838-.444-1.149-.296-.31-.673-.466-1.131-.466-.414 0-.751.153-1.014.458a1.64 1.64 0 0 0-.394 1.107c0 .688.721 1.371 2.162 2.048 2.324 1.088 3.675 1.77 4.056 2.048 1.441 1.021 2.161 2.314 2.161 3.88 0 3.973-2.324 5.96-6.971 5.96-2.078 0-3.715-.392-4.91-1.174-1.196-.783-1.827-1.895-1.894-3.338l-.067-1.565h5.263v.793c0 1.058.54 1.588 1.625 1.588.883 0 1.324-.444 1.324-1.331 0-.787-.693-1.525-2.079-2.212-2.122-1.064-3.401-1.768-3.837-2.112-1.385-1.12-2.078-2.589-2.078-4.407 0-3.582 2.374-5.372 7.122-5.372 1.899 0 3.402.416 4.508 1.248 1.207.922 1.81 2.31 1.81 4.163ZM86.953 65.28c.257.688.385 1.071.385 1.149v7.775c0 1.487-.53 2.23-1.592 2.23h-.031c1.04-.013 1.56-.757 1.56-2.23V66.43c0-.077-.128-.46-.385-1.148-.446-.303-.86-.458-1.243-.466h.032c.39 0 .816.156 1.274.467v-.002Z"/><path fill="#fff" d="M85.616 64.814c-.413 0-.774.183-1.08.55a1.87 1.87 0 0 0-.461 1.231v7.925c0 1.277.536 1.915 1.608 1.915h.063c1.061 0 1.592-.744 1.592-2.23v-7.776c0-.078-.129-.46-.385-1.148-.459-.311-.883-.467-1.274-.467h-.062Zm7.038 2.298v7.908c0 1.642-.611 2.93-1.835 3.862-1.223.933-2.885 1.399-4.985 1.399-2.257 0-4.01-.475-5.262-1.424-1.251-.948-1.876-2.294-1.876-4.037v-7.941c0-3.808 2.374-5.711 7.121-5.711 2.37 0 4.1.48 5.195 1.44 1.095.96 1.642 2.461 1.642 4.504ZM76.5 65.863v13.902h-5.379V67.078c0-.488-.159-.957-.476-1.407-.317-.45-.663-.674-1.04-.674-1.124 0-1.685.672-1.685 2.014v12.754h-5.396V55.59h5.296v7.576c1.106-1.388 2.452-2.082 4.038-2.082 3.095 0 4.642 1.593 4.642 4.779ZM54.816 66.879c0-1.331-.576-2.003-1.728-2.015h.031c1.173 0 1.76.672 1.76 2.015v7.525c0 1.455-.57 2.181-1.71 2.181h-.031c1.119-.013 1.678-.74 1.678-2.18V66.879Z"/><path fill="#fff" d="M53.056 64.864c-1.117 0-1.675.738-1.675 2.214v7.475c0 1.354.575 2.032 1.725 2.032h.063c1.14 0 1.71-.727 1.71-2.181v-7.526c0-1.343-.587-2.014-1.76-2.014h-.063Zm7.105 1.615v8.49c0 1.588-.399 2.859-1.198 3.813-.799.955-1.88 1.432-3.243 1.432s-2.787-.638-4.34-1.915v1.399h-5.446V55.624h5.447v7.358c1.499-1.243 2.887-1.864 4.165-1.864 3.077 0 4.615 1.786 4.615 5.36ZM43.789 73.738v.5c0 2.075-.548 3.601-1.642 4.578-1.095.977-2.82 1.465-5.178 1.465-3.095 0-5.145-.766-6.15-2.298-.772-1.165-1.157-3.358-1.157-6.576 0-2.797.056-4.59.167-5.378.257-1.776.926-3.044 2.009-3.804 1.082-.76 2.734-1.14 4.955-1.14 4.507 0 6.762 1.803 6.762 5.41v5.361h-8.312v2.664c0 1.377.547 2.065 1.642 2.065 1.096 0 1.71-.744 1.71-2.231 0-.212-.017-.416-.051-.616h5.245Zm-5.329-5.261.034-1.932c0-1.342-.52-2.014-1.559-2.014-1.162 0-1.743.76-1.743 2.28v1.666h3.268ZM28.908 61.584l-3.837 18.114h-5.63l-2.716-12.653-2.848 12.653h-5.58L4.441 61.584h5.563l1.408 13.602c.223-1.671.592-3.935 1.106-6.792.58-3.266.966-5.536 1.156-6.81h6.067L22.02 74.82l1.44-13.236h5.447ZM175.447 84.56v.973h-1.69c-.04 1.816-.059 4.397-.059 7.744h-1.089v-7.744h-1.659v-.973h4.497ZM167.237 84.523v.974h-2.814v2.597h2.426v.968h-2.426v4.19h-1.124v-8.73h3.938ZM157.171 84.535l1.858 8.742h-1.125l-.342-1.665h-1.983l-.302 1.665h-1.132l1.961-8.742h1.065Zm.246 6.126-.808-4.5-.842 4.5h1.65ZM150.131 84.56v8.74h-1.065V89.19h-2.082v4.112h-1.124V84.56h1.124v3.68h2.082v-3.68h1.065ZM141.275 90.223v.793c0 .794-.126 1.373-.38 1.737-.306.442-.843.663-1.61.663-.896 0-1.515-.323-1.859-.969-.241-.469-.362-1.192-.362-2.17 0-.1.003-.327.009-.68.006-.352.009-.577.009-.673 0-1.19.032-2.03.097-2.518.085-.666.263-1.144.533-1.432.338-.364.852-.547 1.543-.547.899 0 1.475.284 1.724.854.121.276.202.952.242 2.025h-1.011c.009-.08.013-.175.013-.288 0-.5-.037-.862-.109-1.082-.126-.401-.383-.602-.775-.602-.447 0-.75.16-.907.476-.169.336-.255 1.185-.255 2.55 0 1.089.017 1.991.048 2.705.021.453.092.783.213.99.162.29.448.434.859.434.645 0 .968-.58.968-1.737v-.565c.262-.012.412-.019.448-.019.19 0 .377.019.562.055ZM132.571 87.03v.066h-1.011l.013-.569c0-.795-.313-1.193-.939-1.193-.592 0-.889.335-.889 1.004 0 .493.26 1.009.781 1.55.326.32.806.808 1.44 1.46.516.573.774 1.183.774 1.832 0 1.487-.745 2.23-2.238 2.23-1.392 0-2.088-.836-2.088-2.508 0-.24.004-.463.012-.667h1.041v.694c0 .497.063.857.188 1.078.169.301.484.452.94.452.712 0 1.069-.38 1.069-1.143 0-.461-.259-.956-.775-1.486a66.81 66.81 0 0 1-1.434-1.45c-.517-.574-.775-1.209-.775-1.908 0-1.391.664-2.087 1.991-2.087.847 0 1.4.252 1.658.757.162.32.242.951.242 1.888ZM124.514 92.327v.974h-3.715V84.56h1.101v7.767h2.614ZM116.561 92.327v.974h-3.716V84.56h1.101v7.767h2.615ZM108.389 92.267v.986h-4.018v-8.73h3.939v1.01h-2.79v2.537h2.42v.987h-2.444v3.21h2.893ZM99.763 87.03v.066h-1.01l.012-.569c0-.795-.313-1.193-.938-1.193-.593 0-.89.335-.89 1.004 0 .493.26 1.009.781 1.55.326.32.807.808 1.44 1.46.516.573.774 1.183.774 1.832 0 1.487-.745 2.23-2.238 2.23-1.392 0-2.088-.836-2.088-2.508 0-.24.005-.463.012-.667h1.04v.694c0 .497.064.857.189 1.078.17.301.484.452.94.452.712 0 1.069-.38 1.069-1.143 0-.461-.259-.956-.774-1.486-.328-.317-.806-.8-1.435-1.45-.517-.574-.775-1.209-.775-1.908 0-1.391.664-2.087 1.992-2.087.847 0 1.4.252 1.657.757.162.32.242.951.242 1.888ZM91.488 92.267v.986H87.47v-8.73h3.94v1.01h-2.79v2.537h2.42v.987h-2.445v3.21h2.893ZM82.73 88.744v4.557h-.89v-.63c-.46.484-.995.726-1.604.726-.762 0-1.287-.333-1.573-.998-.19-.44-.285-1.102-.285-1.984 0-.966.019-2.024.055-3.174.029-1.002.157-1.69.387-2.062.32-.525.94-.788 1.864-.788.815 0 1.364.19 1.646.572.234.316.35.892.35 1.725v.469h-1.028v-.638c0-.461-.083-.78-.247-.961-.165-.18-.448-.272-.854-.272-.558 0-.888.374-.993 1.12-.056.392-.084.92-.084 1.58 0 1.583.015 2.63.048 3.139.057.93.387 1.395.992 1.395.51 0 .86-.203 1.054-.608.132-.276.199-.697.199-1.262 0-.072-.006-.398-.018-.98h-1.314v-.926h2.294ZM73.76 84.56v8.77h-1.6a594.526 594.526 0 0 1-1.663-7.514l.073 7.473h-1.035v-8.73h1.576l1.698 7.612-.091-7.611h1.041ZM65.121 92.267v.986h-4.018v-8.73h3.94v1.01h-2.79v2.537h2.42v.987H62.23v3.21h2.892ZM56.35 84.5v8.8h-1.077v-8.765l.484.019c.194 0 .392-.019.594-.055ZM50.86 84.56v.973h-1.69c-.04 1.816-.06 4.397-.06 7.744H48.02v-7.744h-1.659v-.973h4.497ZM42.815 84.56l-2.076 3.276a44.4 44.4 0 0 0 .986 2.73c.52 1.35.86 2.258 1.023 2.723h-1.17c-.664-1.98-1.194-3.464-1.591-4.453l-.695 1.07v3.383h-1.095v-8.73h1.095v3.83l2.281-3.83h1.242ZM32.089 84.535l1.858 8.742H32.82l-.342-1.665h-1.982l-.303 1.665h-1.131l1.961-8.742h1.065Zm.244 6.126-.807-4.5-.84 4.5h1.647Z"/><defs><linearGradient id="a" x1="66.496" x2="99.328" y1="81.379" y2="48.547" gradientUnits="userSpaceOnUse"><stop stop-color="#FFF200"/><stop offset="1" stop-color="#FFC20E"/></linearGradient><linearGradient id="b" x1="55.301" x2="88.132" y1="70.183" y2="37.351" gradientUnits="userSpaceOnUse"><stop stop-color="#FFF200"/><stop offset="1" stop-color="#FFC20E"/></linearGradient><linearGradient id="c" x1="53.734" x2="87.004" y1="-.607" y2="32.663" gradientUnits="userSpaceOnUse"><stop stop-color="#ED1C24"/><stop offset="1" stop-color="#C1272D"/></linearGradient><linearGradient id="d" x1="55.934" x2="88.766" y1="70.817" y2="37.985" gradientUnits="userSpaceOnUse"><stop stop-color="#FFF200"/><stop offset="1" stop-color="#FFC20E"/></linearGradient><linearGradient id="e" x1="47.364" x2="80.635" y1="5.762" y2="39.032" gradientUnits="userSpaceOnUse"><stop stop-color="#ED1C24"/><stop offset="1" stop-color="#C1272D"/></linearGradient><linearGradient id="f" x1="47.767" x2="81.038" y1="5.357" y2="38.629" gradientUnits="userSpaceOnUse"><stop stop-color="#ED1C24"/><stop offset="1" stop-color="#C1272D"/></linearGradient><linearGradient id="g" x1="42.812" x2="76.082" y1="10.315" y2="43.585" gradientUnits="userSpaceOnUse"><stop stop-color="#ED1C24"/><stop offset="1" stop-color="#C1272D"/></linearGradient><linearGradient id="h" x1="43.581" x2="76.852" y1="9.545" y2="42.815" gradientUnits="userSpaceOnUse"><stop stop-color="#ED1C24"/><stop offset="1" stop-color="#C1272D"/></linearGradient><linearGradient id="i" x1="43.532" x2="76.802" y1="9.595" y2="42.865" gradientUnits="userSpaceOnUse"><stop stop-color="#ED1C24"/><stop offset="1" stop-color="#C1272D"/></linearGradient><linearGradient id="j" x1="54.182" x2="87.453" y1="-1.057" y2="32.214" gradientUnits="userSpaceOnUse"><stop stop-color="#ED1C24"/><stop offset="1" stop-color="#C1272D"/></linearGradient><linearGradient id="k" x1="38.69" x2="71.959" y1="14.438" y2="47.707" gradientUnits="userSpaceOnUse"><stop stop-color="#ED1C24"/><stop offset="1" stop-color="#C1272D"/></linearGradient><linearGradient id="l" x1="40.654" x2="73.924" y1="12.473" y2="45.743" gradientUnits="userSpaceOnUse"><stop stop-color="#ED1C24"/><stop offset="1" stop-color="#C1272D"/></linearGradient><linearGradient id="m" x1="46.484" x2="79.315" y1="61.366" y2="28.535" gradientUnits="userSpaceOnUse"><stop stop-color="#FFF200"/><stop offset="1" stop-color="#FFC20E"/></linearGradient><linearGradient id="n" x1="46.209" x2="79.04" y1="61.091" y2="28.259" gradientUnits="userSpaceOnUse"><stop stop-color="#FFF200"/><stop offset="1" stop-color="#FFC20E"/></linearGradient><linearGradient id="o" x1="38.544" x2="71.814" y1="14.582" y2="47.853" gradientUnits="userSpaceOnUse"><stop stop-color="#ED1C24"/><stop offset="1" stop-color="#C1272D"/></linearGradient><linearGradient id="p" x1="37.256" x2="70.526" y1="15.871" y2="49.141" gradientUnits="userSpaceOnUse"><stop stop-color="#ED1C24"/><stop offset="1" stop-color="#C1272D"/></linearGradient><linearGradient id="q" x1="37.099" x2="70.368" y1="16.029" y2="49.298" gradientUnits="userSpaceOnUse"><stop stop-color="#ED1C24"/><stop offset="1" stop-color="#C1272D"/></linearGradient><linearGradient id="r" x1="30.407" x2="63.677" y1="22.72" y2="55.99" gradientUnits="userSpaceOnUse"><stop stop-color="#ED1C24"/><stop offset="1" stop-color="#C1272D"/></linearGradient><linearGradient id="s" x1="33.553" x2="66.825" y1="19.571" y2="52.843" gradientUnits="userSpaceOnUse"><stop stop-color="#ED1C24"/><stop offset="1" stop-color="#C1272D"/></linearGradient><linearGradient id="t" x1="33.901" x2="67.171" y1="19.226" y2="52.496" gradientUnits="userSpaceOnUse"><stop stop-color="#ED1C24"/><stop offset="1" stop-color="#C1272D"/></linearGradient><linearGradient id="u" x1="30.37" x2="63.64" y1="22.757" y2="56.027" gradientUnits="userSpaceOnUse"><stop stop-color="#ED1C24"/><stop offset="1" stop-color="#C1272D"/></linearGradient><linearGradient id="v" x1="33.083" x2="66.352" y1="20.046" y2="53.314" gradientUnits="userSpaceOnUse"><stop stop-color="#ED1C24"/><stop offset="1" stop-color="#C1272D"/></linearGradient><linearGradient id="w" x1="45.563" x2="78.398" y1="60.449" y2="27.614" gradientUnits="userSpaceOnUse"><stop stop-color="#FFF200"/><stop offset="1" stop-color="#FFC20E"/></linearGradient><linearGradient id="x" x1="45.394" x2="78.214" y1="60.266" y2="27.446" gradientUnits="userSpaceOnUse"><stop stop-color="#FFF200"/><stop offset="1" stop-color="#FFC20E"/></linearGradient><linearGradient id="y" x1="45.296" x2="78.129" y1="60.18" y2="27.347" gradientUnits="userSpaceOnUse"><stop stop-color="#FFF200"/><stop offset="1" stop-color="#FFC20E"/></linearGradient><linearGradient id="z" x1="44.808" x2="77.641" y1="59.692" y2="26.859" gradientUnits="userSpaceOnUse"><stop stop-color="#FFF200"/><stop offset="1" stop-color="#FFC20E"/></linearGradient><linearGradient id="A" x1="30.794" x2="64.063" y1="22.334" y2="55.603" gradientUnits="userSpaceOnUse"><stop stop-color="#ED1C24"/><stop offset="1" stop-color="#C1272D"/></linearGradient><linearGradient id="B" x1="33.076" x2="66.347" y1="20.049" y2="53.32" gradientUnits="userSpaceOnUse"><stop stop-color="#ED1C24"/><stop offset="1" stop-color="#C1272D"/></linearGradient><linearGradient id="C" x1="51.533" x2="84.364" y1="66.415" y2="33.584" gradientUnits="userSpaceOnUse"><stop stop-color="#FFF200"/><stop offset="1" stop-color="#FFC20E"/></linearGradient><linearGradient id="D" x1="33.428" x2="66.698" y1="19.699" y2="52.969" gradientUnits="userSpaceOnUse"><stop stop-color="#ED1C24"/><stop offset="1" stop-color="#C1272D"/></linearGradient><linearGradient id="E" x1="36.48" x2="69.752" y1="16.645" y2="49.916" gradientUnits="userSpaceOnUse"><stop stop-color="#ED1C24"/><stop offset="1" stop-color="#C1272D"/></linearGradient><linearGradient id="F" x1="31.129" x2="64.4" y1="21.997" y2="55.268" gradientUnits="userSpaceOnUse"><stop stop-color="#ED1C24"/><stop offset="1" stop-color="#C1272D"/></linearGradient><linearGradient id="G" x1="33.304" x2="66.574" y1="19.823" y2="53.093" gradientUnits="userSpaceOnUse"><stop stop-color="#ED1C24"/><stop offset="1" stop-color="#C1272D"/></linearGradient><linearGradient id="H" x1="34.479" x2="67.75" y1="18.646" y2="51.917" gradientUnits="userSpaceOnUse"><stop stop-color="#ED1C24"/><stop offset="1" stop-color="#C1272D"/></linearGradient><linearGradient id="I" x1="35.88" x2="69.15" y1="17.247" y2="50.517" gradientUnits="userSpaceOnUse"><stop stop-color="#ED1C24"/><stop offset="1" stop-color="#C1272D"/></linearGradient><linearGradient id="J" x1="48.209" x2="81.479" y1="4.918" y2="38.188" gradientUnits="userSpaceOnUse"><stop stop-color="#ED1C24"/><stop offset="1" stop-color="#C1272D"/></linearGradient><linearGradient id="K" x1="36.849" x2="70.119" y1="16.278" y2="49.548" gradientUnits="userSpaceOnUse"><stop stop-color="#ED1C24"/><stop offset="1" stop-color="#C1272D"/></linearGradient><linearGradient id="L" x1="26.581" x2="59.977" y1="16.001" y2="49.397" gradientUnits="userSpaceOnUse"><stop stop-color="#8DC63F"/><stop offset="1" stop-color="#28903B"/></linearGradient><linearGradient id="M" x1="44.749" x2="77.58" y1="59.631" y2="26.801" gradientUnits="userSpaceOnUse"><stop stop-color="#FFF200"/><stop offset="1" stop-color="#FFC20E"/></linearGradient><linearGradient id="N" x1="26.808" x2="60.081" y1="26.316" y2="59.588" gradientUnits="userSpaceOnUse"><stop stop-color="#ED1C24"/><stop offset="1" stop-color="#C1272D"/></linearGradient><linearGradient id="O" x1="21.243" x2="54.638" y1="21.341" y2="54.735" gradientUnits="userSpaceOnUse"><stop stop-color="#8DC63F"/><stop offset="1" stop-color="#28903B"/></linearGradient><linearGradient id="P" x1="27.793" x2="61.062" y1="25.336" y2="58.605" gradientUnits="userSpaceOnUse"><stop stop-color="#ED1C24"/><stop offset="1" stop-color="#C1272D"/></linearGradient><linearGradient id="Q" x1="26.85" x2="60.121" y1="26.275" y2="59.546" gradientUnits="userSpaceOnUse"><stop stop-color="#ED1C24"/><stop offset="1" stop-color="#C1272D"/></linearGradient><linearGradient id="R" x1="16.508" x2="49.904" y1="26.075" y2="59.47" gradientUnits="userSpaceOnUse"><stop stop-color="#8DC63F"/><stop offset="1" stop-color="#28903B"/></linearGradient><linearGradient id="S" x1="27.105" x2="60.376" y1="26.02" y2="59.291" gradientUnits="userSpaceOnUse"><stop stop-color="#ED1C24"/><stop offset="1" stop-color="#C1272D"/></linearGradient><linearGradient id="T" x1="21.654" x2="55.049" y1="20.93" y2="54.324" gradientUnits="userSpaceOnUse"><stop stop-color="#8DC63F"/><stop offset="1" stop-color="#28903B"/></linearGradient><linearGradient id="U" x1="21.422" x2="54.819" y1="21.157" y2="54.554" gradientUnits="userSpaceOnUse"><stop stop-color="#8DC63F"/><stop offset="1" stop-color="#28903B"/></linearGradient><linearGradient id="V" x1="16.558" x2="49.954" y1="26.024" y2="59.42" gradientUnits="userSpaceOnUse"><stop stop-color="#8DC63F"/><stop offset="1" stop-color="#28903B"/></linearGradient><linearGradient id="W" x1="21.575" x2="54.969" y1="21.009" y2="54.404" gradientUnits="userSpaceOnUse"><stop stop-color="#8DC63F"/><stop offset="1" stop-color="#28903B"/></linearGradient><linearGradient id="X" x1="21.823" x2="55.215" y1="20.765" y2="54.157" gradientUnits="userSpaceOnUse"><stop stop-color="#8DC63F"/><stop offset="1" stop-color="#28903B"/></linearGradient><linearGradient id="Y" x1="29.572" x2="62.839" y1="23.555" y2="56.822" gradientUnits="userSpaceOnUse"><stop stop-color="#ED1C24"/><stop offset="1" stop-color="#C1272D"/></linearGradient><linearGradient id="Z" x1="26.849" x2="60.239" y1="15.741" y2="49.131" gradientUnits="userSpaceOnUse"><stop stop-color="#8DC63F"/><stop offset="1" stop-color="#28903B"/></linearGradient><linearGradient id="aa" x1="34.845" x2="68.115" y1="18.281" y2="51.552" gradientUnits="userSpaceOnUse"><stop stop-color="#ED1C24"/><stop offset="1" stop-color="#C1272D"/></linearGradient><linearGradient id="ab" x1="41.899" x2="75.169" y1="11.228" y2="44.498" gradientUnits="userSpaceOnUse"><stop stop-color="#ED1C24"/><stop offset="1" stop-color="#C1272D"/></linearGradient><linearGradient id="ac" x1="32.82" x2="66.091" y1="20.306" y2="53.577" gradientUnits="userSpaceOnUse"><stop stop-color="#ED1C24"/><stop offset="1" stop-color="#C1272D"/></linearGradient><linearGradient id="ad" x1="32.21" x2="65.48" y1="20.916" y2="54.187" gradientUnits="userSpaceOnUse"><stop stop-color="#ED1C24"/><stop offset="1" stop-color="#C1272D"/></linearGradient><linearGradient id="ae" x1="33.082" x2="66.355" y1="20.043" y2="53.316" gradientUnits="userSpaceOnUse"><stop stop-color="#ED1C24"/><stop offset="1" stop-color="#C1272D"/></linearGradient><linearGradient id="af" x1="33.765" x2="67.035" y1="19.361" y2="52.632" gradientUnits="userSpaceOnUse"><stop stop-color="#ED1C24"/><stop offset="1" stop-color="#C1272D"/></linearGradient><linearGradient id="ag" x1="32.625" x2="65.892" y1="20.504" y2="53.771" gradientUnits="userSpaceOnUse"><stop stop-color="#ED1C24"/><stop offset="1" stop-color="#C1272D"/></linearGradient><linearGradient id="ah" x1="32.9" x2="66.171" y1="20.226" y2="53.497" gradientUnits="userSpaceOnUse"><stop stop-color="#ED1C24"/><stop offset="1" stop-color="#C1272D"/></linearGradient><linearGradient id="ai" x1="12.246" x2="45.642" y1="30.337" y2="63.732" gradientUnits="userSpaceOnUse"><stop stop-color="#8DC63F"/><stop offset="1" stop-color="#28903B"/></linearGradient><linearGradient id="aj" x1="33.672" x2="66.942" y1="19.455" y2="52.725" gradientUnits="userSpaceOnUse"><stop stop-color="#ED1C24"/><stop offset="1" stop-color="#C1272D"/></linearGradient><linearGradient id="ak" x1="33.631" x2="66.901" y1="19.495" y2="52.766" gradientUnits="userSpaceOnUse"><stop stop-color="#ED1C24"/><stop offset="1" stop-color="#C1272D"/></linearGradient><linearGradient id="al" x1="33.668" x2="66.938" y1="19.459" y2="52.729" gradientUnits="userSpaceOnUse"><stop stop-color="#ED1C24"/><stop offset="1" stop-color="#C1272D"/></linearGradient><linearGradient id="am" x1="35.224" x2="68.495" y1="17.902" y2="51.172" gradientUnits="userSpaceOnUse"><stop stop-color="#ED1C24"/><stop offset="1" stop-color="#C1272D"/></linearGradient><linearGradient id="an" x1="27.578" x2="60.973" y1="15.005" y2="48.4" gradientUnits="userSpaceOnUse"><stop stop-color="#8DC63F"/><stop offset="1" stop-color="#28903B"/></linearGradient><linearGradient id="ao" x1="35.115" x2="68.385" y1="18.012" y2="51.283" gradientUnits="userSpaceOnUse"><stop stop-color="#ED1C24"/><stop offset="1" stop-color="#C1272D"/></linearGradient><linearGradient id="ap" x1="6.226" x2="39.621" y1="36.356" y2="69.752" gradientUnits="userSpaceOnUse"><stop stop-color="#8DC63F"/><stop offset="1" stop-color="#28903B"/></linearGradient><linearGradient id="aq" x1="20.885" x2="54.282" y1="21.697" y2="55.094" gradientUnits="userSpaceOnUse"><stop stop-color="#8DC63F"/><stop offset="1" stop-color="#28903B"/></linearGradient><linearGradient id="ar" x1="8.186" x2="41.581" y1="34.397" y2="67.792" gradientUnits="userSpaceOnUse"><stop stop-color="#8DC63F"/><stop offset="1" stop-color="#28903B"/></linearGradient><linearGradient id="as" x1="16.108" x2="49.503" y1="26.475" y2="59.87" gradientUnits="userSpaceOnUse"><stop stop-color="#8DC63F"/><stop offset="1" stop-color="#28903B"/></linearGradient><linearGradient id="at" x1="66.496" x2="99.328" y1="81.379" y2="48.547" gradientUnits="userSpaceOnUse"><stop stop-color="#FFF200"/><stop offset="1" stop-color="#FFC20E"/></linearGradient><linearGradient id="au" x1="55.301" x2="88.132" y1="70.183" y2="37.351" gradientUnits="userSpaceOnUse"><stop stop-color="#FFF200"/><stop offset="1" stop-color="#FFC20E"/></linearGradient><linearGradient id="av" x1="53.734" x2="87.004" y1="-.607" y2="32.663" gradientUnits="userSpaceOnUse"><stop stop-color="#ED1C24"/><stop offset="1" stop-color="#C1272D"/></linearGradient><linearGradient id="aw" x1="55.934" x2="88.766" y1="70.817" y2="37.985" gradientUnits="userSpaceOnUse"><stop stop-color="#FFF200"/><stop offset="1" stop-color="#FFC20E"/></linearGradient><linearGradient id="ax" x1="47.364" x2="80.635" y1="5.762" y2="39.032" gradientUnits="userSpaceOnUse"><stop stop-color="#ED1C24"/><stop offset="1" stop-color="#C1272D"/></linearGradient><linearGradient id="ay" x1="47.767" x2="81.038" y1="5.357" y2="38.629" gradientUnits="userSpaceOnUse"><stop stop-color="#ED1C24"/><stop offset="1" stop-color="#C1272D"/></linearGradient><linearGradient id="az" x1="42.812" x2="76.082" y1="10.315" y2="43.585" gradientUnits="userSpaceOnUse"><stop stop-color="#ED1C24"/><stop offset="1" stop-color="#C1272D"/></linearGradient><linearGradient id="aA" x1="43.581" x2="76.852" y1="9.545" y2="42.815" gradientUnits="userSpaceOnUse"><stop stop-color="#ED1C24"/><stop offset="1" stop-color="#C1272D"/></linearGradient><linearGradient id="aB" x1="43.532" x2="76.802" y1="9.595" y2="42.865" gradientUnits="userSpaceOnUse"><stop stop-color="#ED1C24"/><stop offset="1" stop-color="#C1272D"/></linearGradient><linearGradient id="aC" x1="54.182" x2="87.453" y1="-1.057" y2="32.214" gradientUnits="userSpaceOnUse"><stop stop-color="#ED1C24"/><stop offset="1" stop-color="#C1272D"/></linearGradient><linearGradient id="aD" x1="38.69" x2="71.959" y1="14.438" y2="47.707" gradientUnits="userSpaceOnUse"><stop stop-color="#ED1C24"/><stop offset="1" stop-color="#C1272D"/></linearGradient><linearGradient id="aE" x1="40.654" x2="73.924" y1="12.473" y2="45.743" gradientUnits="userSpaceOnUse"><stop stop-color="#ED1C24"/><stop offset="1" stop-color="#C1272D"/></linearGradient><linearGradient id="aF" x1="46.484" x2="79.315" y1="61.366" y2="28.535" gradientUnits="userSpaceOnUse"><stop stop-color="#FFF200"/><stop offset="1" stop-color="#FFC20E"/></linearGradient><linearGradient id="aG" x1="46.209" x2="79.04" y1="61.091" y2="28.259" gradientUnits="userSpaceOnUse"><stop stop-color="#FFF200"/><stop offset="1" stop-color="#FFC20E"/></linearGradient><linearGradient id="aH" x1="38.544" x2="71.814" y1="14.582" y2="47.853" gradientUnits="userSpaceOnUse"><stop stop-color="#ED1C24"/><stop offset="1" stop-color="#C1272D"/></linearGradient><linearGradient id="aI" x1="37.256" x2="70.526" y1="15.871" y2="49.141" gradientUnits="userSpaceOnUse"><stop stop-color="#ED1C24"/><stop offset="1" stop-color="#C1272D"/></linearGradient><linearGradient id="aJ" x1="37.099" x2="70.368" y1="16.029" y2="49.298" gradientUnits="userSpaceOnUse"><stop stop-color="#ED1C24"/><stop offset="1" stop-color="#C1272D"/></linearGradient><linearGradient id="aK" x1="30.407" x2="63.677" y1="22.72" y2="55.99" gradientUnits="userSpaceOnUse"><stop stop-color="#ED1C24"/><stop offset="1" stop-color="#C1272D"/></linearGradient><linearGradient id="aL" x1="33.553" x2="66.825" y1="19.571" y2="52.843" gradientUnits="userSpaceOnUse"><stop stop-color="#ED1C24"/><stop offset="1" stop-color="#C1272D"/></linearGradient><linearGradient id="aM" x1="33.901" x2="67.171" y1="19.226" y2="52.496" gradientUnits="userSpaceOnUse"><stop stop-color="#ED1C24"/><stop offset="1" stop-color="#C1272D"/></linearGradient><linearGradient id="aN" x1="30.37" x2="63.64" y1="22.757" y2="56.027" gradientUnits="userSpaceOnUse"><stop stop-color="#ED1C24"/><stop offset="1" stop-color="#C1272D"/></linearGradient><linearGradient id="aO" x1="33.083" x2="66.352" y1="20.046" y2="53.314" gradientUnits="userSpaceOnUse"><stop stop-color="#ED1C24"/><stop offset="1" stop-color="#C1272D"/></linearGradient><linearGradient id="aP" x1="45.563" x2="78.398" y1="60.449" y2="27.614" gradientUnits="userSpaceOnUse"><stop stop-color="#FFF200"/><stop offset="1" stop-color="#FFC20E"/></linearGradient><linearGradient id="aQ" x1="45.394" x2="78.214" y1="60.266" y2="27.446" gradientUnits="userSpaceOnUse"><stop stop-color="#FFF200"/><stop offset="1" stop-color="#FFC20E"/></linearGradient><linearGradient id="aR" x1="45.296" x2="78.129" y1="60.18" y2="27.347" gradientUnits="userSpaceOnUse"><stop stop-color="#FFF200"/><stop offset="1" stop-color="#FFC20E"/></linearGradient><linearGradient id="aS" x1="44.808" x2="77.641" y1="59.692" y2="26.859" gradientUnits="userSpaceOnUse"><stop stop-color="#FFF200"/><stop offset="1" stop-color="#FFC20E"/></linearGradient><linearGradient id="aT" x1="30.794" x2="64.063" y1="22.334" y2="55.603" gradientUnits="userSpaceOnUse"><stop stop-color="#ED1C24"/><stop offset="1" stop-color="#C1272D"/></linearGradient><linearGradient id="aU" x1="33.076" x2="66.347" y1="20.049" y2="53.32" gradientUnits="userSpaceOnUse"><stop stop-color="#ED1C24"/><stop offset="1" stop-color="#C1272D"/></linearGradient><linearGradient id="aV" x1="51.533" x2="84.364" y1="66.415" y2="33.584" gradientUnits="userSpaceOnUse"><stop stop-color="#FFF200"/><stop offset="1" stop-color="#FFC20E"/></linearGradient><linearGradient id="aW" x1="33.428" x2="66.698" y1="19.699" y2="52.969" gradientUnits="userSpaceOnUse"><stop stop-color="#ED1C24"/><stop offset="1" stop-color="#C1272D"/></linearGradient><linearGradient id="aX" x1="36.48" x2="69.752" y1="16.645" y2="49.916" gradientUnits="userSpaceOnUse"><stop stop-color="#ED1C24"/><stop offset="1" stop-color="#C1272D"/></linearGradient><linearGradient id="aY" x1="31.129" x2="64.4" y1="21.997" y2="55.268" gradientUnits="userSpaceOnUse"><stop stop-color="#ED1C24"/><stop offset="1" stop-color="#C1272D"/></linearGradient><linearGradient id="aZ" x1="33.304" x2="66.574" y1="19.823" y2="53.093" gradientUnits="userSpaceOnUse"><stop stop-color="#ED1C24"/><stop offset="1" stop-color="#C1272D"/></linearGradient><linearGradient id="ba" x1="34.479" x2="67.75" y1="18.646" y2="51.917" gradientUnits="userSpaceOnUse"><stop stop-color="#ED1C24"/><stop offset="1" stop-color="#C1272D"/></linearGradient><linearGradient id="bb" x1="35.88" x2="69.15" y1="17.247" y2="50.517" gradientUnits="userSpaceOnUse"><stop stop-color="#ED1C24"/><stop offset="1" stop-color="#C1272D"/></linearGradient><linearGradient id="bc" x1="48.209" x2="81.479" y1="4.918" y2="38.188" gradientUnits="userSpaceOnUse"><stop stop-color="#ED1C24"/><stop offset="1" stop-color="#C1272D"/></linearGradient><linearGradient id="bd" x1="36.849" x2="70.119" y1="16.278" y2="49.548" gradientUnits="userSpaceOnUse"><stop stop-color="#ED1C24"/><stop offset="1" stop-color="#C1272D"/></linearGradient><linearGradient id="be" x1="26.581" x2="59.977" y1="16.001" y2="49.397" gradientUnits="userSpaceOnUse"><stop stop-color="#8DC63F"/><stop offset="1" stop-color="#28903B"/></linearGradient><linearGradient id="bf" x1="44.749" x2="77.58" y1="59.631" y2="26.801" gradientUnits="userSpaceOnUse"><stop stop-color="#FFF200"/><stop offset="1" stop-color="#FFC20E"/></linearGradient><linearGradient id="bg" x1="26.808" x2="60.081" y1="26.316" y2="59.588" gradientUnits="userSpaceOnUse"><stop stop-color="#ED1C24"/><stop offset="1" stop-color="#C1272D"/></linearGradient><linearGradient id="bh" x1="21.243" x2="54.638" y1="21.341" y2="54.735" gradientUnits="userSpaceOnUse"><stop stop-color="#8DC63F"/><stop offset="1" stop-color="#28903B"/></linearGradient><linearGradient id="bi" x1="27.793" x2="61.062" y1="25.336" y2="58.605" gradientUnits="userSpaceOnUse"><stop stop-color="#ED1C24"/><stop offset="1" stop-color="#C1272D"/></linearGradient><linearGradient id="bj" x1="26.85" x2="60.121" y1="26.275" y2="59.546" gradientUnits="userSpaceOnUse"><stop stop-color="#ED1C24"/><stop offset="1" stop-color="#C1272D"/></linearGradient><linearGradient id="bk" x1="27.105" x2="60.376" y1="26.02" y2="59.291" gradientUnits="userSpaceOnUse"><stop stop-color="#ED1C24"/><stop offset="1" stop-color="#C1272D"/></linearGradient><linearGradient id="bl" x1="21.654" x2="55.049" y1="20.93" y2="54.324" gradientUnits="userSpaceOnUse"><stop stop-color="#8DC63F"/><stop offset="1" stop-color="#28903B"/></linearGradient><linearGradient id="bm" x1="21.422" x2="54.819" y1="21.157" y2="54.554" gradientUnits="userSpaceOnUse"><stop stop-color="#8DC63F"/><stop offset="1" stop-color="#28903B"/></linearGradient><linearGradient id="bn" x1="16.558" x2="49.954" y1="26.024" y2="59.42" gradientUnits="userSpaceOnUse"><stop stop-color="#8DC63F"/><stop offset="1" stop-color="#28903B"/></linearGradient><linearGradient id="bo" x1="21.575" x2="54.969" y1="21.009" y2="54.404" gradientUnits="userSpaceOnUse"><stop stop-color="#8DC63F"/><stop offset="1" stop-color="#28903B"/></linearGradient><linearGradient id="bp" x1="21.823" x2="55.215" y1="20.765" y2="54.157" gradientUnits="userSpaceOnUse"><stop stop-color="#8DC63F"/><stop offset="1" stop-color="#28903B"/></linearGradient><linearGradient id="bq" x1="29.572" x2="62.839" y1="23.555" y2="56.822" gradientUnits="userSpaceOnUse"><stop stop-color="#ED1C24"/><stop offset="1" stop-color="#C1272D"/></linearGradient><linearGradient id="br" x1="26.849" x2="60.239" y1="15.741" y2="49.131" gradientUnits="userSpaceOnUse"><stop stop-color="#8DC63F"/><stop offset="1" stop-color="#28903B"/></linearGradient><linearGradient id="bs" x1="34.845" x2="68.115" y1="18.281" y2="51.552" gradientUnits="userSpaceOnUse"><stop stop-color="#ED1C24"/><stop offset="1" stop-color="#C1272D"/></linearGradient><linearGradient id="bt" x1="41.899" x2="75.169" y1="11.228" y2="44.498" gradientUnits="userSpaceOnUse"><stop stop-color="#ED1C24"/><stop offset="1" stop-color="#C1272D"/></linearGradient><linearGradient id="bu" x1="32.82" x2="66.091" y1="20.306" y2="53.577" gradientUnits="userSpaceOnUse"><stop stop-color="#ED1C24"/><stop offset="1" stop-color="#C1272D"/></linearGradient><linearGradient id="bv" x1="32.21" x2="65.48" y1="20.916" y2="54.187" gradientUnits="userSpaceOnUse"><stop stop-color="#ED1C24"/><stop offset="1" stop-color="#C1272D"/></linearGradient><linearGradient id="bw" x1="33.082" x2="66.355" y1="20.043" y2="53.316" gradientUnits="userSpaceOnUse"><stop stop-color="#ED1C24"/><stop offset="1" stop-color="#C1272D"/></linearGradient><linearGradient id="bx" x1="33.765" x2="67.035" y1="19.361" y2="52.632" gradientUnits="userSpaceOnUse"><stop stop-color="#ED1C24"/><stop offset="1" stop-color="#C1272D"/></linearGradient><linearGradient id="by" x1="32.625" x2="65.892" y1="20.504" y2="53.771" gradientUnits="userSpaceOnUse"><stop stop-color="#ED1C24"/><stop offset="1" stop-color="#C1272D"/></linearGradient><linearGradient id="bz" x1="32.9" x2="66.171" y1="20.226" y2="53.497" gradientUnits="userSpaceOnUse"><stop stop-color="#ED1C24"/><stop offset="1" stop-color="#C1272D"/></linearGradient><linearGradient id="bA" x1="12.246" x2="45.642" y1="30.337" y2="63.732" gradientUnits="userSpaceOnUse"><stop stop-color="#8DC63F"/><stop offset="1" stop-color="#28903B"/></linearGradient><linearGradient id="bB" x1="33.672" x2="66.942" y1="19.455" y2="52.725" gradientUnits="userSpaceOnUse"><stop stop-color="#ED1C24"/><stop offset="1" stop-color="#C1272D"/></linearGradient><linearGradient id="bC" x1="33.631" x2="66.901" y1="19.495" y2="52.766" gradientUnits="userSpaceOnUse"><stop stop-color="#ED1C24"/><stop offset="1" stop-color="#C1272D"/></linearGradient><linearGradient id="bD" x1="33.668" x2="66.938" y1="19.459" y2="52.729" gradientUnits="userSpaceOnUse"><stop stop-color="#ED1C24"/><stop offset="1" stop-color="#C1272D"/></linearGradient><linearGradient id="bE" x1="35.224" x2="68.495" y1="17.902" y2="51.172" gradientUnits="userSpaceOnUse"><stop stop-color="#ED1C24"/><stop offset="1" stop-color="#C1272D"/></linearGradient><linearGradient id="bF" x1="27.578" x2="60.973" y1="15.005" y2="48.4" gradientUnits="userSpaceOnUse"><stop stop-color="#8DC63F"/><stop offset="1" stop-color="#28903B"/></linearGradient><linearGradient id="bG" x1="35.115" x2="68.385" y1="18.012" y2="51.283" gradientUnits="userSpaceOnUse"><stop stop-color="#ED1C24"/><stop offset="1" stop-color="#C1272D"/></linearGradient><linearGradient id="bH" x1="6.226" x2="39.621" y1="36.356" y2="69.752" gradientUnits="userSpaceOnUse"><stop stop-color="#8DC63F"/><stop offset="1" stop-color="#28903B"/></linearGradient><linearGradient id="bI" x1="20.885" x2="54.282" y1="21.697" y2="55.094" gradientUnits="userSpaceOnUse"><stop stop-color="#8DC63F"/><stop offset="1" stop-color="#28903B"/></linearGradient><linearGradient id="bJ" x1="8.186" x2="41.581" y1="34.397" y2="67.792" gradientUnits="userSpaceOnUse"><stop stop-color="#8DC63F"/><stop offset="1" stop-color="#28903B"/></linearGradient><linearGradient id="bK" x1="16.108" x2="49.503" y1="26.475" y2="59.87" gradientUnits="userSpaceOnUse"><stop stop-color="#8DC63F"/><stop offset="1" stop-color="#28903B"/></linearGradient></defs></svg>