<svg xmlns="http://www.w3.org/2000/svg" width="115" height="61" fill="none">
  <symbol id="custom-logo-header">
    <path fill="url(#a)"
          d="M63.832 30.667c1.616 3.613-1.095 6.233-3.615 4.777-.39-.225-2.786-.414-2.292 1.452.089.336.273.78.512 1.277a5.311 5.311 0 0 0-.466-.194c-.394-.755-.71-1.447-.837-1.922-.494-1.867 1.903-1.677 2.293-1.453 2.52 1.457 5.23-1.164 3.615-4.776a7.495 7.495 0 0 0-.818-1.429c.579.472 1.132 1.201 1.608 2.268Z"/>
    <path fill="url(#b)"
          d="M63.042 29.828c1.615 3.612-1.096 6.233-3.615 4.777-.39-.225-2.787-.415-2.293 1.452.126.475.443 1.167.837 1.922-.835-.304-1.842-.454-3.038-.454-1.959 0-3.492.417-4.558 1.238-.26.2-.49.42-.69.661-.693-1.265-1.998-1.955-3.805-1.955-.495 0-.97.077-1.42.227v-3.907h-6.725v2.39c-.57.238-.999.688-1.127 1.3a1.744 1.744 0 0 1-.064.23 5.18 5.18 0 0 0-1.755-.212 82.594 82.594 0 0 1-1.297-3.019v-.666h-.271c-.153-.377-.29-.72-.402-1.002l.17-.054-.018-.031c.789-.158 4.404-.921 5.875-1.884.51-.336.567-1.158.232-1.766.003-.052-.02-.085-.062-.103a1.352 1.352 0 0 0-.633-.53 1.481 1.481 0 0 0-.096-.206c.004-.052-.019-.085-.062-.104a1.342 1.342 0 0 0-.73-.563.552.552 0 0 1-.063-.024c-.605-1.127-.644-3.033 2.107-3.937 1.01-.332 1.753-.247 2.276.043.302.607.291 1.307.064 1.646-.372.552-.127 1.425.672 1.752.18.591.826 1.109 1.897.936 1.875-.301 6.018-3.166 7.334-4.104.602 1.799 1.749 5.007 2.662 6.282a.927.927 0 0 0 .473.337c.108.189.214.358.317.502.555.777 2.302.425 2.162-1.181-.105-1.163 2.556-3.276 4.828-1.422.29.389.565.86.818 1.429Z"/>
    <path fill="#FFC20E"
          d="M62.224 28.4c-2.272-1.855-4.932.258-4.828 1.42.14 1.607-1.607 1.96-2.162 1.182a5.997 5.997 0 0 1-.317-.502c.727.24 1.8-.247 1.688-1.518-.117-1.302 3.23-3.794 5.62-.583Z"/>
    <path fill="url(#c)"
          d="M54.8 11.046c1.589 3.554-1.189 6.182-3.721 4.774-.393-.218-2.817-.375-2.341 1.467.402 1.558 2.908 5.458 3.378 6.182a82.59 82.59 0 0 0-.403.205 62.077 62.077 0 0 1-.344-1.066l-.043.022c-.47-.724-2.976-4.625-3.379-6.182-.477-1.842 1.949-1.686 2.34-1.468 2.534 1.409 5.311-1.22 3.723-4.773a7.209 7.209 0 0 0-.777-1.36c.568.46 1.108 1.168 1.568 2.199Z"/>
    <path fill="url(#d)"
          d="M54.917 30.5a.927.927 0 0 1-.473-.337c-.913-1.275-2.06-4.483-2.662-6.282.26-.185.41-.295.41-.295l-.076-.117a8.82 8.82 0 0 1 .043-.022s1.505 4.864 2.758 7.053Z"/>
    <path fill="url(#e)"
          d="M54.01 10.207c1.588 3.554-1.19 6.182-3.722 4.773-.393-.218-2.818-.374-2.341 1.468.402 1.557 2.909 5.458 3.379 6.182-.502.254-5.306 2.695-7.072 3.586-.367.186-.73.235-1.036.167-.054-.286-.022-.637.124-1.042.432-1.182.618-1.544-.207-3.025a2.548 2.548 0 0 0-.834-.914c-.959-1.615-2.882-1.423-4.254-.792a4.79 4.79 0 0 0-1.26.85c-.04-.57-.19-1.22-.479-1.954-.27-.684-.762-1.318-1.39-1.877-2.036-2.642-7.252-4.146-8.956-2.753a72.973 72.973 0 0 1-.591-2.48s-.215.032-.58.09a31.254 31.254 0 0 1-.068-.295c1.887-.683 4.734-1.782 4.987-2.278.538-1.045-.018-1.326-.578-1.457.091-.784-.81-.833-1.299-.94a1.937 1.937 0 0 1-.506-.184c-.181-.361-.281-.787-.325-1.237-.158-1.646 1.121-3.164 2.604-3.848 1.084-.498 2.501-.74 3.526-.081l.025.044c.816 1.454.623 1.815.17 2.99-.398 1.042-.01 1.716.648 1.853.132.808.971 1.1 1.845.662 1.564-.787 5.472-2.763 6.801-3.435.567 1.727 1.736 5.074 2.675 6.37a.908.908 0 0 0 .464.323c.111.195.22.369.327.516.552.762 2.328.39 2.206-1.197-.091-1.154 2.656-3.295 4.94-1.444.275.372.537.821.777 1.359Z"/>
    <path fill="url(#f)" d="m52.116 23.47.076.116s-.15.11-.41.295l-.07-.207.404-.205Z"/>
    <path fill="url(#g)"
          d="m51.713 23.674.07.207c-1.317.938-5.46 3.803-7.335 4.104-1.07.173-1.718-.345-1.897-.936.294.122.665.168 1.107.097.03-.005.06-.01.092-.017.347.179.817.168 1.295-.074 1.534-.773 5.36-2.717 6.668-3.381Z"/>
    <path fill="url(#h)"
          d="M51.369 22.608s.13.418.344 1.066a3688.14 3688.14 0 0 1-6.668 3.381c-.478.242-.948.253-1.295.074 2.3-.452 7.652-4.383 7.652-4.383l-.076-.116.043-.022Z"/>
    <path fill="url(#i)"
          d="m51.326 22.63.076.117s-5.351 3.93-7.652 4.382c-.27-.14-.466-.394-.532-.746.306.068.669.019 1.036-.167 1.766-.891 6.57-3.332 7.072-3.586Z"/>
    <path fill="#C1272D"
          d="M53.233 8.848c-2.284-1.851-5.031.29-4.94 1.444.122 1.588-1.653 1.96-2.206 1.197a5.833 5.833 0 0 1-.328-.516c.734.237 1.84-.256 1.743-1.52-.102-1.292 3.35-3.819 5.73-.605Z"/>
    <path fill="url(#j)"
          d="M45.76 10.973a.908.908 0 0 1-.464-.324c-.939-1.295-2.108-4.642-2.675-6.37l.45-.227s1.452 4.76 2.689 6.921Z"/>
    <path fill="url(#k)"
          d="M43.75 27.13a3.038 3.038 0 0 1-.092.016c-.443.071-.813.025-1.107-.097a1.073 1.073 0 0 1 .145-.958c.138.147.317.246.522.292.066.352.262.607.532.746Z"/>
    <path fill="url(#l)"
          d="M43.135 22.316c.825 1.48.64 1.843.208 3.025-.147.405-.179.756-.125 1.042a1.01 1.01 0 0 1-.522-.292c.207-.364.198-1.061-.12-1.656.414-1.13.578-1.506-.232-2.96a5.462 5.462 0 0 0-.043-.073c.322.21.607.508.834.914Z"/>
    <path fill="url(#m)" d="M42.577 24.435c.317.595.326 1.293.119 1.656-.302-.32-.405-.87-.144-1.59l.025-.066Z"/>
    <path fill="url(#n)"
          d="M42.696 26.091a1.073 1.073 0 0 0-.145.958c-.799-.327-1.044-1.2-.672-1.753.228-.338.238-1.038-.064-1.645.347.192.596.474.762.784l-.025.067c-.261.72-.158 1.268.144 1.59Z"/>
    <path fill="url(#o)"
          d="M42.344 21.476c.81 1.453.646 1.83.233 2.96a1.915 1.915 0 0 0-.762-.785c-.4-.804-1.348-1.448-3.066-.883-1.757.577-2.376 1.563-2.437 2.493-.153-1.649 1.083-3.146 2.526-3.811 1.058-.487 2.444-.712 3.463-.049l.043.075Z"/>
    <path fill="#C1272D"
          d="M42.28 3.213s.128.42.341 1.067c-1.329.672-5.237 2.648-6.801 3.435-.874.439-1.712.146-1.845-.662.31.065.678.011 1.054-.178 1.9-.954 7.252-3.662 7.252-3.662Z"/>
    <path fill="url(#p)"
          d="M42.301 21.402c-1.019-.664-2.405-.439-3.463.048-1.443.665-2.679 2.162-2.526 3.811a2.67 2.67 0 0 0 .214 1.203c.07.382.093.745-.054 1.263-.269.953.375.206.442.22.108.027.081.223.023.464-.4.125-.762.225-.875.153-.288-.183.342-1.389.063-1.455-.07-.017-.714.732-.443-.222.274-.97-.048-1.398-.156-2.42a1.78 1.78 0 0 1-.007-.07c.788-.558 1.37-1.504 1.268-2.936a4.79 4.79 0 0 1 1.26-.85c1.372-.632 3.296-.824 4.254.79Z"/>
    <path fill="url(#q)"
          d="M41.815 23.65c-.523-.289-1.267-.374-2.276-.042-2.751.904-2.712 2.81-2.107 3.937-.315-.133-.68-.544-.907-1.08-.061-.334-.158-.682-.21-1.16l-.003-.044c.06-.93.68-1.916 2.437-2.493 1.718-.565 2.665.079 3.066.883Z"/>
    <path fill="url(#r)"
          d="M39.078 29.075c.335.608.279 1.43-.232 1.766-1.47.963-5.086 1.726-5.874 1.884-.048-.087-.191-.355-.394-.743.201-.068.795-.27 1.545-.54 1.36-.346 3.04-.856 3.932-1.44.11-.073.2-.168.268-.278.385-.206.649-.388.716-.526a.326.326 0 0 0 .039-.123Z"/>
    <path fill="#FFC20E" d="M39.016 28.972c.042.018.065.051.062.103-.02-.035-.04-.07-.062-.103Z"/>
    <path fill="url(#s)"
          d="M39.078 29.075a.325.325 0 0 1-.039.123c-.067.138-.33.32-.716.526a1.29 1.29 0 0 0 .174-.705c.233-.06.425-.09.519-.047.022.033.043.068.062.103Z"/>
    <path fill="url(#t)"
          d="M39.016 28.972c-.094-.042-.285-.013-.519.047a1.698 1.698 0 0 0-.114-.577c.27.107.482.298.633.53Z"/>
    <path fill="url(#u)"
          d="M38.497 29.019a1.29 1.29 0 0 1-.174.705c-1.01.538-2.857 1.237-4.2 1.719-.66.168-1.246.298-1.63.378-.119-.23-.254-.494-.4-.782.894-.306 3.16-1.101 4.684-1.789.007.07.03.124.074.153.187.12 1.051-.232 1.646-.384Z"/>
    <path fill="url(#v)"
          d="M38.382 28.442c.073.186.111.384.115.577-.595.152-1.459.504-1.646.384-.044-.029-.067-.082-.074-.153.746-.336 1.314-.647 1.455-.862a.49.49 0 0 0 .055.02c.032.01.064.021.095.034Z"/>
    <path fill="url(#w)"
          d="M38.383 28.442a1.099 1.099 0 0 0-.096-.034.509.509 0 0 1-.055-.02.334.334 0 0 0 .056-.151c.036.066.068.134.095.205Z"/>
    <path fill="url(#x)" d="M38.225 28.132c.043.018.066.052.062.104-.019-.035-.04-.07-.062-.104Z"/>
    <path fill="url(#y)"
          d="M38.287 28.236a.334.334 0 0 1-.055.152 1.178 1.178 0 0 1-.358-.247c.156-.031.28-.04.35-.009.023.034.044.069.063.104Z"/>
    <path fill="url(#z)"
          d="M38.225 28.132c-.07-.03-.195-.022-.351.01a2.397 2.397 0 0 1-.442-.597c.022.01.043.017.064.024.316.097.56.305.729.563Z"/>
    <path fill="url(#A)"
          d="M38.323 29.723a.887.887 0 0 1-.268.279c-.891.584-2.571 1.094-3.932 1.44 1.343-.481 3.19-1.18 4.2-1.719Z"/>
    <path fill="url(#B)"
          d="M37.874 28.141c.12.115.242.2.358.247-.14.215-.709.526-1.455.862-.02-.205.09-.554.16-.839.325-.1.674-.217.937-.27Z"/>
    <path fill="url(#C)"
          d="M37.735 36.18V37.6a1.7 1.7 0 0 0-.284.522 3.813 3.813 0 0 0-.907-.414 1.75 1.75 0 0 0 .064-.23c.129-.611.558-1.062 1.127-1.3Z"/>
    <path fill="url(#D)"
          d="M37.432 27.545c.129.24.283.445.442.596-.263.053-.612.17-.937.27.058-.241.086-.437-.023-.463-.067-.016-.71.732-.442-.221.147-.518.124-.881.053-1.263.227.537.592.948.907 1.08Z"/>
    <path fill="url(#E)" d="M36.787 21.46c.101 1.433-.48 2.38-1.268 2.937-.094-1.122.453-2.173 1.268-2.936Z"/>
    <path fill="url(#F)"
          d="M36.937 28.411c-.069.285-.18.634-.16.84-1.523.687-3.79 1.482-4.683 1.788-.873-1.73-2.101-4.335-2.333-5.713-.156-.933 1.38-1.918 2.443-.7.497.574 2.137.607 3.315-.229l.007.07c.108 1.022.43 1.45.156 2.42-.27.953.374.206.443.222.279.066-.35 1.272-.063 1.455.113.072.475-.028.875-.153Z"/>
    <path fill="url(#G)"
          d="M36.308 19.506c.29.733.439 1.383.48 1.955-.816.763-1.363 1.814-1.269 2.936-1.178.836-2.818.803-3.315.23-1.063-1.218-2.6-.234-2.443.7.232 1.377 1.46 3.982 2.333 5.712l-.286.098-.154-.25-.001-.002c-.85-1.642-2.418-4.823-2.683-6.398-.114-.681.675-1.39 1.523-1.248.14.094.302.152.478.175.153.09.301.212.442.373.962 1.109 6.2.197 4.104-5.121a4.264 4.264 0 0 0-.6-1.037c.629.56 1.122 1.192 1.391 1.877Z"/>
    <path fill="url(#H)" d="M36.316 25.305c.05.478.148.826.21 1.16a2.668 2.668 0 0 1-.214-1.204l.004.044Z"/>
    <path fill="url(#I)"
          d="M35.517 18.666c2.096 5.318-3.142 6.23-4.104 5.121a1.79 1.79 0 0 0-.442-.373c1.317.178 3.384-1.535 2.11-4.02a3.725 3.725 0 0 0-1.055-1.287c-1.504-2.206-4.482-1.759-4.886.012-.022.1-.051.192-.086.276l-.11-.224a27.524 27.524 0 0 1-.608-1.91c.876-2.02 5.933-.987 8.581 1.369.254.328.458.675.6 1.036Z"/>
    <path fill="#FFC20E"
          d="M34.789 37.497a3.943 3.943 0 0 0-.367.037 35.1 35.1 0 0 1-.93-2.013v-1.043c.41 1 .885 2.125 1.297 3.02Z"/>
    <path fill="url(#J)"
          d="M33.947 3.05c.816 1.454.623 1.815.17 2.99-.15.393-.188.734-.142 1.013-.659-.138-1.046-.81-.647-1.853.451-1.175.645-1.536-.17-2.99l-.026-.044c.316.203.595.49.815.883Z"/>
    <path fill="#FFC20E" d="M33.22 33.812h-.447c-.126-.304-.246-.599-.357-.874l.403-.128c.112.282.248.625.401 1.002Z"/>
    <path fill="url(#K)"
          d="M34.917 17.63c-2.648-2.356-7.705-3.389-8.581-1.369a55.88 55.88 0 0 1-.374-1.384c1.704-1.394 6.92.11 8.955 2.752Z"/>
    <path fill="url(#L)"
          d="M33.082 19.393c1.273 2.485-.794 4.2-2.11 4.02a1.4 1.4 0 0 0-.479-.175.458.458 0 0 1-.023-.015c-1.091-.784-2.971-.26-2.446 1.125.532 1.397 2.389 4.515 3.629 6.537l.002.002.132.256-.074.025s.097.251.258.66c-.486-.77-3.975-6.315-4.738-8.32-.525-1.385 1.356-1.908 2.446-1.124 1.168.837 4.065-.994 2.612-3.83-.082-.16-.17-.31-.265-.448.406.31.772.733 1.056 1.287Z"/>
    <path fill="url(#M)" d="m32.971 32.725.018.031-.17.054a62.08 62.08 0 0 1-.056-.142l.056.087.153-.03Z"/>
    <path fill="url(#N)"
          d="m32.971 32.725-.153.03-.055-.087c-.163-.41-.26-.66-.26-.66l.074-.026c.203.388.347.656.394.743Z"/>
    <path fill="url(#O)"
          d="m32.763 32.668.056.142-.403.128c-.147-.363-.279-.693-.387-.967l.169-.054-.017-.031.081-.016.5.798Z"/>
    <path fill="url(#P)" d="M34.123 31.443c-.75.27-1.344.471-1.546.54l-.083-.162c.383-.08.968-.21 1.63-.378Z"/>
    <path fill="url(#Q)"
          d="m32.494 31.822.084.16-.075.025s.097.252.26.66c-.085-.133-.262-.414-.5-.797a29.9 29.9 0 0 0 .231-.049Z"/>
    <path fill="url(#R)"
          d="M32.291 18.554c1.453 2.836-1.444 4.667-2.612 3.83-1.09-.784-2.971-.261-2.446 1.125.763 2.004 4.252 7.549 4.738 8.318v.001c.02.046.038.093.058.143-.967.307-5.822 1.85-7.663 2.44-1.205.386-1.503 1.588-.215 2.288.112.349.432.69 1.001.944.358.158.644.28.882.419.048.093.095.196.14.31-.99-.6-2.314-.903-3.945-.903-1.16 0-2.137.13-2.948.393-.04-.269-.271-.524-.87-.718-.292-.094-1.252.22-2.364.66H11.13c-.64-1.497-1.326-3.185-1.524-3.974-.231-.912.693-1.723 1.777-1.047 1.67 1.042 4.334-1.033 3.366-3.936-.263-.79-.685-1.326-1.171-1.661-1.296-2.067-4.052-1.345-4.257-.071-.155.967-1.11 1.734-1.861 1.553-.985-2.342-2.57-9.17-2.57-9.17s3.726-2.486 5.692-2.879a.976.976 0 0 1 .59.078c.163.381.19.823-.017 1.213-.287.538.014 1.976 1.076 2.672.596 1.003 1.898 1.789 4.082.71 2.653-1.309 1.561-3.457.633-3.926-.258-.495-.674-.853-1.016-.921a.924.924 0 0 1-.069-.016c-.136-.525.047-1.19.792-1.717 1.084-.77 3.849-1.426 5.977-1.842.628 1.583 1.9 4.722 2.524 5.745.145.238.356.399.587.475.074.14.142.262.205.364.378.623 1.206.716 1.683.147.105.167.097.134.02-.024.125-.157.225-.363.282-.618.341-1.496 2.52-2.048 4.095-.853.095.139.183.288.265.448Z"/>
    <path fill="url(#S)" d="m32.494 31.822-.232.048-.454-.733.286-.098c.145.288.28.552.4.782Z"/>
    <path fill="url(#T)" d="m32.262 31.87-.081.016a66.17 66.17 0 0 1-.394-.743l.02-.006.455.733Z"/>
    <path fill="url(#U)" d="m32.18 31.886.018.031-.17.054-.056-.143.056.088.153-.03Z"/>
    <path fill="url(#V)"
          d="M32.029 31.971c.108.274.24.604.387.967l-2.746.874h-3.006l.005.955-1.512.483c-.794.255-1.194.864-1.006 1.45-1.287-.701-.99-1.903.215-2.289 1.841-.59 6.696-2.133 7.663-2.44Z"/>
    <path fill="url(#W)" d="m32.18 31.886-.152.03-.056-.088-.26-.66.075-.025c.203.388.346.655.394.743Z"/>
    <path fill="url(#X)" d="m31.808 31.137-.021.006a59.75 59.75 0 0 1-.133-.256l.154.25Z"/>
    <path fill="#C1272D"
          d="M33.132 2.166c-1.025-.658-2.442-.417-3.526.081-1.483.684-2.762 2.202-2.604 3.848.044.45.144.876.325 1.237-.719-.384-1.029-1.184-1.116-2.077-.158-1.646 1.122-3.164 2.604-3.847 1.406-.646 3.371-.86 4.317.758Z"/>
    <path fill="url(#Y)"
          d="M31.653 30.885c-1.24-2.022-3.097-5.14-3.628-6.537-.526-1.385 1.354-1.909 2.445-1.125l.023.015c-.848-.142-1.637.568-1.523 1.249.265 1.575 1.834 4.756 2.683 6.398Z"/>
    <path fill="url(#Z)" d="M30.493 23.238c.16.027.32.084.478.176a1.106 1.106 0 0 1-.478-.176Z"/>
    <path fill="url(#aa)"
          d="M32.026 18.106c-1.574-1.195-3.753-.643-4.095.853-.057.256-.157.46-.282.618-.107-.22-.345-.679-.595-1.182.035-.084.064-.176.086-.276.404-1.771 3.383-2.218 4.886-.013Z"/>
    <path fill="#C1272D"
          d="M29.132 8.456c.56.131 1.116.412.578 1.457-.253.495-3.1 1.595-4.987 2.278-.09-.394-.142-.634-.142-.634s-.987.142-2.312.391l-.004-.01s6.272-2.118 6.655-2.864a1.84 1.84 0 0 0 .212-.618Z"/>
    <path fill="url(#ab)"
          d="M27.833 7.516c.488.107 1.39.156 1.299.94-.181-.043-.363-.07-.508-.101-.634-.139-1.045-.517-1.297-1.023.15.08.318.143.506.184Z"/>
    <path fill="#6D9D31" d="M27.649 19.577c.077.158.085.191-.02.024l.02-.024Z"/>
    <path fill="url(#ac)"
          d="m27.649 19.577-.02.024c-.04-.063-.095-.155-.17-.279a6.153 6.153 0 0 1-.418-.895c.005-.01.01-.021.013-.032.25.503.488.963.595 1.182Z"/>
    <path fill="url(#ad)"
          d="m27.459 19.322.17.28c-.477.568-1.306.475-1.684-.148a6.583 6.583 0 0 1-.204-.364c.374.122.803.023 1.097-.329.106.168.097.135.02-.023.07-.089.132-.192.183-.311.141.361.282.67.418.895Z"/>
    <path fill="url(#ae)" d="M27.054 18.395a.46.46 0 0 1-.013.032 16.096 16.096 0 0 1-.097-.256l.11.224Z"/>
    <path fill="url(#af)"
          d="M26.944 18.171c.032.088.065.174.097.256-.05.119-.113.223-.183.31-.123-.251-.418-.82-.704-1.406a27.038 27.038 0 0 1-.61-1.909c.095-.216.236-.397.418-.546.114.446.24.918.374 1.385-.026.06-.052.12-.071.184-.05.177.307.966.679 1.726Z"/>
    <path fill="url(#ag)" d="M26.858 18.738c.078.158.086.191-.02.023a.391.391 0 0 0 .02-.023Z"/>
    <path fill="url(#ah)"
          d="M26.858 18.738a.389.389 0 0 1-.02.023c-.04-.063-.096-.154-.17-.278-.166-.277-.34-.68-.514-1.152.286.587.581 1.155.704 1.407Z"/>
    <path fill="url(#ai)"
          d="M26.684 38.66v.07a4.382 4.382 0 0 0-.51-.36 3.596 3.596 0 0 0-.14-.308c.266.153.472.328.65.598Z"/>
    <path fill="url(#aj)"
          d="M26.668 18.483c.075.124.13.215.17.278a1.003 1.003 0 0 1-1.097.329c-.905-1.722-2.588-6.061-2.68-6.302a66.941 66.941 0 0 1 1.73-.302c.176.75.446 1.855.754 2.936-.026.06-.052.119-.07.183-.05.177.307.967.679 1.726.173.472.348.875.514 1.152Z"/>
    <path fill="url(#ak)"
          d="M26.336 16.261c.192.677.4 1.344.608 1.91-.371-.76-.728-1.55-.679-1.726.019-.065.045-.125.07-.184Z"/>
    <path fill="url(#al)"
          d="M25.545 15.422c.192.677.4 1.344.608 1.909-.371-.759-.727-1.549-.678-1.726.018-.064.044-.124.07-.183Z"/>
    <path fill="#6D9D31"
          d="M24.362 36.804c.865.383 1.31.55 1.672 1.258-.238-.139-.524-.26-.882-.42-.57-.253-.89-.594-1.001-.943.066.037.137.072.21.105Z"/>
    <path fill="url(#am)"
          d="M25.37 12.397s.242 1.117.592 2.48c-.181.148-.323.329-.417.545a65.104 65.104 0 0 1-.754-2.936c.365-.058.58-.09.58-.09Z"/>
    <path fill="url(#an)"
          d="M25.741 19.09a1.086 1.086 0 0 1-.587-.475c-.623-1.023-1.896-4.162-2.524-5.745l.43-.082c.093.24 1.776 4.58 2.681 6.302Z"/>
    <path fill="url(#ao)"
          d="M24.723 12.191c.02.09.044.19.069.295-.416.067-1.025.17-1.732.302l-.004-.01s.71-.24 1.667-.587Z"/>
    <path fill="#C1272D"
          d="M24.58 11.557s.053.24.143.634c-.957.347-1.667.587-1.667.587l.004.01-.43.082c-.202-.51-.337-.86-.361-.921 1.326-.25 2.312-.392 2.312-.392Z"/>
    <path fill="#6D9D31"
          d="M22.269 11.948c.024.063.16.412.362.922-2.129.416-4.895 1.072-5.978 1.841-.745.529-.928 1.193-.791 1.718-.867-.237-1.33-1.613 0-2.557 1.158-.822 4.237-1.515 6.407-1.924Z"/>
    <path fill="url(#ap)"
          d="M19.28 37.862c-.106.035-.21.071-.31.11a2.025 2.025 0 0 0-.217.034l.043-.202h-2.75c1.113-.44 2.073-.754 2.365-.66.599.194.83.449.87.718Z"/>
    <path fill="#469E46" d="M18.97 37.973a5.23 5.23 0 0 0-.23.095l.013-.062c.08-.016.153-.027.217-.033Z"/>
    <path fill="#6D9D31"
          d="M16.946 17.366c.928.469 2.02 2.617-.633 3.927-2.184 1.078-3.486.292-4.082-.71.725.474 1.804.605 3.292-.13 1.834-.905 1.878-2.212 1.423-3.087Z"/>
    <path fill="url(#aq)"
          d="M16.946 17.366a.89.89 0 0 0-.226-.081c-.412-.083-.745-.421-.858-.856a.924.924 0 0 0 .068.016c.342.068.759.426 1.016.92Z"/>
    <path fill="#6D9D31"
          d="M14.749 28.847c.968 2.903-1.696 4.978-3.366 3.936-1.084-.676-2.008.135-1.777 1.047.198.79.885 2.477 1.524 3.974h-.429c-.717-1.649-1.649-3.872-1.885-4.814-.232-.912.694-1.722 1.777-1.046 1.67 1.042 4.332-1.034 3.366-3.937a3.807 3.807 0 0 0-.381-.821c.486.335.908.871 1.17 1.66Z"/>
    <path fill="url(#ar)"
          d="M13.578 27.186c-1.39-.96-3.297-.284-3.467.768-.212 1.327-1.935 2.278-2.561.92a6.57 6.57 0 0 1-.09-.206c.75.18 1.706-.586 1.86-1.553.206-1.274 2.962-1.996 4.258.071Z"/>
    <path fill="url(#as)"
          d="M11.171 16.697c.678.303 1.184 1.28.774 2.053-.195.366-.118 1.15.287 1.832-1.063-.696-1.363-2.134-1.077-2.672.207-.39.18-.832.016-1.213Z"/>
    <path fill="#6D9D31"
          d="M11.171 16.697a.977.977 0 0 0-.59-.078c-1.965.393-5.69 2.88-5.69 2.88s1.584 6.827 2.569 9.17c-.28-.067-.53-.265-.701-.634-.974-2.117-2.659-9.376-2.659-9.376s3.726-2.486 5.693-2.879c.552-.109 1.127.333 1.378.917Z"/>
    <path fill="url(#at)"
          d="M63.832 30.667c1.616 3.613-1.095 6.233-3.615 4.777-.39-.225-2.786-.414-2.292 1.452.089.336.273.78.512 1.277a5.311 5.311 0 0 0-.466-.194c-.394-.755-.71-1.447-.837-1.922-.494-1.867 1.903-1.677 2.293-1.453 2.52 1.457 5.23-1.164 3.615-4.776a7.495 7.495 0 0 0-.818-1.429c.579.472 1.132 1.201 1.608 2.268Z"/>
    <path fill="url(#au)"
          d="M63.042 29.828c1.615 3.612-1.096 6.233-3.615 4.777-.39-.225-2.787-.415-2.293 1.452.126.475.443 1.167.837 1.922-.835-.304-1.842-.454-3.038-.454-1.959 0-3.492.417-4.558 1.238-.26.2-.49.42-.69.661-.693-1.265-1.998-1.955-3.805-1.955-.495 0-.97.077-1.42.227v-3.907h-6.725v2.39c-.57.238-.999.688-1.127 1.3a1.744 1.744 0 0 1-.064.23 5.18 5.18 0 0 0-1.755-.212 82.594 82.594 0 0 1-1.297-3.019v-.666h-.271c-.153-.377-.29-.72-.402-1.002l.17-.054-.018-.031c.789-.158 4.404-.921 5.875-1.884.51-.336.567-1.158.232-1.766.003-.052-.02-.085-.062-.103a1.352 1.352 0 0 0-.633-.53 1.481 1.481 0 0 0-.096-.206c.004-.052-.019-.085-.062-.104a1.342 1.342 0 0 0-.73-.563.552.552 0 0 1-.063-.024c-.605-1.127-.644-3.033 2.107-3.937 1.01-.332 1.753-.247 2.276.043.302.607.291 1.307.064 1.646-.372.552-.127 1.425.672 1.752.18.591.826 1.109 1.897.936 1.875-.301 6.018-3.166 7.334-4.104.602 1.799 1.749 5.007 2.662 6.282a.927.927 0 0 0 .473.337c.108.189.214.358.317.502.555.777 2.302.425 2.162-1.181-.105-1.163 2.556-3.276 4.828-1.422.29.389.565.86.818 1.429Z"/>
    <path fill="#FFC20E"
          d="M62.224 28.4c-2.272-1.855-4.932.258-4.828 1.42.14 1.607-1.607 1.96-2.162 1.182a5.997 5.997 0 0 1-.317-.502c.727.24 1.8-.247 1.688-1.518-.117-1.302 3.23-3.794 5.62-.583Z"/>
    <path fill="url(#av)"
          d="M54.8 11.046c1.589 3.554-1.189 6.182-3.721 4.774-.393-.218-2.817-.375-2.341 1.467.402 1.558 2.908 5.458 3.378 6.182a82.59 82.59 0 0 0-.403.205 62.077 62.077 0 0 1-.344-1.066l-.043.022c-.47-.724-2.976-4.625-3.379-6.182-.477-1.842 1.949-1.686 2.34-1.468 2.534 1.409 5.311-1.22 3.723-4.773a7.209 7.209 0 0 0-.777-1.36c.568.46 1.108 1.168 1.568 2.199Z"/>
    <path fill="url(#aw)"
          d="M54.917 30.5a.927.927 0 0 1-.473-.337c-.913-1.275-2.06-4.483-2.662-6.282.26-.185.41-.295.41-.295l-.076-.117a8.82 8.82 0 0 1 .043-.022s1.505 4.864 2.758 7.053Z"/>
    <path fill="url(#ax)"
          d="M54.01 10.207c1.588 3.554-1.19 6.182-3.722 4.773-.393-.218-2.818-.374-2.341 1.468.402 1.557 2.909 5.458 3.379 6.182-.502.254-5.306 2.695-7.072 3.586-.367.186-.73.235-1.036.167-.054-.286-.022-.637.124-1.042.432-1.182.618-1.544-.207-3.025a2.548 2.548 0 0 0-.834-.914c-.959-1.615-2.882-1.423-4.254-.792a4.79 4.79 0 0 0-1.26.85c-.04-.57-.19-1.22-.479-1.954-.27-.684-.762-1.318-1.39-1.877-2.036-2.642-7.252-4.146-8.956-2.753a72.973 72.973 0 0 1-.591-2.48s-.215.032-.58.09a31.254 31.254 0 0 1-.068-.295c1.887-.683 4.734-1.782 4.987-2.278.538-1.045-.018-1.326-.578-1.457.091-.784-.81-.833-1.299-.94a1.937 1.937 0 0 1-.506-.184c-.181-.361-.281-.787-.325-1.237-.158-1.646 1.121-3.164 2.604-3.848 1.084-.498 2.501-.74 3.526-.081l.025.044c.816 1.454.623 1.815.17 2.99-.398 1.042-.01 1.716.648 1.853.132.808.971 1.1 1.845.662 1.564-.787 5.472-2.763 6.801-3.435.567 1.727 1.736 5.074 2.675 6.37a.908.908 0 0 0 .464.323c.111.195.22.369.327.516.552.762 2.328.39 2.206-1.197-.091-1.154 2.656-3.295 4.94-1.444.275.372.537.821.777 1.359Z"/>
    <path fill="url(#ay)" d="m52.116 23.47.076.116s-.15.11-.41.295l-.07-.207.404-.205Z"/>
    <path fill="url(#az)"
          d="m51.713 23.674.07.207c-1.317.938-5.46 3.803-7.335 4.104-1.07.173-1.718-.345-1.897-.936.294.122.665.168 1.107.097.03-.005.06-.01.092-.017.347.179.817.168 1.295-.074 1.534-.773 5.36-2.717 6.668-3.381Z"/>
    <path fill="url(#aA)"
          d="M51.369 22.608s.13.418.344 1.066a3688.14 3688.14 0 0 1-6.668 3.381c-.478.242-.948.253-1.295.074 2.3-.452 7.652-4.383 7.652-4.383l-.076-.116.043-.022Z"/>
    <path fill="url(#aB)"
          d="m51.326 22.63.076.117s-5.351 3.93-7.652 4.382c-.27-.14-.466-.394-.532-.746.306.068.669.019 1.036-.167 1.766-.891 6.57-3.332 7.072-3.586Z"/>
    <path fill="#C1272D"
          d="M53.233 8.848c-2.284-1.851-5.031.29-4.94 1.444.122 1.588-1.653 1.96-2.206 1.197a5.833 5.833 0 0 1-.328-.516c.734.237 1.84-.256 1.743-1.52-.102-1.292 3.35-3.819 5.73-.605Z"/>
    <path fill="url(#aC)"
          d="M45.76 10.973a.908.908 0 0 1-.464-.324c-.939-1.295-2.108-4.642-2.675-6.37l.45-.227s1.452 4.76 2.689 6.921Z"/>
    <path fill="url(#aD)"
          d="M43.75 27.13a3.038 3.038 0 0 1-.092.016c-.443.071-.813.025-1.107-.097a1.073 1.073 0 0 1 .145-.958c.138.147.317.246.522.292.066.352.262.607.532.746Z"/>
    <path fill="url(#aE)"
          d="M43.135 22.316c.825 1.48.64 1.843.208 3.025-.147.405-.179.756-.125 1.042a1.01 1.01 0 0 1-.522-.292c.207-.364.198-1.061-.12-1.656.414-1.13.578-1.506-.232-2.96a5.462 5.462 0 0 0-.043-.073c.322.21.607.508.834.914Z"/>
    <path fill="url(#aF)" d="M42.577 24.435c.317.595.326 1.293.119 1.656-.302-.32-.405-.87-.144-1.59l.025-.066Z"/>
    <path fill="url(#aG)"
          d="M42.696 26.091a1.073 1.073 0 0 0-.145.958c-.799-.327-1.044-1.2-.672-1.753.228-.338.238-1.038-.064-1.645.347.192.596.474.762.784l-.025.067c-.261.72-.158 1.268.144 1.59Z"/>
    <path fill="url(#aH)"
          d="M42.344 21.476c.81 1.453.646 1.83.233 2.96a1.915 1.915 0 0 0-.762-.785c-.4-.804-1.348-1.448-3.066-.883-1.757.577-2.376 1.563-2.437 2.493-.153-1.649 1.083-3.146 2.526-3.811 1.058-.487 2.444-.712 3.463-.049l.043.075Z"/>
    <path fill="#C1272D"
          d="M42.28 3.213s.128.42.341 1.067c-1.329.672-5.237 2.648-6.801 3.435-.874.439-1.712.146-1.845-.662.31.065.678.011 1.054-.178 1.9-.954 7.252-3.662 7.252-3.662Z"/>
    <path fill="url(#aI)"
          d="M42.301 21.402c-1.019-.664-2.405-.439-3.463.048-1.443.665-2.679 2.162-2.526 3.811a2.67 2.67 0 0 0 .214 1.203c.07.382.093.745-.054 1.263-.269.953.375.206.442.22.108.027.081.223.023.464-.4.125-.762.225-.875.153-.288-.183.342-1.389.063-1.455-.07-.017-.714.732-.443-.222.274-.97-.048-1.398-.156-2.42a1.78 1.78 0 0 1-.007-.07c.788-.558 1.37-1.504 1.268-2.936a4.79 4.79 0 0 1 1.26-.85c1.372-.632 3.296-.824 4.254.79Z"/>
    <path fill="url(#aJ)"
          d="M41.815 23.65c-.523-.289-1.267-.374-2.276-.042-2.751.904-2.712 2.81-2.107 3.937-.315-.133-.68-.544-.907-1.08-.061-.334-.158-.682-.21-1.16l-.003-.044c.06-.93.68-1.916 2.437-2.493 1.718-.565 2.665.079 3.066.883Z"/>
    <path fill="url(#aK)"
          d="M39.078 29.075c.335.608.279 1.43-.232 1.766-1.47.963-5.086 1.726-5.874 1.884-.048-.087-.191-.355-.394-.743.201-.068.795-.27 1.545-.54 1.36-.346 3.04-.856 3.932-1.44.11-.073.2-.168.268-.278.385-.206.649-.388.716-.526a.326.326 0 0 0 .039-.123Z"/>
    <path fill="#FFC20E" d="M39.016 28.972c.042.018.065.051.062.103-.02-.035-.04-.07-.062-.103Z"/>
    <path fill="url(#aL)"
          d="M39.078 29.075a.325.325 0 0 1-.039.123c-.067.138-.33.32-.716.526a1.29 1.29 0 0 0 .174-.705c.233-.06.425-.09.519-.047.022.033.043.068.062.103Z"/>
    <path fill="url(#aM)"
          d="M39.016 28.972c-.094-.042-.285-.013-.519.047a1.698 1.698 0 0 0-.114-.577c.27.107.482.298.633.53Z"/>
    <path fill="url(#aN)"
          d="M38.497 29.019a1.29 1.29 0 0 1-.174.705c-1.01.538-2.857 1.237-4.2 1.719-.66.168-1.246.298-1.63.378-.119-.23-.254-.494-.4-.782.894-.306 3.16-1.101 4.684-1.789.007.07.03.124.074.153.187.12 1.051-.232 1.646-.384Z"/>
    <path fill="url(#aO)"
          d="M38.382 28.442c.073.186.111.384.115.577-.595.152-1.459.504-1.646.384-.044-.029-.067-.082-.074-.153.746-.336 1.314-.647 1.455-.862a.49.49 0 0 0 .055.02c.032.01.064.021.095.034Z"/>
    <path fill="url(#aP)"
          d="M38.383 28.442a1.099 1.099 0 0 0-.096-.034.509.509 0 0 1-.055-.02.334.334 0 0 0 .056-.151c.036.066.068.134.095.205Z"/>
    <path fill="url(#aQ)" d="M38.225 28.132c.043.018.066.052.062.104-.019-.035-.04-.07-.062-.104Z"/>
    <path fill="url(#aR)"
          d="M38.287 28.236a.334.334 0 0 1-.055.152 1.178 1.178 0 0 1-.358-.247c.156-.031.28-.04.35-.009.023.034.044.069.063.104Z"/>
    <path fill="url(#aS)"
          d="M38.225 28.132c-.07-.03-.195-.022-.351.01a2.397 2.397 0 0 1-.442-.597c.022.01.043.017.064.024.316.097.56.305.729.563Z"/>
    <path fill="url(#aT)"
          d="M38.323 29.723a.887.887 0 0 1-.268.279c-.891.584-2.571 1.094-3.932 1.44 1.343-.481 3.19-1.18 4.2-1.719Z"/>
    <path fill="url(#aU)"
          d="M37.874 28.141c.12.115.242.2.358.247-.14.215-.709.526-1.455.862-.02-.205.09-.554.16-.839.325-.1.674-.217.937-.27Z"/>
    <path fill="url(#aV)"
          d="M37.735 36.18V37.6a1.7 1.7 0 0 0-.284.522 3.813 3.813 0 0 0-.907-.414 1.75 1.75 0 0 0 .064-.23c.129-.611.558-1.062 1.127-1.3Z"/>
    <path fill="url(#aW)"
          d="M37.432 27.545c.129.24.283.445.442.596-.263.053-.612.17-.937.27.058-.241.086-.437-.023-.463-.067-.016-.71.732-.442-.221.147-.518.124-.881.053-1.263.227.537.592.948.907 1.08Z"/>
    <path fill="url(#aX)" d="M36.787 21.46c.101 1.433-.48 2.38-1.268 2.937-.094-1.122.453-2.173 1.268-2.936Z"/>
    <path fill="url(#aY)"
          d="M36.937 28.411c-.069.285-.18.634-.16.84-1.523.687-3.79 1.482-4.683 1.788-.873-1.73-2.101-4.335-2.333-5.713-.156-.933 1.38-1.918 2.443-.7.497.574 2.137.607 3.315-.229l.007.07c.108 1.022.43 1.45.156 2.42-.27.953.374.206.443.222.279.066-.35 1.272-.063 1.455.113.072.475-.028.875-.153Z"/>
    <path fill="url(#aZ)"
          d="M36.308 19.506c.29.733.439 1.383.48 1.955-.816.763-1.363 1.814-1.269 2.936-1.178.836-2.818.803-3.315.23-1.063-1.218-2.6-.234-2.443.7.232 1.377 1.46 3.982 2.333 5.712l-.286.098-.154-.25-.001-.002c-.85-1.642-2.418-4.823-2.683-6.398-.114-.681.675-1.39 1.523-1.248.14.094.302.152.478.175.153.09.301.212.442.373.962 1.109 6.2.197 4.104-5.121a4.264 4.264 0 0 0-.6-1.037c.629.56 1.122 1.192 1.391 1.877Z"/>
    <path fill="url(#ba)" d="M36.316 25.305c.05.478.148.826.21 1.16a2.668 2.668 0 0 1-.214-1.204l.004.044Z"/>
    <path fill="url(#bb)"
          d="M35.517 18.666c2.096 5.318-3.142 6.23-4.104 5.121a1.79 1.79 0 0 0-.442-.373c1.317.178 3.384-1.535 2.11-4.02a3.725 3.725 0 0 0-1.055-1.287c-1.504-2.206-4.482-1.759-4.886.012-.022.1-.051.192-.086.276l-.11-.224a27.524 27.524 0 0 1-.608-1.91c.876-2.02 5.933-.987 8.581 1.369.254.328.458.675.6 1.036Z"/>
    <path fill="#FFC20E"
          d="M34.789 37.497a3.943 3.943 0 0 0-.367.037 35.1 35.1 0 0 1-.93-2.013v-1.043c.41 1 .885 2.125 1.297 3.02Z"/>
    <path fill="url(#bc)"
          d="M33.947 3.05c.816 1.454.623 1.815.17 2.99-.15.393-.188.734-.142 1.013-.659-.138-1.046-.81-.647-1.853.451-1.175.645-1.536-.17-2.99l-.026-.044c.316.203.595.49.815.883Z"/>
    <path fill="#FFC20E" d="M33.22 33.812h-.447c-.126-.304-.246-.599-.357-.874l.403-.128c.112.282.248.625.401 1.002Z"/>
    <path fill="url(#bd)"
          d="M34.917 17.63c-2.648-2.356-7.705-3.389-8.581-1.369a55.88 55.88 0 0 1-.374-1.384c1.704-1.394 6.92.11 8.955 2.752Z"/>
    <path fill="url(#be)"
          d="M33.082 19.393c1.273 2.485-.794 4.2-2.11 4.02a1.4 1.4 0 0 0-.479-.175.458.458 0 0 1-.023-.015c-1.091-.784-2.971-.26-2.446 1.125.532 1.397 2.389 4.515 3.629 6.537l.002.002.132.256-.074.025s.097.251.258.66c-.486-.77-3.975-6.315-4.738-8.32-.525-1.385 1.356-1.908 2.446-1.124 1.168.837 4.065-.994 2.612-3.83-.082-.16-.17-.31-.265-.448.406.31.772.733 1.056 1.287Z"/>
    <path fill="url(#bf)" d="m32.971 32.725.018.031-.17.054a62.08 62.08 0 0 1-.056-.142l.056.087.153-.03Z"/>
    <path fill="url(#bg)"
          d="m32.971 32.725-.153.03-.055-.087c-.163-.41-.26-.66-.26-.66l.074-.026c.203.388.347.656.394.743Z"/>
    <path fill="url(#bh)"
          d="m32.763 32.668.056.142-.403.128c-.147-.363-.279-.693-.387-.967l.169-.054-.017-.031.081-.016.5.798Z"/>
    <path fill="url(#bi)" d="M34.123 31.443c-.75.27-1.344.471-1.546.54l-.083-.162c.383-.08.968-.21 1.63-.378Z"/>
    <path fill="url(#bj)"
          d="m32.494 31.822.084.16-.075.025s.097.252.26.66c-.085-.133-.262-.414-.5-.797a29.9 29.9 0 0 0 .231-.049Z"/>
    <path fill="url(#bk)"
          d="M32.291 18.554c1.453 2.836-1.444 4.667-2.612 3.83-1.09-.784-2.971-.261-2.446 1.125.763 2.004 4.252 7.549 4.738 8.318v.001c.02.046.038.093.058.143-.967.307-5.822 1.85-7.663 2.44-1.205.386-1.503 1.588-.215 2.288.112.349.432.69 1.001.944.358.158.644.28.882.419.048.093.095.196.14.31-.99-.6-2.314-.903-3.945-.903-1.16 0-2.137.13-2.948.393-.04-.269-.271-.524-.87-.718-.292-.094-1.252.22-2.364.66H11.13c-.64-1.497-1.326-3.185-1.524-3.974-.231-.912.693-1.723 1.777-1.047 1.67 1.042 4.334-1.033 3.366-3.936-.263-.79-.685-1.326-1.171-1.661-1.296-2.067-4.052-1.345-4.257-.071-.155.967-1.11 1.734-1.861 1.553-.985-2.342-2.57-9.17-2.57-9.17s3.726-2.486 5.692-2.879a.976.976 0 0 1 .59.078c.163.381.19.823-.017 1.213-.287.538.014 1.976 1.076 2.672.596 1.003 1.898 1.789 4.082.71 2.653-1.309 1.561-3.457.633-3.926-.258-.495-.674-.853-1.016-.921a.924.924 0 0 1-.069-.016c-.136-.525.047-1.19.792-1.717 1.084-.77 3.849-1.426 5.977-1.842.628 1.583 1.9 4.722 2.524 5.745.145.238.356.399.587.475.074.14.142.262.205.364.378.623 1.206.716 1.683.147.105.167.097.134.02-.024.125-.157.225-.363.282-.618.341-1.496 2.52-2.048 4.095-.853.095.139.183.288.265.448Z"/>
    <path fill="url(#bl)" d="m32.494 31.822-.232.048-.454-.733.286-.098c.145.288.28.552.4.782Z"/>
    <path fill="url(#bm)" d="m32.262 31.87-.081.016a66.17 66.17 0 0 1-.394-.743l.02-.006.455.733Z"/>
    <path fill="url(#bn)" d="m32.18 31.886.018.031-.17.054-.056-.143.056.088.153-.03Z"/>
    <path fill="url(#bo)"
          d="M32.029 31.971c.108.274.24.604.387.967l-2.746.874h-3.006l.005.955-1.512.483c-.794.255-1.194.864-1.006 1.45-1.287-.701-.99-1.903.215-2.289 1.841-.59 6.696-2.133 7.663-2.44Z"/>
    <path fill="url(#bp)" d="m32.18 31.886-.152.03-.056-.088-.26-.66.075-.025c.203.388.346.655.394.743Z"/>
    <path fill="url(#bq)" d="m31.808 31.137-.021.006a59.75 59.75 0 0 1-.133-.256l.154.25Z"/>
    <path fill="#C1272D"
          d="M33.132 2.166c-1.025-.658-2.442-.417-3.526.081-1.483.684-2.762 2.202-2.604 3.848.044.45.144.876.325 1.237-.719-.384-1.029-1.184-1.116-2.077-.158-1.646 1.122-3.164 2.604-3.847 1.406-.646 3.371-.86 4.317.758Z"/>
    <path fill="url(#br)"
          d="M31.653 30.885c-1.24-2.022-3.097-5.14-3.628-6.537-.526-1.385 1.354-1.909 2.445-1.125l.023.015c-.848-.142-1.637.568-1.523 1.249.265 1.575 1.834 4.756 2.683 6.398Z"/>
    <path fill="url(#bs)" d="M30.493 23.238c.16.027.32.084.478.176a1.106 1.106 0 0 1-.478-.176Z"/>
    <path fill="url(#bt)"
          d="M32.026 18.106c-1.574-1.195-3.753-.643-4.095.853-.057.256-.157.46-.282.618-.107-.22-.345-.679-.595-1.182.035-.084.064-.176.086-.276.404-1.771 3.383-2.218 4.886-.013Z"/>
    <path fill="#C1272D"
          d="M29.132 8.456c.56.131 1.116.412.578 1.457-.253.495-3.1 1.595-4.987 2.278-.09-.394-.142-.634-.142-.634s-.987.142-2.312.391l-.004-.01s6.272-2.118 6.655-2.864a1.84 1.84 0 0 0 .212-.618Z"/>
    <path fill="url(#bu)"
          d="M27.833 7.516c.488.107 1.39.156 1.299.94-.181-.043-.363-.07-.508-.101-.634-.139-1.045-.517-1.297-1.023.15.08.318.143.506.184Z"/>
    <path fill="#6D9D31" d="M27.649 19.577c.077.158.085.191-.02.024l.02-.024Z"/>
    <path fill="url(#bv)"
          d="m27.649 19.577-.02.024c-.04-.063-.095-.155-.17-.279a6.153 6.153 0 0 1-.418-.895c.005-.01.01-.021.013-.032.25.503.488.963.595 1.182Z"/>
    <path fill="url(#bw)"
          d="m27.459 19.322.17.28c-.477.568-1.306.475-1.684-.148a6.583 6.583 0 0 1-.204-.364c.374.122.803.023 1.097-.329.106.168.097.135.02-.023.07-.089.132-.192.183-.311.141.361.282.67.418.895Z"/>
    <path fill="url(#bx)" d="M27.054 18.395a.46.46 0 0 1-.013.032 16.096 16.096 0 0 1-.097-.256l.11.224Z"/>
    <path fill="url(#by)"
          d="M26.944 18.171c.032.088.065.174.097.256-.05.119-.113.223-.183.31-.123-.251-.418-.82-.704-1.406a27.038 27.038 0 0 1-.61-1.909c.095-.216.236-.397.418-.546.114.446.24.918.374 1.385-.026.06-.052.12-.071.184-.05.177.307.966.679 1.726Z"/>
    <path fill="url(#bz)" d="M26.858 18.738c.078.158.086.191-.02.023a.391.391 0 0 0 .02-.023Z"/>
    <path fill="url(#bA)"
          d="M26.858 18.738a.389.389 0 0 1-.02.023c-.04-.063-.096-.154-.17-.278-.166-.277-.34-.68-.514-1.152.286.587.581 1.155.704 1.407Z"/>
    <path fill="url(#bB)"
          d="M26.684 38.66v.07a4.382 4.382 0 0 0-.51-.36 3.596 3.596 0 0 0-.14-.308c.266.153.472.328.65.598Z"/>
    <path fill="url(#bC)"
          d="M26.668 18.483c.075.124.13.215.17.278a1.003 1.003 0 0 1-1.097.329c-.905-1.722-2.588-6.061-2.68-6.302a66.941 66.941 0 0 1 1.73-.302c.176.75.446 1.855.754 2.936-.026.06-.052.119-.07.183-.05.177.307.967.679 1.726.173.472.348.875.514 1.152Z"/>
    <path fill="url(#bD)"
          d="M26.336 16.261c.192.677.4 1.344.608 1.91-.371-.76-.728-1.55-.679-1.726.019-.065.045-.125.07-.184Z"/>
    <path fill="url(#bE)"
          d="M25.545 15.422c.192.677.4 1.344.608 1.909-.371-.759-.727-1.549-.678-1.726.018-.064.044-.124.07-.183Z"/>
    <path fill="#6D9D31"
          d="M24.362 36.804c.865.383 1.31.55 1.672 1.258-.238-.139-.524-.26-.882-.42-.57-.253-.89-.594-1.001-.943.066.037.137.072.21.105Z"/>
    <path fill="url(#bF)"
          d="M25.37 12.397s.242 1.117.592 2.48c-.181.148-.323.329-.417.545a65.104 65.104 0 0 1-.754-2.936c.365-.058.58-.09.58-.09Z"/>
    <path fill="url(#bG)"
          d="M25.741 19.09a1.086 1.086 0 0 1-.587-.475c-.623-1.023-1.896-4.162-2.524-5.745l.43-.082c.093.24 1.776 4.58 2.681 6.302Z"/>
    <path fill="url(#bH)"
          d="M24.723 12.191c.02.09.044.19.069.295-.416.067-1.025.17-1.732.302l-.004-.01s.71-.24 1.667-.587Z"/>
    <path fill="#C1272D"
          d="M24.58 11.557s.053.24.143.634c-.957.347-1.667.587-1.667.587l.004.01-.43.082c-.202-.51-.337-.86-.361-.921 1.326-.25 2.312-.392 2.312-.392Z"/>
    <path fill="#6D9D31"
          d="M22.269 11.948c.024.063.16.412.362.922-2.129.416-4.895 1.072-5.978 1.841-.745.529-.928 1.193-.791 1.718-.867-.237-1.33-1.613 0-2.557 1.158-.822 4.237-1.515 6.407-1.924Z"/>
    <path fill="url(#bI)"
          d="M19.28 37.862c-.106.035-.21.071-.31.11a2.025 2.025 0 0 0-.217.034l.043-.202h-2.75c1.113-.44 2.073-.754 2.365-.66.599.194.83.449.87.718Z"/>
    <path fill="#469E46" d="M18.97 37.973a5.23 5.23 0 0 0-.23.095l.013-.062c.08-.016.153-.027.217-.033Z"/>
    <path fill="#6D9D31"
          d="M16.946 17.366c.928.469 2.02 2.617-.633 3.927-2.184 1.078-3.486.292-4.082-.71.725.474 1.804.605 3.292-.13 1.834-.905 1.878-2.212 1.423-3.087Z"/>
    <path fill="url(#bJ)"
          d="M16.946 17.366a.89.89 0 0 0-.226-.081c-.412-.083-.745-.421-.858-.856a.924.924 0 0 0 .068.016c.342.068.759.426 1.016.92Z"/>
    <path fill="#6D9D31"
          d="M14.749 28.847c.968 2.903-1.696 4.978-3.366 3.936-1.084-.676-2.008.135-1.777 1.047.198.79.885 2.477 1.524 3.974h-.429c-.717-1.649-1.649-3.872-1.885-4.814-.232-.912.694-1.722 1.777-1.046 1.67 1.042 4.332-1.034 3.366-3.937a3.807 3.807 0 0 0-.381-.821c.486.335.908.871 1.17 1.66Z"/>
    <path fill="url(#bK)"
          d="M13.578 27.186c-1.39-.96-3.297-.284-3.467.768-.212 1.327-1.935 2.278-2.561.92a6.57 6.57 0 0 1-.09-.206c.75.18 1.706-.586 1.86-1.553.206-1.274 2.962-1.996 4.258.071Z"/>
    <path fill="url(#bL)"
          d="M11.171 16.697c.678.303 1.184 1.28.774 2.053-.195.366-.118 1.15.287 1.832-1.063-.696-1.363-2.134-1.077-2.672.207-.39.18-.832.016-1.213Z"/>
    <path fill="#6D9D31"
          d="M11.171 16.697a.977.977 0 0 0-.59-.078c-1.965.393-5.69 2.88-5.69 2.88s1.584 6.827 2.569 9.17c-.28-.067-.53-.265-.701-.634-.974-2.117-2.659-9.376-2.659-9.376s3.726-2.486 5.693-2.879c.552-.109 1.127.333 1.378.917Z"/>
    <path fill="currentColor"
          d="M114.657 47.569v.377c0 2.265-1.093 3.397-3.279 3.397-.992 0-1.773-.281-2.344-.844-.571-.562-.856-1.332-.856-2.309v-5.25c0-2.316 1.13-3.474 3.39-3.474.963 0 1.718.28 2.267.84.548.56.822 1.322.822 2.285v3.169h-4.636v.099c0 .111-.009.347-.028.71-.018.36-.028.59-.028.685 0 1.764.517 2.646 1.553 2.646.577 0 .975-.267 1.197-.8.126-.303.211-.813.256-1.531h1.686Zm-1.686-3.252v-.977c0-1.658-.481-2.486-1.442-2.486s-1.508.832-1.508 2.497v.966h2.95ZM104.843 45.371a84.66 84.66 0 0 1-.018-1.094c0-2.266-.471-3.407-1.414-3.423h.022c.956 0 1.434 1.141 1.434 3.423 0 .163.006.528.018 1.094.011.567.016.932.016 1.095 0 2.29-.538 3.434-1.614 3.434h-.02c1.062-.015 1.593-1.159 1.593-3.434 0-.163-.006-.528-.017-1.094Z"/>
    <path fill="currentColor"
          d="M103.391 40.854c-.77 0-1.271.36-1.502 1.078-.12.356-.184 1.026-.19 2.011l-.035 3.213c0 1.83.527 2.744 1.581 2.744H103.287c1.076 0 1.614-1.144 1.614-3.434 0-.163-.005-.528-.016-1.095a68.862 68.862 0 0 1-.018-1.094c0-2.282-.478-3.423-1.434-3.423H103.391Zm3.245-5.905v16.139h-1.776v-1.022c-.842.851-1.62 1.277-2.335 1.277-1.118 0-1.889-.555-2.313-1.665-.26-.71-.391-1.735-.391-3.075v-2.242c0-1.472.15-2.56.447-3.263.456-1.065 1.33-1.598 2.621-1.598.545 0 1.168.34 1.87 1.021v-5.572h1.877ZM98.503 48.59h-1.989v2.542h1.989V48.59ZM95.643 38.812v3.13h-.794c-1.013 0-1.692.164-2.038.494-.347.329-.52.941-.52 1.837v6.881h-3.664V39.09h3.664v1.787c.171-.6.589-1.095 1.251-1.487a4.006 4.006 0 0 1 2.1-.577ZM87.03 47.158v.333c0 1.384-.365 2.401-1.096 3.053-.73.65-1.88.976-3.452.976-2.063 0-3.43-.51-4.1-1.531-.513-.777-.77-2.239-.77-4.384 0-1.865.037-3.06.11-3.586.172-1.183.618-2.029 1.34-2.536.721-.507 1.822-.76 3.303-.76 3.005 0 4.508 1.202 4.508 3.607v3.574h-5.541v1.776c0 .918.365 1.376 1.095 1.376s1.14-.495 1.14-1.487c0-.14-.012-.277-.034-.41h3.496Zm-3.553-3.507.022-1.288c0-.895-.346-1.343-1.039-1.343-.775 0-1.162.507-1.162 1.52v1.111h2.179ZM76.874 48.79v2.342h-2.111c-1.17 0-1.98-.215-2.43-.644-.451-.429-.676-1.199-.676-2.308v-6.916h-1.631v-2.23h1.63v-3.93h3.598v3.93h1.62v2.23h-1.62v6.527c0 .43.176.714.529.855.188.074.55.122 1.091.144ZM69.858 42.352v.278h-3.475v-.389c0-.303-.098-.558-.295-.766a.997.997 0 0 0-.754-.31.85.85 0 0 0-.676.305c-.175.203-.263.45-.263.738 0 .459.48.914 1.441 1.365 1.55.725 2.45 1.18 2.704 1.365.96.681 1.441 1.543 1.441 2.587 0 2.649-1.55 3.973-4.647 3.973-1.386 0-2.477-.26-3.274-.782-.797-.522-1.217-1.264-1.262-2.226l-.045-1.043h3.508v.53c0 .704.361 1.057 1.084 1.057.588 0 .882-.295.882-.887 0-.524-.462-1.016-1.385-1.474-1.415-.71-2.268-1.18-2.558-1.408-.924-.747-1.386-1.726-1.386-2.938 0-2.388 1.583-3.582 4.748-3.582 1.266 0 2.268.277 3.006.832.804.615 1.206 1.54 1.206 2.776ZM55.969 41.52c.17.459.256.714.256.766v5.183c0 .992-.353 1.487-1.06 1.487h-.022c.694-.01 1.04-.505 1.04-1.487v-5.183c0-.052-.085-.307-.256-.766-.298-.201-.574-.305-.829-.31h.021c.261 0 .544.104.85.31Z"/>
    <path fill="currentColor"
          d="M55.078 41.21c-.276 0-.516.121-.72.365a1.247 1.247 0 0 0-.308.822v5.283c0 .85.357 1.276 1.072 1.276h.042c.708 0 1.061-.495 1.061-1.487v-5.183c0-.052-.085-.307-.257-.766-.305-.207-.588-.31-.849-.31h-.041Zm4.692 1.53v5.273c0 1.095-.408 1.953-1.224 2.575-.815.621-1.923.932-3.323.932-1.505 0-2.674-.316-3.508-.949-.834-.632-1.251-1.53-1.251-2.691v-5.294c0-2.539 1.583-3.808 4.748-3.808 1.579 0 2.733.32 3.463.96.73.64 1.095 1.641 1.095 3.003ZM49 41.908v9.268h-3.586V42.72c0-.326-.105-.638-.317-.938-.211-.3-.442-.45-.694-.45-.749 0-1.123.448-1.123 1.343v8.502h-3.597V35.06h3.53v5.05c.738-.925 1.635-1.387 2.693-1.387 2.063 0 3.094 1.062 3.094 3.185ZM34.544 42.586c0-.888-.384-1.335-1.152-1.343h.02c.783 0 1.174.447 1.174 1.343v5.017c0 .97-.38 1.454-1.14 1.454h-.02c.745-.009 1.118-.494 1.118-1.454v-5.017Z"/>
    <path fill="currentColor"
          d="M33.371 41.242c-.745 0-1.117.492-1.117 1.477v4.983c0 .903.383 1.354 1.15 1.354h.042c.76 0 1.14-.484 1.14-1.454v-5.016c0-.896-.391-1.344-1.173-1.344H33.37Zm4.736 1.077v5.66c0 1.059-.265 1.906-.798 2.543-.533.636-1.253.954-2.162.954s-1.858-.426-2.893-1.276v.932h-3.631v-16.05h3.63v4.906c1-.829 1.926-1.243 2.778-1.243 2.051 0 3.077 1.191 3.077 3.574ZM27.193 47.158v.333c0 1.384-.365 2.401-1.095 3.053-.73.65-1.88.976-3.452.976-2.063 0-3.43-.51-4.1-1.531-.514-.777-.771-2.239-.771-4.384 0-1.865.038-3.06.111-3.586.172-1.183.618-2.029 1.34-2.536.72-.507 1.822-.76 3.303-.76 3.005 0 4.508 1.202 4.508 3.607v3.574h-5.542v1.776c0 .918.365 1.376 1.095 1.376s1.14-.495 1.14-1.487c0-.14-.012-.277-.034-.41h3.497Zm-3.553-3.507.023-1.288c0-.895-.347-1.343-1.04-1.343-.774 0-1.161.507-1.161 1.52v1.111h2.178ZM17.272 39.056l-2.558 12.076H10.96l-1.81-8.436-1.899 8.436h-3.72L.961 39.056h3.71l.938 9.068c.149-1.114.395-2.624.737-4.529.387-2.177.644-3.69.77-4.54h4.045l1.52 8.825.96-8.824h3.631ZM114.965 54.373v.65h-1.127c-.027 1.21-.039 2.93-.039 5.162h-.726v-5.163h-1.106v-.649h2.998ZM109.492 54.349v.65h-1.876v1.73h1.617v.645h-1.617v2.795h-.75v-5.82h2.626ZM102.781 54.357l1.239 5.828h-.75l-.229-1.11h-1.322l-.201 1.11h-.754l1.307-5.828h.71Zm.164 4.084-.539-3-.561 3h1.1ZM98.088 54.373v5.828h-.71v-2.742H95.99V60.2h-.75v-5.827h.75v2.453h1.388v-2.453h.71ZM92.184 58.148v.53c0 .529-.085.915-.254 1.158-.204.294-.562.441-1.073.441-.597 0-1.01-.215-1.24-.645-.16-.313-.241-.795-.241-1.447l.006-.453.006-.449c0-.794.021-1.354.065-1.679.056-.444.175-.762.355-.955.226-.242.568-.364 1.029-.364.6 0 .983.19 1.15.569.08.184.134.635.16 1.35h-.673c.005-.053.008-.117.008-.192 0-.334-.024-.574-.073-.721-.083-.268-.255-.401-.516-.401-.298 0-.5.106-.605.317-.113.224-.17.79-.17 1.7 0 .726.011 1.327.032 1.803.014.302.061.522.142.66.108.193.299.29.573.29.43 0 .645-.387.645-1.159v-.376c.175-.008.275-.013.299-.013.127 0 .251.013.375.036ZM86.38 56.02v.044h-.673l.009-.379c0-.53-.209-.795-.626-.795-.395 0-.593.223-.593.669 0 .329.173.672.52 1.033.218.214.538.539.96.973.345.382.517.79.517 1.222 0 .99-.497 1.486-1.492 1.486-.929 0-1.392-.557-1.392-1.672 0-.16.002-.308.008-.444h.693v.462c0 .332.042.572.126.719.113.2.323.302.627.302.475 0 .712-.254.712-.763 0-.307-.172-.637-.516-.99a44.457 44.457 0 0 1-.957-.967c-.344-.383-.516-.806-.516-1.272 0-.928.442-1.391 1.328-1.391.564 0 .933.168 1.104.505.109.213.162.633.162 1.258ZM81.01 59.551v.65h-2.477v-5.828h.734v5.178h1.742ZM75.707 59.551v.65H73.23v-5.828h.734v5.178h1.743ZM70.26 59.511v.658H67.58v-5.82h2.626v.673h-1.86v1.692h1.614v.657h-1.63v2.14h1.929ZM64.508 56.02v.044h-.673l.008-.379c0-.53-.208-.795-.625-.795-.395 0-.593.223-.593.669 0 .329.173.672.52 1.033.218.214.538.539.96.973.345.382.517.79.517 1.222 0 .99-.497 1.486-1.492 1.486-.929 0-1.393-.557-1.393-1.672 0-.16.003-.308.008-.444h.694v.462c0 .332.042.572.126.719.113.2.322.302.627.302.474 0 .712-.254.712-.763 0-.307-.172-.637-.516-.99a43.766 43.766 0 0 1-.957-.967c-.344-.383-.516-.806-.516-1.272 0-.928.442-1.391 1.328-1.391.564 0 .933.168 1.104.505.108.213.162.633.162 1.258ZM58.992 59.511v.658h-2.678v-5.82h2.626v.673h-1.86v1.692h1.613v.657h-1.63v2.14h1.93ZM53.153 57.163V60.2h-.593v-.42c-.307.322-.663.484-1.069.484-.508 0-.858-.222-1.049-.666-.126-.293-.19-.735-.19-1.322 0-.644.013-1.35.037-2.116.02-.668.105-1.127.258-1.375.213-.35.626-.525 1.243-.525.543 0 .909.127 1.097.381.156.21.234.594.234 1.15v.312h-.686v-.425c0-.307-.055-.52-.165-.64-.11-.12-.299-.181-.57-.181-.371 0-.591.249-.66.746a7.753 7.753 0 0 0-.057 1.053c0 1.055.01 1.754.032 2.093.038.62.258.93.661.93.34 0 .574-.135.703-.405.088-.184.132-.465.132-.842 0-.048-.003-.265-.011-.653h-.876v-.617h1.529ZM47.173 54.373v5.848h-1.066a397.052 397.052 0 0 1-1.109-5.01l.049 4.982h-.69v-5.82h1.05l1.132 5.074-.06-5.074h.694ZM41.414 59.511v.658h-2.679v-5.82h2.627v.673h-1.86v1.692h1.614v.657h-1.63v2.14h1.928ZM35.567 54.333V60.2h-.718v-5.844l.323.012c.129 0 .26-.012.395-.036ZM31.906 54.373v.65h-1.125c-.028 1.21-.041 2.93-.041 5.162h-.726v-5.163h-1.106v-.649h2.998ZM26.543 54.373l-1.384 2.184c.145.462.365 1.07.658 1.82.347.9.574 1.506.681 1.816h-.78c-.442-1.32-.795-2.31-1.06-2.97l-.463.714v2.256h-.73v-5.82h.73v2.553l1.52-2.553h.828ZM19.392 54.357l1.24 5.828h-.751l-.228-1.11h-1.322l-.202 1.11h-.754l1.308-5.828h.71Zm.164 4.084-.539-3-.56 3h1.099Z"/>
    <defs>
      <linearGradient id="a" x1="42.331" x2="64.219" y1="52.252" y2="30.365" gradientUnits="userSpaceOnUse">
        <stop stop-color="#FFF200"/>
        <stop offset="1" stop-color="#FFC20E"/>
      </linearGradient>
      <linearGradient id="b" x1="34.867" x2="56.755" y1="44.789" y2="22.901" gradientUnits="userSpaceOnUse">
        <stop stop-color="#FFF200"/>
        <stop offset="1" stop-color="#FFC20E"/>
      </linearGradient>
      <linearGradient id="c" x1="33.823" x2="56.003" y1="-2.405" y2="19.776" gradientUnits="userSpaceOnUse">
        <stop stop-color="#ED1C24"/>
        <stop offset="1" stop-color="#C1272D"/>
      </linearGradient>
      <linearGradient id="d" x1="35.29" x2="57.178" y1="45.212" y2="23.323" gradientUnits="userSpaceOnUse">
        <stop stop-color="#FFF200"/>
        <stop offset="1" stop-color="#FFC20E"/>
      </linearGradient>
      <linearGradient id="e" x1="29.576" x2="51.757" y1="1.841" y2="24.022" gradientUnits="userSpaceOnUse">
        <stop stop-color="#ED1C24"/>
        <stop offset="1" stop-color="#C1272D"/>
      </linearGradient>
      <linearGradient id="f" x1="29.845" x2="52.026" y1="1.572" y2="23.753" gradientUnits="userSpaceOnUse">
        <stop stop-color="#ED1C24"/>
        <stop offset="1" stop-color="#C1272D"/>
      </linearGradient>
      <linearGradient id="g" x1="26.542" x2="48.722" y1="4.876" y2="27.057" gradientUnits="userSpaceOnUse">
        <stop stop-color="#ED1C24"/>
        <stop offset="1" stop-color="#C1272D"/>
      </linearGradient>
      <linearGradient id="h" x1="27.054" x2="49.235" y1="4.363" y2="26.544" gradientUnits="userSpaceOnUse">
        <stop stop-color="#ED1C24"/>
        <stop offset="1" stop-color="#C1272D"/>
      </linearGradient>
      <linearGradient id="i" x1="27.021" x2="49.202" y1="4.396" y2="26.577" gradientUnits="userSpaceOnUse">
        <stop stop-color="#ED1C24"/>
        <stop offset="1" stop-color="#C1272D"/>
      </linearGradient>
      <linearGradient id="j" x1="34.122" x2="56.302" y1="-2.704" y2="19.476" gradientUnits="userSpaceOnUse">
        <stop stop-color="#ED1C24"/>
        <stop offset="1" stop-color="#C1272D"/>
      </linearGradient>
      <linearGradient id="k" x1="23.794" x2="45.973" y1="7.625" y2="29.805" gradientUnits="userSpaceOnUse">
        <stop stop-color="#ED1C24"/>
        <stop offset="1" stop-color="#C1272D"/>
      </linearGradient>
      <linearGradient id="l" x1="25.103" x2="47.283" y1="6.315" y2="28.495" gradientUnits="userSpaceOnUse">
        <stop stop-color="#ED1C24"/>
        <stop offset="1" stop-color="#C1272D"/>
      </linearGradient>
      <linearGradient id="m" x1="28.989" x2="50.877" y1="38.91" y2="17.023" gradientUnits="userSpaceOnUse">
        <stop stop-color="#FFF200"/>
        <stop offset="1" stop-color="#FFC20E"/>
      </linearGradient>
      <linearGradient id="n" x1="28.806" x2="50.694" y1="38.727" y2="16.839" gradientUnits="userSpaceOnUse">
        <stop stop-color="#FFF200"/>
        <stop offset="1" stop-color="#FFC20E"/>
      </linearGradient>
      <linearGradient id="o" x1="23.696" x2="45.877" y1="7.722" y2="29.902" gradientUnits="userSpaceOnUse">
        <stop stop-color="#ED1C24"/>
        <stop offset="1" stop-color="#C1272D"/>
      </linearGradient>
      <linearGradient id="p" x1="22.838" x2="45.018" y1="8.58" y2="30.761" gradientUnits="userSpaceOnUse">
        <stop stop-color="#ED1C24"/>
        <stop offset="1" stop-color="#C1272D"/>
      </linearGradient>
      <linearGradient id="q" x1="22.733" x2="44.912" y1="8.686" y2="30.865" gradientUnits="userSpaceOnUse">
        <stop stop-color="#ED1C24"/>
        <stop offset="1" stop-color="#C1272D"/>
      </linearGradient>
      <linearGradient id="r" x1="18.272" x2="40.451" y1="13.147" y2="35.327" gradientUnits="userSpaceOnUse">
        <stop stop-color="#ED1C24"/>
        <stop offset="1" stop-color="#C1272D"/>
      </linearGradient>
      <linearGradient id="s" x1="20.369" x2="42.55" y1="11.047" y2="33.229" gradientUnits="userSpaceOnUse">
        <stop stop-color="#ED1C24"/>
        <stop offset="1" stop-color="#C1272D"/>
      </linearGradient>
      <linearGradient id="t" x1="20.601" x2="42.781" y1="10.817" y2="32.997" gradientUnits="userSpaceOnUse">
        <stop stop-color="#ED1C24"/>
        <stop offset="1" stop-color="#C1272D"/>
      </linearGradient>
      <linearGradient id="u" x1="18.247" x2="40.426" y1="13.172" y2="35.351" gradientUnits="userSpaceOnUse">
        <stop stop-color="#ED1C24"/>
        <stop offset="1" stop-color="#C1272D"/>
      </linearGradient>
      <linearGradient id="v" x1="20.056" x2="42.235" y1="11.364" y2="33.543" gradientUnits="userSpaceOnUse">
        <stop stop-color="#ED1C24"/>
        <stop offset="1" stop-color="#C1272D"/>
      </linearGradient>
      <linearGradient id="w" x1="28.375" x2="50.266" y1="38.299" y2="16.409" gradientUnits="userSpaceOnUse">
        <stop stop-color="#FFF200"/>
        <stop offset="1" stop-color="#FFC20E"/>
      </linearGradient>
      <linearGradient id="x" x1="28.263" x2="50.143" y1="38.177" y2="16.297" gradientUnits="userSpaceOnUse">
        <stop stop-color="#FFF200"/>
        <stop offset="1" stop-color="#FFC20E"/>
      </linearGradient>
      <linearGradient id="y" x1="28.198" x2="50.086" y1="38.12" y2="16.231" gradientUnits="userSpaceOnUse">
        <stop stop-color="#FFF200"/>
        <stop offset="1" stop-color="#FFC20E"/>
      </linearGradient>
      <linearGradient id="z" x1="27.872" x2="49.761" y1="37.794" y2="15.906" gradientUnits="userSpaceOnUse">
        <stop stop-color="#FFF200"/>
        <stop offset="1" stop-color="#FFC20E"/>
      </linearGradient>
      <linearGradient id="A" x1="18.529" x2="40.709" y1="12.889" y2="35.069" gradientUnits="userSpaceOnUse">
        <stop stop-color="#ED1C24"/>
        <stop offset="1" stop-color="#C1272D"/>
      </linearGradient>
      <linearGradient id="B" x1="20.051" x2="42.232" y1="11.366" y2="33.547" gradientUnits="userSpaceOnUse">
        <stop stop-color="#ED1C24"/>
        <stop offset="1" stop-color="#C1272D"/>
      </linearGradient>
      <linearGradient id="C" x1="32.355" x2="54.243" y1="42.277" y2="20.389" gradientUnits="userSpaceOnUse">
        <stop stop-color="#FFF200"/>
        <stop offset="1" stop-color="#FFC20E"/>
      </linearGradient>
      <linearGradient id="D" x1="20.286" x2="42.465" y1="11.133" y2="33.313" gradientUnits="userSpaceOnUse">
        <stop stop-color="#ED1C24"/>
        <stop offset="1" stop-color="#C1272D"/>
      </linearGradient>
      <linearGradient id="E" x1="22.32" x2="44.502" y1="9.097" y2="31.277" gradientUnits="userSpaceOnUse">
        <stop stop-color="#ED1C24"/>
        <stop offset="1" stop-color="#C1272D"/>
      </linearGradient>
      <linearGradient id="F" x1="18.753" x2="40.933" y1="12.664" y2="34.845" gradientUnits="userSpaceOnUse">
        <stop stop-color="#ED1C24"/>
        <stop offset="1" stop-color="#C1272D"/>
      </linearGradient>
      <linearGradient id="G" x1="20.203" x2="42.383" y1="11.215" y2="33.395" gradientUnits="userSpaceOnUse">
        <stop stop-color="#ED1C24"/>
        <stop offset="1" stop-color="#C1272D"/>
      </linearGradient>
      <linearGradient id="H" x1="20.986" x2="43.167" y1="10.431" y2="32.611" gradientUnits="userSpaceOnUse">
        <stop stop-color="#ED1C24"/>
        <stop offset="1" stop-color="#C1272D"/>
      </linearGradient>
      <linearGradient id="I" x1="21.92" x2="44.101" y1="9.498" y2="31.678" gradientUnits="userSpaceOnUse">
        <stop stop-color="#ED1C24"/>
        <stop offset="1" stop-color="#C1272D"/>
      </linearGradient>
      <linearGradient id="J" x1="30.139" x2="52.319" y1="1.278" y2="23.459" gradientUnits="userSpaceOnUse">
        <stop stop-color="#ED1C24"/>
        <stop offset="1" stop-color="#C1272D"/>
      </linearGradient>
      <linearGradient id="K" x1="22.566" x2="44.746" y1="8.852" y2="31.032" gradientUnits="userSpaceOnUse">
        <stop stop-color="#ED1C24"/>
        <stop offset="1" stop-color="#C1272D"/>
      </linearGradient>
      <linearGradient id="L" x1="15.721" x2="37.985" y1="8.667" y2="30.931" gradientUnits="userSpaceOnUse">
        <stop stop-color="#8DC63F"/>
        <stop offset="1" stop-color="#28903B"/>
      </linearGradient>
      <linearGradient id="M" x1="27.833" x2="49.72" y1="37.754" y2="15.867" gradientUnits="userSpaceOnUse">
        <stop stop-color="#FFF200"/>
        <stop offset="1" stop-color="#FFC20E"/>
      </linearGradient>
      <linearGradient id="N" x1="15.872" x2="38.054" y1="15.544" y2="37.725" gradientUnits="userSpaceOnUse">
        <stop stop-color="#ED1C24"/>
        <stop offset="1" stop-color="#C1272D"/>
      </linearGradient>
      <linearGradient id="O" x1="12.163" x2="34.425" y1="12.228" y2="34.49" gradientUnits="userSpaceOnUse">
        <stop stop-color="#8DC63F"/>
        <stop offset="1" stop-color="#28903B"/>
      </linearGradient>
      <linearGradient id="P" x1="16.528" x2="38.708" y1="14.89" y2="37.07" gradientUnits="userSpaceOnUse">
        <stop stop-color="#ED1C24"/>
        <stop offset="1" stop-color="#C1272D"/>
      </linearGradient>
      <linearGradient id="Q" x1="15.9" x2="38.081" y1="15.516" y2="37.697" gradientUnits="userSpaceOnUse">
        <stop stop-color="#ED1C24"/>
        <stop offset="1" stop-color="#C1272D"/>
      </linearGradient>
      <linearGradient id="R" x1="9.006" x2="31.269" y1="15.383" y2="37.647" gradientUnits="userSpaceOnUse">
        <stop stop-color="#8DC63F"/>
        <stop offset="1" stop-color="#28903B"/>
      </linearGradient>
      <linearGradient id="S" x1="16.07" x2="38.251" y1="15.346" y2="37.528" gradientUnits="userSpaceOnUse">
        <stop stop-color="#ED1C24"/>
        <stop offset="1" stop-color="#C1272D"/>
      </linearGradient>
      <linearGradient id="T" x1="12.436" x2="34.699" y1="11.953" y2="34.216" gradientUnits="userSpaceOnUse">
        <stop stop-color="#8DC63F"/>
        <stop offset="1" stop-color="#28903B"/>
      </linearGradient>
      <linearGradient id="U" x1="12.282" x2="34.547" y1="12.105" y2="34.369" gradientUnits="userSpaceOnUse">
        <stop stop-color="#8DC63F"/>
        <stop offset="1" stop-color="#28903B"/>
      </linearGradient>
      <linearGradient id="V" x1="9.039" x2="31.303" y1="15.349" y2="37.613" gradientUnits="userSpaceOnUse">
        <stop stop-color="#8DC63F"/>
        <stop offset="1" stop-color="#28903B"/>
      </linearGradient>
      <linearGradient id="W" x1="12.384" x2="34.646" y1="12.006" y2="34.269" gradientUnits="userSpaceOnUse">
        <stop stop-color="#8DC63F"/>
        <stop offset="1" stop-color="#28903B"/>
      </linearGradient>
      <linearGradient id="X" x1="12.549" x2="34.81" y1="11.844" y2="34.104" gradientUnits="userSpaceOnUse">
        <stop stop-color="#8DC63F"/>
        <stop offset="1" stop-color="#28903B"/>
      </linearGradient>
      <linearGradient id="Y" x1="17.715" x2="39.893" y1="13.703" y2="35.881" gradientUnits="userSpaceOnUse">
        <stop stop-color="#ED1C24"/>
        <stop offset="1" stop-color="#C1272D"/>
      </linearGradient>
      <linearGradient id="Z" x1="15.9" x2="38.16" y1="8.494" y2="30.754" gradientUnits="userSpaceOnUse">
        <stop stop-color="#8DC63F"/>
        <stop offset="1" stop-color="#28903B"/>
      </linearGradient>
      <linearGradient id="aa" x1="21.23" x2="43.411" y1="10.188" y2="32.368" gradientUnits="userSpaceOnUse">
        <stop stop-color="#ED1C24"/>
        <stop offset="1" stop-color="#C1272D"/>
      </linearGradient>
      <linearGradient id="ab" x1="25.933" x2="48.113" y1="5.485" y2="27.665" gradientUnits="userSpaceOnUse">
        <stop stop-color="#ED1C24"/>
        <stop offset="1" stop-color="#C1272D"/>
      </linearGradient>
      <linearGradient id="ac" x1="19.881" x2="42.061" y1="11.538" y2="33.718" gradientUnits="userSpaceOnUse">
        <stop stop-color="#ED1C24"/>
        <stop offset="1" stop-color="#C1272D"/>
      </linearGradient>
      <linearGradient id="ad" x1="19.474" x2="41.654" y1="11.944" y2="34.125" gradientUnits="userSpaceOnUse">
        <stop stop-color="#ED1C24"/>
        <stop offset="1" stop-color="#C1272D"/>
      </linearGradient>
      <linearGradient id="ae" x1="20.055" x2="42.237" y1="11.362" y2="33.544" gradientUnits="userSpaceOnUse">
        <stop stop-color="#ED1C24"/>
        <stop offset="1" stop-color="#C1272D"/>
      </linearGradient>
      <linearGradient id="af" x1="20.51" x2="42.69" y1="10.908" y2="33.088" gradientUnits="userSpaceOnUse">
        <stop stop-color="#ED1C24"/>
        <stop offset="1" stop-color="#C1272D"/>
      </linearGradient>
      <linearGradient id="ag" x1="19.75" x2="41.928" y1="11.669" y2="33.847" gradientUnits="userSpaceOnUse">
        <stop stop-color="#ED1C24"/>
        <stop offset="1" stop-color="#C1272D"/>
      </linearGradient>
      <linearGradient id="ah" x1="19.934" x2="42.114" y1="11.484" y2="33.665" gradientUnits="userSpaceOnUse">
        <stop stop-color="#ED1C24"/>
        <stop offset="1" stop-color="#C1272D"/>
      </linearGradient>
      <linearGradient id="ai" x1="6.165" x2="28.428" y1="18.225" y2="40.488" gradientUnits="userSpaceOnUse">
        <stop stop-color="#8DC63F"/>
        <stop offset="1" stop-color="#28903B"/>
      </linearGradient>
      <linearGradient id="aj" x1="20.448" x2="42.628" y1="10.97" y2="33.15" gradientUnits="userSpaceOnUse">
        <stop stop-color="#ED1C24"/>
        <stop offset="1" stop-color="#C1272D"/>
      </linearGradient>
      <linearGradient id="ak" x1="20.421" x2="42.601" y1="10.997" y2="33.177" gradientUnits="userSpaceOnUse">
        <stop stop-color="#ED1C24"/>
        <stop offset="1" stop-color="#C1272D"/>
      </linearGradient>
      <linearGradient id="al" x1="20.445" x2="42.625" y1="10.972" y2="33.153" gradientUnits="userSpaceOnUse">
        <stop stop-color="#ED1C24"/>
        <stop offset="1" stop-color="#C1272D"/>
      </linearGradient>
      <linearGradient id="am" x1="21.483" x2="43.663" y1="9.935" y2="32.115" gradientUnits="userSpaceOnUse">
        <stop stop-color="#ED1C24"/>
        <stop offset="1" stop-color="#C1272D"/>
      </linearGradient>
      <linearGradient id="an" x1="16.386" x2="38.649" y1="8.003" y2="30.267" gradientUnits="userSpaceOnUse">
        <stop stop-color="#8DC63F"/>
        <stop offset="1" stop-color="#28903B"/>
      </linearGradient>
      <linearGradient id="ao" x1="21.41" x2="43.59" y1="10.008" y2="32.188" gradientUnits="userSpaceOnUse">
        <stop stop-color="#ED1C24"/>
        <stop offset="1" stop-color="#C1272D"/>
      </linearGradient>
      <linearGradient id="ap" x1="2.151" x2="24.414" y1="22.238" y2="44.502" gradientUnits="userSpaceOnUse">
        <stop stop-color="#8DC63F"/>
        <stop offset="1" stop-color="#28903B"/>
      </linearGradient>
      <linearGradient id="aq" x1="11.924" x2="34.189" y1="12.465" y2="34.729" gradientUnits="userSpaceOnUse">
        <stop stop-color="#8DC63F"/>
        <stop offset="1" stop-color="#28903B"/>
      </linearGradient>
      <linearGradient id="ar" x1="3.458" x2="25.721" y1="20.931" y2="43.194" gradientUnits="userSpaceOnUse">
        <stop stop-color="#8DC63F"/>
        <stop offset="1" stop-color="#28903B"/>
      </linearGradient>
      <linearGradient id="as" x1="8.739" x2="31.003" y1="15.65" y2="37.913" gradientUnits="userSpaceOnUse">
        <stop stop-color="#8DC63F"/>
        <stop offset="1" stop-color="#28903B"/>
      </linearGradient>
      <linearGradient id="at" x1="42.331" x2="64.219" y1="52.252" y2="30.365" gradientUnits="userSpaceOnUse">
        <stop stop-color="#FFF200"/>
        <stop offset="1" stop-color="#FFC20E"/>
      </linearGradient>
      <linearGradient id="au" x1="34.867" x2="56.755" y1="44.789" y2="22.901" gradientUnits="userSpaceOnUse">
        <stop stop-color="#FFF200"/>
        <stop offset="1" stop-color="#FFC20E"/>
      </linearGradient>
      <linearGradient id="av" x1="33.823" x2="56.003" y1="-2.405" y2="19.776" gradientUnits="userSpaceOnUse">
        <stop stop-color="#ED1C24"/>
        <stop offset="1" stop-color="#C1272D"/>
      </linearGradient>
      <linearGradient id="aw" x1="35.29" x2="57.178" y1="45.212" y2="23.323" gradientUnits="userSpaceOnUse">
        <stop stop-color="#FFF200"/>
        <stop offset="1" stop-color="#FFC20E"/>
      </linearGradient>
      <linearGradient id="ax" x1="29.576" x2="51.757" y1="1.841" y2="24.022" gradientUnits="userSpaceOnUse">
        <stop stop-color="#ED1C24"/>
        <stop offset="1" stop-color="#C1272D"/>
      </linearGradient>
      <linearGradient id="ay" x1="29.845" x2="52.026" y1="1.572" y2="23.753" gradientUnits="userSpaceOnUse">
        <stop stop-color="#ED1C24"/>
        <stop offset="1" stop-color="#C1272D"/>
      </linearGradient>
      <linearGradient id="az" x1="26.542" x2="48.722" y1="4.876" y2="27.057" gradientUnits="userSpaceOnUse">
        <stop stop-color="#ED1C24"/>
        <stop offset="1" stop-color="#C1272D"/>
      </linearGradient>
      <linearGradient id="aA" x1="27.054" x2="49.235" y1="4.363" y2="26.544" gradientUnits="userSpaceOnUse">
        <stop stop-color="#ED1C24"/>
        <stop offset="1" stop-color="#C1272D"/>
      </linearGradient>
      <linearGradient id="aB" x1="27.021" x2="49.202" y1="4.396" y2="26.577" gradientUnits="userSpaceOnUse">
        <stop stop-color="#ED1C24"/>
        <stop offset="1" stop-color="#C1272D"/>
      </linearGradient>
      <linearGradient id="aC" x1="34.122" x2="56.302" y1="-2.704" y2="19.476" gradientUnits="userSpaceOnUse">
        <stop stop-color="#ED1C24"/>
        <stop offset="1" stop-color="#C1272D"/>
      </linearGradient>
      <linearGradient id="aD" x1="23.794" x2="45.973" y1="7.625" y2="29.805" gradientUnits="userSpaceOnUse">
        <stop stop-color="#ED1C24"/>
        <stop offset="1" stop-color="#C1272D"/>
      </linearGradient>
      <linearGradient id="aE" x1="25.103" x2="47.283" y1="6.315" y2="28.495" gradientUnits="userSpaceOnUse">
        <stop stop-color="#ED1C24"/>
        <stop offset="1" stop-color="#C1272D"/>
      </linearGradient>
      <linearGradient id="aF" x1="28.989" x2="50.877" y1="38.91" y2="17.023" gradientUnits="userSpaceOnUse">
        <stop stop-color="#FFF200"/>
        <stop offset="1" stop-color="#FFC20E"/>
      </linearGradient>
      <linearGradient id="aG" x1="28.806" x2="50.694" y1="38.727" y2="16.839" gradientUnits="userSpaceOnUse">
        <stop stop-color="#FFF200"/>
        <stop offset="1" stop-color="#FFC20E"/>
      </linearGradient>
      <linearGradient id="aH" x1="23.696" x2="45.877" y1="7.722" y2="29.902" gradientUnits="userSpaceOnUse">
        <stop stop-color="#ED1C24"/>
        <stop offset="1" stop-color="#C1272D"/>
      </linearGradient>
      <linearGradient id="aI" x1="22.838" x2="45.018" y1="8.58" y2="30.761" gradientUnits="userSpaceOnUse">
        <stop stop-color="#ED1C24"/>
        <stop offset="1" stop-color="#C1272D"/>
      </linearGradient>
      <linearGradient id="aJ" x1="22.733" x2="44.912" y1="8.686" y2="30.865" gradientUnits="userSpaceOnUse">
        <stop stop-color="#ED1C24"/>
        <stop offset="1" stop-color="#C1272D"/>
      </linearGradient>
      <linearGradient id="aK" x1="18.272" x2="40.451" y1="13.147" y2="35.327" gradientUnits="userSpaceOnUse">
        <stop stop-color="#ED1C24"/>
        <stop offset="1" stop-color="#C1272D"/>
      </linearGradient>
      <linearGradient id="aL" x1="20.369" x2="42.55" y1="11.047" y2="33.229" gradientUnits="userSpaceOnUse">
        <stop stop-color="#ED1C24"/>
        <stop offset="1" stop-color="#C1272D"/>
      </linearGradient>
      <linearGradient id="aM" x1="20.601" x2="42.781" y1="10.817" y2="32.997" gradientUnits="userSpaceOnUse">
        <stop stop-color="#ED1C24"/>
        <stop offset="1" stop-color="#C1272D"/>
      </linearGradient>
      <linearGradient id="aN" x1="18.247" x2="40.426" y1="13.172" y2="35.351" gradientUnits="userSpaceOnUse">
        <stop stop-color="#ED1C24"/>
        <stop offset="1" stop-color="#C1272D"/>
      </linearGradient>
      <linearGradient id="aO" x1="20.056" x2="42.235" y1="11.364" y2="33.543" gradientUnits="userSpaceOnUse">
        <stop stop-color="#ED1C24"/>
        <stop offset="1" stop-color="#C1272D"/>
      </linearGradient>
      <linearGradient id="aP" x1="28.375" x2="50.266" y1="38.299" y2="16.409" gradientUnits="userSpaceOnUse">
        <stop stop-color="#FFF200"/>
        <stop offset="1" stop-color="#FFC20E"/>
      </linearGradient>
      <linearGradient id="aQ" x1="28.263" x2="50.143" y1="38.177" y2="16.297" gradientUnits="userSpaceOnUse">
        <stop stop-color="#FFF200"/>
        <stop offset="1" stop-color="#FFC20E"/>
      </linearGradient>
      <linearGradient id="aR" x1="28.198" x2="50.086" y1="38.12" y2="16.231" gradientUnits="userSpaceOnUse">
        <stop stop-color="#FFF200"/>
        <stop offset="1" stop-color="#FFC20E"/>
      </linearGradient>
      <linearGradient id="aS" x1="27.872" x2="49.761" y1="37.794" y2="15.906" gradientUnits="userSpaceOnUse">
        <stop stop-color="#FFF200"/>
        <stop offset="1" stop-color="#FFC20E"/>
      </linearGradient>
      <linearGradient id="aT" x1="18.529" x2="40.709" y1="12.889" y2="35.069" gradientUnits="userSpaceOnUse">
        <stop stop-color="#ED1C24"/>
        <stop offset="1" stop-color="#C1272D"/>
      </linearGradient>
      <linearGradient id="aU" x1="20.051" x2="42.232" y1="11.366" y2="33.547" gradientUnits="userSpaceOnUse">
        <stop stop-color="#ED1C24"/>
        <stop offset="1" stop-color="#C1272D"/>
      </linearGradient>
      <linearGradient id="aV" x1="32.355" x2="54.243" y1="42.277" y2="20.389" gradientUnits="userSpaceOnUse">
        <stop stop-color="#FFF200"/>
        <stop offset="1" stop-color="#FFC20E"/>
      </linearGradient>
      <linearGradient id="aW" x1="20.286" x2="42.465" y1="11.133" y2="33.313" gradientUnits="userSpaceOnUse">
        <stop stop-color="#ED1C24"/>
        <stop offset="1" stop-color="#C1272D"/>
      </linearGradient>
      <linearGradient id="aX" x1="22.32" x2="44.502" y1="9.097" y2="31.277" gradientUnits="userSpaceOnUse">
        <stop stop-color="#ED1C24"/>
        <stop offset="1" stop-color="#C1272D"/>
      </linearGradient>
      <linearGradient id="aY" x1="18.753" x2="40.933" y1="12.664" y2="34.845" gradientUnits="userSpaceOnUse">
        <stop stop-color="#ED1C24"/>
        <stop offset="1" stop-color="#C1272D"/>
      </linearGradient>
      <linearGradient id="aZ" x1="20.203" x2="42.383" y1="11.215" y2="33.395" gradientUnits="userSpaceOnUse">
        <stop stop-color="#ED1C24"/>
        <stop offset="1" stop-color="#C1272D"/>
      </linearGradient>
      <linearGradient id="ba" x1="20.986" x2="43.167" y1="10.431" y2="32.611" gradientUnits="userSpaceOnUse">
        <stop stop-color="#ED1C24"/>
        <stop offset="1" stop-color="#C1272D"/>
      </linearGradient>
      <linearGradient id="bb" x1="21.92" x2="44.101" y1="9.498" y2="31.678" gradientUnits="userSpaceOnUse">
        <stop stop-color="#ED1C24"/>
        <stop offset="1" stop-color="#C1272D"/>
      </linearGradient>
      <linearGradient id="bc" x1="30.139" x2="52.319" y1="1.278" y2="23.459" gradientUnits="userSpaceOnUse">
        <stop stop-color="#ED1C24"/>
        <stop offset="1" stop-color="#C1272D"/>
      </linearGradient>
      <linearGradient id="bd" x1="22.566" x2="44.746" y1="8.852" y2="31.032" gradientUnits="userSpaceOnUse">
        <stop stop-color="#ED1C24"/>
        <stop offset="1" stop-color="#C1272D"/>
      </linearGradient>
      <linearGradient id="be" x1="15.721" x2="37.985" y1="8.667" y2="30.931" gradientUnits="userSpaceOnUse">
        <stop stop-color="#8DC63F"/>
        <stop offset="1" stop-color="#28903B"/>
      </linearGradient>
      <linearGradient id="bf" x1="27.833" x2="49.72" y1="37.754" y2="15.867" gradientUnits="userSpaceOnUse">
        <stop stop-color="#FFF200"/>
        <stop offset="1" stop-color="#FFC20E"/>
      </linearGradient>
      <linearGradient id="bg" x1="15.872" x2="38.054" y1="15.544" y2="37.725" gradientUnits="userSpaceOnUse">
        <stop stop-color="#ED1C24"/>
        <stop offset="1" stop-color="#C1272D"/>
      </linearGradient>
      <linearGradient id="bh" x1="12.163" x2="34.425" y1="12.228" y2="34.49" gradientUnits="userSpaceOnUse">
        <stop stop-color="#8DC63F"/>
        <stop offset="1" stop-color="#28903B"/>
      </linearGradient>
      <linearGradient id="bi" x1="16.528" x2="38.708" y1="14.89" y2="37.07" gradientUnits="userSpaceOnUse">
        <stop stop-color="#ED1C24"/>
        <stop offset="1" stop-color="#C1272D"/>
      </linearGradient>
      <linearGradient id="bj" x1="15.9" x2="38.081" y1="15.516" y2="37.697" gradientUnits="userSpaceOnUse">
        <stop stop-color="#ED1C24"/>
        <stop offset="1" stop-color="#C1272D"/>
      </linearGradient>
      <linearGradient id="bk" x1="9.006" x2="31.269" y1="15.383" y2="37.647" gradientUnits="userSpaceOnUse">
        <stop stop-color="#8DC63F"/>
        <stop offset="1" stop-color="#28903B"/>
      </linearGradient>
      <linearGradient id="bl" x1="16.07" x2="38.251" y1="15.346" y2="37.528" gradientUnits="userSpaceOnUse">
        <stop stop-color="#ED1C24"/>
        <stop offset="1" stop-color="#C1272D"/>
      </linearGradient>
      <linearGradient id="bm" x1="12.436" x2="34.699" y1="11.953" y2="34.216" gradientUnits="userSpaceOnUse">
        <stop stop-color="#8DC63F"/>
        <stop offset="1" stop-color="#28903B"/>
      </linearGradient>
      <linearGradient id="bn" x1="12.282" x2="34.547" y1="12.105" y2="34.369" gradientUnits="userSpaceOnUse">
        <stop stop-color="#8DC63F"/>
        <stop offset="1" stop-color="#28903B"/>
      </linearGradient>
      <linearGradient id="bo" x1="9.039" x2="31.303" y1="15.349" y2="37.613" gradientUnits="userSpaceOnUse">
        <stop stop-color="#8DC63F"/>
        <stop offset="1" stop-color="#28903B"/>
      </linearGradient>
      <linearGradient id="bp" x1="12.384" x2="34.646" y1="12.006" y2="34.269" gradientUnits="userSpaceOnUse">
        <stop stop-color="#8DC63F"/>
        <stop offset="1" stop-color="#28903B"/>
      </linearGradient>
      <linearGradient id="bq" x1="12.549" x2="34.81" y1="11.844" y2="34.104" gradientUnits="userSpaceOnUse">
        <stop stop-color="#8DC63F"/>
        <stop offset="1" stop-color="#28903B"/>
      </linearGradient>
      <linearGradient id="br" x1="17.715" x2="39.893" y1="13.703" y2="35.881" gradientUnits="userSpaceOnUse">
        <stop stop-color="#ED1C24"/>
        <stop offset="1" stop-color="#C1272D"/>
      </linearGradient>
      <linearGradient id="bs" x1="15.9" x2="38.16" y1="8.494" y2="30.754" gradientUnits="userSpaceOnUse">
        <stop stop-color="#8DC63F"/>
        <stop offset="1" stop-color="#28903B"/>
      </linearGradient>
      <linearGradient id="bt" x1="21.23" x2="43.411" y1="10.188" y2="32.368" gradientUnits="userSpaceOnUse">
        <stop stop-color="#ED1C24"/>
        <stop offset="1" stop-color="#C1272D"/>
      </linearGradient>
      <linearGradient id="bu" x1="25.933" x2="48.113" y1="5.485" y2="27.665" gradientUnits="userSpaceOnUse">
        <stop stop-color="#ED1C24"/>
        <stop offset="1" stop-color="#C1272D"/>
      </linearGradient>
      <linearGradient id="bv" x1="19.881" x2="42.061" y1="11.538" y2="33.718" gradientUnits="userSpaceOnUse">
        <stop stop-color="#ED1C24"/>
        <stop offset="1" stop-color="#C1272D"/>
      </linearGradient>
      <linearGradient id="bw" x1="19.474" x2="41.654" y1="11.944" y2="34.125" gradientUnits="userSpaceOnUse">
        <stop stop-color="#ED1C24"/>
        <stop offset="1" stop-color="#C1272D"/>
      </linearGradient>
      <linearGradient id="bx" x1="20.055" x2="42.237" y1="11.362" y2="33.544" gradientUnits="userSpaceOnUse">
        <stop stop-color="#ED1C24"/>
        <stop offset="1" stop-color="#C1272D"/>
      </linearGradient>
      <linearGradient id="by" x1="20.51" x2="42.69" y1="10.908" y2="33.088" gradientUnits="userSpaceOnUse">
        <stop stop-color="#ED1C24"/>
        <stop offset="1" stop-color="#C1272D"/>
      </linearGradient>
      <linearGradient id="bz" x1="19.75" x2="41.928" y1="11.669" y2="33.847" gradientUnits="userSpaceOnUse">
        <stop stop-color="#ED1C24"/>
        <stop offset="1" stop-color="#C1272D"/>
      </linearGradient>
      <linearGradient id="bA" x1="19.934" x2="42.114" y1="11.484" y2="33.665" gradientUnits="userSpaceOnUse">
        <stop stop-color="#ED1C24"/>
        <stop offset="1" stop-color="#C1272D"/>
      </linearGradient>
      <linearGradient id="bB" x1="6.165" x2="28.428" y1="18.225" y2="40.488" gradientUnits="userSpaceOnUse">
        <stop stop-color="#8DC63F"/>
        <stop offset="1" stop-color="#28903B"/>
      </linearGradient>
      <linearGradient id="bC" x1="20.448" x2="42.628" y1="10.97" y2="33.15" gradientUnits="userSpaceOnUse">
        <stop stop-color="#ED1C24"/>
        <stop offset="1" stop-color="#C1272D"/>
      </linearGradient>
      <linearGradient id="bD" x1="20.421" x2="42.601" y1="10.997" y2="33.177" gradientUnits="userSpaceOnUse">
        <stop stop-color="#ED1C24"/>
        <stop offset="1" stop-color="#C1272D"/>
      </linearGradient>
      <linearGradient id="bE" x1="20.445" x2="42.625" y1="10.972" y2="33.153" gradientUnits="userSpaceOnUse">
        <stop stop-color="#ED1C24"/>
        <stop offset="1" stop-color="#C1272D"/>
      </linearGradient>
      <linearGradient id="bF" x1="21.483" x2="43.663" y1="9.935" y2="32.115" gradientUnits="userSpaceOnUse">
        <stop stop-color="#ED1C24"/>
        <stop offset="1" stop-color="#C1272D"/>
      </linearGradient>
      <linearGradient id="bG" x1="16.386" x2="38.649" y1="8.003" y2="30.267" gradientUnits="userSpaceOnUse">
        <stop stop-color="#8DC63F"/>
        <stop offset="1" stop-color="#28903B"/>
      </linearGradient>
      <linearGradient id="bH" x1="21.41" x2="43.59" y1="10.008" y2="32.188" gradientUnits="userSpaceOnUse">
        <stop stop-color="#ED1C24"/>
        <stop offset="1" stop-color="#C1272D"/>
      </linearGradient>
      <linearGradient id="bI" x1="2.151" x2="24.414" y1="22.238" y2="44.502" gradientUnits="userSpaceOnUse">
        <stop stop-color="#8DC63F"/>
        <stop offset="1" stop-color="#28903B"/>
      </linearGradient>
      <linearGradient id="bJ" x1="11.924" x2="34.189" y1="12.465" y2="34.729" gradientUnits="userSpaceOnUse">
        <stop stop-color="#8DC63F"/>
        <stop offset="1" stop-color="#28903B"/>
      </linearGradient>
      <linearGradient id="bK" x1="3.458" x2="25.721" y1="20.931" y2="43.194" gradientUnits="userSpaceOnUse">
        <stop stop-color="#8DC63F"/>
        <stop offset="1" stop-color="#28903B"/>
      </linearGradient>
      <linearGradient id="bL" x1="8.739" x2="31.003" y1="15.65" y2="37.913" gradientUnits="userSpaceOnUse">
        <stop stop-color="#8DC63F"/>
        <stop offset="1" stop-color="#28903B"/>
      </linearGradient>
    </defs>
  </symbol>
</svg>