<svg width="91" height="59" viewBox="0 0 91 59" fill="none" xmlns="http://www.w3.org/2000/svg">
<path d="M89.7481 45.0011C92.1715 50.4193 88.1047 54.3501 84.3255 52.1654C83.741 51.829 80.146 51.5446 80.8865 54.3445C81.02 54.8476 81.2963 55.513 81.6553 56.2598C81.4316 56.1533 81.1985 56.0568 80.9561 55.9684C80.3646 54.8357 79.8897 53.7982 79.7005 53.0858C78.9593 50.2846 82.5556 50.5703 83.1395 50.9068C86.9193 53.0915 90.9848 49.16 88.5621 43.7418C88.1824 42.8898 87.7695 42.1818 87.3359 41.5991C88.2037 42.3065 89.0338 43.4004 89.7481 45.0011Z" fill="url(#paint0_linear_4002_23015)"/>
<path d="M88.5622 43.7417C90.9849 49.1599 86.9194 53.0913 83.1396 50.9066C82.5557 50.5702 78.9594 50.2845 79.7006 53.0857C79.8898 53.798 80.3647 54.8356 80.9562 55.9683C79.7037 55.5116 78.1932 55.2873 76.3988 55.2873C73.4611 55.2873 71.1611 55.9125 69.5622 57.1443C69.1731 57.4438 68.8279 57.7746 68.5259 58.1361C67.4878 56.239 65.5299 55.2039 62.8202 55.2039C62.0777 55.2039 61.3648 55.3186 60.6894 55.5435V49.6836H50.6017V53.2686C49.7477 53.6251 49.1043 54.3011 48.9113 55.2184C48.8856 55.3412 48.8537 55.4564 48.8155 55.5636C48.1188 55.3462 47.3444 55.2372 46.4955 55.2372C46.3915 55.2372 46.2875 55.2397 46.1828 55.2459C45.5644 53.9045 44.8521 52.2154 44.2375 50.7168V49.7175H43.8309C43.6015 49.1517 43.3967 48.6386 43.2288 48.2151C43.3929 48.1624 43.4825 48.1343 43.4825 48.1343C43.4825 48.1343 43.4737 48.1186 43.4568 48.0873C44.6391 47.8504 50.0629 46.7058 52.2683 45.2616C53.0345 44.7573 53.1191 43.5249 52.6166 42.6121C52.621 42.535 52.5872 42.4849 52.5232 42.4573C52.2971 42.1102 51.9782 41.8226 51.5734 41.6629C51.534 41.557 51.4863 41.4543 51.4306 41.3546C51.4356 41.2763 51.4018 41.2256 51.3366 41.198C51.0841 40.8108 50.717 40.4988 50.2433 40.3528C50.212 40.3434 50.18 40.3315 50.1475 40.3171C49.2403 38.6274 49.1814 35.7673 53.3089 34.4121C54.8226 33.914 55.9378 34.0418 56.7216 34.476C57.1752 35.387 57.1595 36.4364 56.8181 36.9445C56.2598 37.7728 56.6276 39.0829 57.8261 39.5741C58.0949 40.46 59.066 41.2362 60.6718 40.9775C63.4849 40.5257 69.6981 36.2284 71.673 34.8219C72.5764 37.5197 74.2962 42.332 75.6652 44.2442C75.8381 44.4866 76.0887 44.6558 76.375 44.7498C76.5373 45.033 76.6964 45.2867 76.8512 45.5029C77.6832 46.6688 80.304 46.14 80.0941 43.731C79.9368 41.9868 83.9271 38.8172 87.3361 41.599C87.7696 42.1816 88.1825 42.8896 88.5622 43.7417Z" fill="url(#paint1_linear_4002_23015)"/>
<path d="M87.336 41.5992C83.9271 38.8174 79.9368 41.987 80.094 43.7313C80.3039 46.1402 77.6832 46.669 76.8512 45.5031C76.6964 45.2869 76.5373 45.0332 76.375 44.75C77.4652 45.109 79.0747 44.3803 78.9074 42.4726C78.732 40.5203 83.7511 36.7825 87.336 41.5992Z" fill="#FFC20E"/>
<path d="M76.2002 15.5689C78.5829 20.9 74.4165 24.8421 70.6179 22.7294C70.0283 22.403 66.392 22.1681 67.1062 24.931C67.7102 27.2673 71.4687 33.1178 72.1742 34.2036C72.0752 34.2531 71.8653 34.3596 71.5689 34.5106C71.2469 33.5395 71.0527 32.9117 71.0527 32.9117C71.0527 32.9117 71.0307 32.923 70.9888 32.9449C70.2833 31.8585 66.5242 26.0074 65.9202 23.6723C65.2047 20.9094 68.8429 21.1437 69.4312 21.4707C73.2311 23.5834 77.3969 19.6413 75.0142 14.3102C74.6546 13.5039 74.2624 12.8297 73.8488 12.2715C74.7009 12.9619 75.5104 14.0226 76.2002 15.5689Z" fill="url(#paint2_linear_4002_23015)"/>
<path d="M76.3749 44.7499C76.0886 44.6559 75.838 44.4868 75.6651 44.2443C74.2961 42.3321 72.5763 37.5198 71.6729 34.822C72.0632 34.5438 72.2881 34.3784 72.2881 34.3784C72.2881 34.3784 72.248 34.317 72.1741 34.2036C72.216 34.1817 72.238 34.1704 72.238 34.1704C72.238 34.1704 74.4953 41.4663 76.3749 44.7499Z" fill="url(#paint3_linear_4002_23015)"/>
<path d="M75.0142 14.3101C77.3969 19.6412 73.2311 23.5833 69.4313 21.4706C68.8429 21.1436 65.2047 20.9093 65.9202 23.6722C66.5242 26.0073 70.2833 31.8584 70.9888 32.9448C70.2363 33.3263 63.0294 36.9871 60.3811 38.3241C59.8298 38.6023 59.2853 38.6769 58.8267 38.5741C58.7459 38.1449 58.7935 37.6187 59.0134 37.0116C59.6612 35.2385 59.94 34.6947 58.702 32.4736C58.3618 31.864 57.9345 31.4167 57.4515 31.1022C56.0136 28.6807 53.1285 28.9682 51.071 29.9149C50.3918 30.2282 49.7434 30.6636 49.1807 31.1912C49.12 30.3334 48.8957 29.3586 48.4621 28.259C48.058 27.2321 47.3187 26.2823 46.3758 25.444C43.3221 21.48 35.4981 19.2245 32.9425 21.3146C32.4175 19.2709 32.056 17.595 32.056 17.595C32.056 17.595 31.7333 17.6413 31.187 17.7297C31.1494 17.5705 31.1149 17.4227 31.0842 17.2867C33.9149 16.2617 38.1852 14.6127 38.5656 13.8696C39.3725 12.3021 38.538 11.8804 37.6978 11.6837C37.8344 10.5083 36.4817 10.4344 35.7493 10.2734C35.468 10.212 35.2162 10.1186 34.9906 9.99772C34.7187 9.45578 34.5683 8.81735 34.5032 8.14258C34.2657 5.67282 36.1848 3.39603 38.4083 2.37041C40.0354 1.6236 42.1605 1.26147 43.698 2.24887C43.7106 2.2708 43.7231 2.29273 43.7356 2.31465C44.9592 4.49621 44.6691 5.03753 43.9913 6.79994C43.3935 8.36312 43.9743 9.37308 44.9624 9.5792C45.161 10.7915 46.419 11.2307 47.7297 10.5722C50.076 9.3925 55.9384 6.42779 57.9314 5.41971C58.7822 8.01101 60.5352 13.0314 61.9443 14.9742C62.1135 15.2066 62.3578 15.3689 62.6391 15.4598C62.8064 15.7517 62.9712 16.0124 63.1309 16.2329C63.9592 17.3769 66.6219 16.8193 66.439 14.4385C66.3024 12.7068 70.423 9.49525 73.8489 12.2714C74.2624 12.8296 74.6546 13.5037 75.0142 14.3101Z" fill="url(#paint4_linear_4002_23015)"/>
<path d="M72.1741 34.2036C72.248 34.317 72.2881 34.3784 72.2881 34.3784C72.2881 34.3784 72.0632 34.5438 71.6729 34.822C71.6365 34.7142 71.6021 34.6109 71.5688 34.5106C71.8652 34.3596 72.0751 34.2531 72.1741 34.2036Z" fill="url(#paint5_linear_4002_23015)"/>
<path d="M71.569 34.5107C71.6022 34.611 71.6366 34.7144 71.673 34.8221C69.6982 36.2287 63.4849 40.526 60.6718 40.9777C59.0661 41.2365 58.095 40.4602 57.8262 39.5743C58.2679 39.756 58.823 39.8255 59.4865 39.719C59.5316 39.7115 59.5779 39.7034 59.6249 39.694C60.1449 39.9621 60.8504 39.9452 61.5665 39.5831C63.8677 38.4228 69.608 35.5069 71.569 34.5107Z" fill="url(#paint6_linear_4002_23015)"/>
<path d="M71.0525 32.9116C71.0525 32.9116 71.2468 33.5394 71.5688 34.5105C69.6078 35.5067 63.8676 38.4225 61.5664 39.5829C60.8502 39.945 60.1448 39.9619 59.6248 39.6937C63.0757 39.0158 71.1027 33.1196 71.1027 33.1196C71.1027 33.1196 71.0626 33.0582 70.9887 32.9448C71.0306 32.9229 71.0525 32.9116 71.0525 32.9116Z" fill="url(#paint7_linear_4002_23015)"/>
<path d="M70.9887 32.9448C71.0627 33.0582 71.1028 33.1196 71.1028 33.1196C71.1028 33.1196 63.0757 39.0158 59.6249 39.6937C59.2195 39.4845 58.9263 39.1023 58.8267 38.5741C59.2853 38.6769 59.8297 38.6023 60.3811 38.3242C63.0294 36.9872 70.2363 33.3264 70.9887 32.9448Z" fill="url(#paint8_linear_4002_23015)"/>
<path d="M73.8487 12.2714C70.4228 9.49531 66.3022 12.7069 66.4388 14.4386C66.6217 16.8194 63.959 17.377 63.1307 16.2329C62.971 16.0124 62.8062 15.7518 62.6389 15.4598C63.7391 15.8151 65.3981 15.0758 65.2534 13.1799C65.0999 11.2414 70.2787 7.45159 73.8487 12.2714Z" fill="#C1272D"/>
<path d="M62.6391 15.4596C62.3578 15.3688 62.1134 15.2065 61.9443 14.9741C60.5352 13.0312 58.7822 8.01088 57.9314 5.41958C58.3574 5.20406 58.6068 5.07812 58.6068 5.07812C58.6068 5.07812 60.7846 12.2186 62.6391 15.4596Z" fill="url(#paint9_linear_4002_23015)"/>
<path d="M59.6248 39.6936C59.5778 39.703 59.5314 39.7112 59.4863 39.7187C58.8228 39.8252 58.2677 39.7557 57.826 39.574C57.6819 39.1016 57.7377 38.5978 58.0027 38.2031C58.0171 38.1818 58.0309 38.1599 58.0434 38.1367C58.2502 38.3566 58.519 38.5051 58.8266 38.574C58.9262 39.1022 59.2194 39.4844 59.6248 39.6936Z" fill="url(#paint10_linear_4002_23015)"/>
<path d="M58.702 32.474C59.94 34.695 59.6612 35.2388 59.0133 37.0119C58.7934 37.619 58.7458 38.1453 58.8266 38.5745C58.519 38.5055 58.2502 38.3571 58.0435 38.1372C58.3542 37.5914 58.3411 36.5452 57.8649 35.653C58.4852 33.9589 58.7308 33.3931 57.5153 31.2141C57.494 31.1765 57.4727 31.1389 57.4514 31.1025C57.9345 31.4171 58.3618 31.8644 58.702 32.474Z" fill="url(#paint11_linear_4002_23015)"/>
<path d="M57.865 35.6528C58.3412 36.545 58.3544 37.5913 58.0436 38.137C57.5906 37.6558 57.4359 36.8326 57.8281 35.7525C57.8406 35.7186 57.8525 35.6854 57.865 35.6528Z" fill="url(#paint12_linear_4002_23015)"/>
<path d="M58.0435 38.1369C58.031 38.16 58.0172 38.182 58.0028 38.2033C57.7378 38.598 57.682 39.1017 57.8261 39.5741C56.6276 39.0829 56.2598 37.7728 56.8181 36.9446C57.1595 36.4365 57.1752 35.387 56.7216 34.4761C57.2422 34.7643 57.6162 35.1872 57.865 35.6527C57.8524 35.6853 57.8405 35.7185 57.828 35.7523C57.4358 36.8324 57.5906 37.6557 58.0435 38.1369Z" fill="url(#paint13_linear_4002_23015)"/>
<path d="M57.5154 31.2138C58.7309 33.3929 58.4853 33.9586 57.865 35.6528C57.6163 35.1873 57.2422 34.7644 56.7216 34.4762C56.1214 33.2701 54.6998 32.3052 52.1235 33.1523C49.4877 34.0182 48.5586 35.4968 48.4671 36.892C48.2385 34.4185 50.0917 32.1718 52.2564 31.175C53.844 30.4445 55.9228 30.1068 57.4515 31.1023C57.4728 31.1387 57.4941 31.1762 57.5154 31.2138Z" fill="url(#paint14_linear_4002_23015)"/>
<path d="M57.4208 3.81982C57.4208 3.81982 57.6125 4.44948 57.9315 5.41997C55.9385 6.42804 50.0761 9.39276 47.7298 10.5725C46.4191 11.231 45.161 10.7918 44.9624 9.57946C45.426 9.67657 45.9799 9.59638 46.5431 9.31256C49.3926 7.88095 57.4208 3.81982 57.4208 3.81982Z" fill="#C1272D"/>
<path d="M57.4514 31.1025C55.9227 30.107 53.8439 30.4447 52.2563 31.1752C50.0917 32.172 48.2384 34.4187 48.4671 36.8923C48.4251 37.5338 48.5604 38.1578 48.7879 38.6966C48.8931 39.2687 48.9276 39.8137 48.7077 40.59C48.3042 42.021 49.2703 40.8989 49.3712 40.9221C49.5334 40.9609 49.4921 41.2547 49.405 41.6169C48.8048 41.8036 48.2616 41.9546 48.0924 41.8462C47.6607 41.5711 48.6055 39.763 48.187 39.6634C48.083 39.6389 47.1169 40.761 47.5223 39.3301C47.9339 37.8746 47.4509 37.2331 47.288 35.6993C47.2842 35.6649 47.2811 35.6304 47.2786 35.596C48.4596 34.7589 49.3323 33.3399 49.1807 31.1915C49.7433 30.664 50.3918 30.2285 51.0709 29.9153C53.1284 28.9686 56.0136 28.681 57.4514 31.1025Z" fill="url(#paint15_linear_4002_23015)"/>
<path d="M56.7215 34.4763C55.9377 34.0421 54.8225 33.9143 53.3088 34.4124C49.1813 35.7676 49.2402 38.6277 50.1474 40.3174C49.675 40.1182 49.128 39.5023 48.7878 38.6966C48.6957 38.196 48.5497 37.6741 48.4733 36.958C48.4708 36.936 48.4689 36.9141 48.467 36.8922C48.5585 35.4969 49.4876 34.0183 52.1234 33.1525C54.6997 32.3054 56.1213 33.2703 56.7215 34.4763Z" fill="url(#paint16_linear_4002_23015)"/>
<path d="M52.6166 42.6123C53.119 43.5252 53.0345 44.7575 52.2682 45.2619C50.0628 46.706 44.639 47.8507 43.4568 48.0875C43.386 47.9566 43.1705 47.5556 42.866 46.9735C43.1686 46.8714 44.0589 46.5688 45.1847 46.1641C47.2253 45.6441 49.7452 44.8784 51.0822 44.0032C51.2476 43.8942 51.3817 43.7513 51.4838 43.5853C52.0621 43.2777 52.4574 43.0045 52.5583 42.7978C52.5953 42.7238 52.6141 42.6618 52.6166 42.6123Z" fill="url(#paint17_linear_4002_23015)"/>
<path d="M52.5232 42.4575C52.5871 42.4851 52.6209 42.5352 52.6165 42.6123C52.5877 42.5596 52.557 42.5076 52.5232 42.4575Z" fill="#FFC20E"/>
<path d="M52.6166 42.6124C52.6141 42.6619 52.5953 42.7239 52.5584 42.7979C52.4575 43.0046 52.0622 43.2778 51.4839 43.5854C51.6681 43.2878 51.7539 42.915 51.7458 42.5284C52.0954 42.4388 52.3823 42.395 52.5233 42.4576C52.5571 42.5078 52.5878 42.5598 52.6166 42.6124Z" fill="url(#paint18_linear_4002_23015)"/>
<path d="M52.5231 42.4575C52.3821 42.3949 52.0951 42.4387 51.7455 42.5283C51.7399 42.2395 51.6816 41.9425 51.5732 41.6631C51.978 41.8228 52.2969 42.1104 52.5231 42.4575Z" fill="url(#paint19_linear_4002_23015)"/>
<path d="M51.7456 42.5283C51.7538 42.9149 51.6679 43.2877 51.4837 43.5853C49.9688 44.3929 47.1989 45.441 45.1847 46.164C44.1929 46.4165 43.3151 46.6114 42.7406 46.7323C42.5614 46.3871 42.3584 45.9911 42.1404 45.5582C43.4799 45.099 46.88 43.9067 49.165 42.8754C49.1756 42.9813 49.2095 43.0615 49.2765 43.1047C49.5572 43.2839 50.8528 42.757 51.7456 42.5283Z" fill="url(#paint20_linear_4002_23015)"/>
<path d="M51.5734 41.663C51.6818 41.9424 51.7401 42.2394 51.7457 42.5282C50.8529 42.7569 49.5572 43.2838 49.2766 43.1046C49.2095 43.0614 49.1757 42.9812 49.165 42.8753C50.2846 42.3703 51.1367 41.9042 51.3472 41.5815C51.3748 41.5934 51.4024 41.6035 51.4299 41.6116C51.4788 41.6267 51.5264 41.6436 51.5734 41.663Z" fill="url(#paint21_linear_4002_23015)"/>
<path d="M51.5733 41.6632C51.5264 41.6438 51.4787 41.6269 51.4299 41.6119C51.4023 41.6037 51.3747 41.5937 51.3472 41.5818C51.3572 41.5667 51.3653 41.5523 51.3722 41.5386C51.4086 41.4652 51.4274 41.4045 51.4305 41.355C51.4863 41.4546 51.5339 41.5573 51.5733 41.6632Z" fill="url(#paint22_linear_4002_23015)"/>
<path d="M51.3364 41.1982C51.4016 41.2258 51.4354 41.2766 51.4304 41.3549C51.4016 41.3016 51.3703 41.249 51.3364 41.1982Z" fill="url(#paint23_linear_4002_23015)"/>
<path d="M51.4306 41.3549C51.4274 41.4044 51.4086 41.4652 51.3723 41.5385C51.3654 41.5523 51.3573 41.5667 51.3472 41.5817C51.1737 41.5115 50.9901 41.3843 50.8103 41.2121C51.044 41.1651 51.2307 41.1519 51.3366 41.1983C51.3704 41.249 51.4017 41.3016 51.4306 41.3549Z" fill="url(#paint24_linear_4002_23015)"/>
<path d="M51.3366 41.1983C51.2307 41.1519 51.044 41.1651 50.8103 41.2121C50.5722 40.9846 50.3404 40.6776 50.1475 40.3174C50.18 40.3318 50.212 40.3437 50.2433 40.3531C50.717 40.4991 51.0841 40.8111 51.3366 41.1983Z" fill="url(#paint25_linear_4002_23015)"/>
<path d="M51.4839 43.585C51.3818 43.751 51.2477 43.8938 51.0823 44.0029C49.7453 44.8781 47.2254 45.6437 45.1848 46.1637C47.1991 45.4407 49.969 44.3926 51.4839 43.585Z" fill="url(#paint26_linear_4002_23015)"/>
<path d="M50.8102 41.2119C50.99 41.3842 51.1736 41.5114 51.3471 41.5816C51.1366 41.9042 50.2845 42.3704 49.165 42.8753C49.1349 42.5671 49.3015 42.0439 49.4049 41.6166C49.8923 41.4657 50.4167 41.2909 50.8102 41.2119Z" fill="url(#paint27_linear_4002_23015)"/>
<path d="M50.6016 53.2686V55.4019C50.4181 55.6324 50.2733 55.8943 50.1762 56.1844C49.7621 55.9238 49.3085 55.7164 48.8154 55.5635C48.8536 55.4564 48.8856 55.3411 48.9113 55.2183C49.1043 54.3011 49.7477 53.625 50.6016 53.2686Z" fill="url(#paint28_linear_4002_23015)"/>
<path d="M50.1474 40.3171C50.3404 40.6774 50.5722 40.9844 50.8103 41.2118C50.4168 41.2907 49.8924 41.4655 49.405 41.6165C49.492 41.2544 49.5334 40.9605 49.3711 40.9217C49.2703 40.8985 48.3042 42.0206 48.7076 40.5896C48.9275 39.8134 48.8931 39.2683 48.7878 38.6963C49.128 39.502 49.675 40.1179 50.1474 40.3171Z" fill="url(#paint29_linear_4002_23015)"/>
<path d="M49.1806 31.1914C49.3322 33.3398 48.4594 34.7588 47.2784 35.5959C47.1375 33.9124 47.9576 32.3361 49.1806 31.1914Z" fill="url(#paint30_linear_4002_23015)"/>
<path d="M49.4049 41.6169C49.3015 42.0442 49.1348 42.5673 49.1649 42.8756C46.88 43.9068 43.4798 45.0991 42.1403 45.5584C40.8315 42.9633 38.9889 39.0563 38.6406 36.9894C38.4063 35.5904 40.7119 34.113 42.3057 35.9406C43.0507 36.8002 45.5104 36.8503 47.2785 35.596C47.281 35.6305 47.2841 35.6649 47.2879 35.6994C47.4508 37.2331 47.9338 37.8747 47.5222 39.3301C47.1168 40.7611 48.0829 39.639 48.1869 39.6634C48.6054 39.763 47.6606 41.5712 48.0923 41.8462C48.2615 41.9546 48.8047 41.8036 49.4049 41.6169Z" fill="url(#paint31_linear_4002_23015)"/>
<path d="M48.4619 28.2593C48.8955 29.3589 49.1198 30.3337 49.1805 31.1914C47.9576 32.3361 47.1374 33.9124 47.2784 35.5959C45.5104 36.8502 43.0506 36.8001 42.3057 35.9405C40.7118 34.1129 38.4062 35.5903 38.6405 36.9893C38.9889 39.0562 40.8315 42.9632 42.1403 45.5583C41.9548 45.6215 41.8095 45.671 41.7111 45.7049C41.6366 45.5833 41.5595 45.4586 41.4812 45.3308C41.4806 45.3296 41.4799 45.3283 41.4787 45.3271C40.205 42.8642 37.8524 38.0932 37.4545 35.7306C37.2835 34.7087 38.4676 33.6449 39.7394 33.8579C39.9487 33.9995 40.1924 34.086 40.4562 34.1211C40.6849 34.2551 40.9079 34.4393 41.1191 34.6812C42.5619 36.344 50.4198 34.9763 47.2747 26.9987C47.0616 26.4574 46.7559 25.9374 46.3756 25.4443C47.3185 26.2826 48.0578 27.2324 48.4619 28.2593Z" fill="url(#paint32_linear_4002_23015)"/>
<path d="M48.4733 36.9579C48.5498 37.674 48.6958 38.1959 48.7879 38.6965C48.5604 38.1577 48.4251 37.5337 48.4671 36.8921C48.469 36.914 48.4708 36.9359 48.4733 36.9579Z" fill="url(#paint33_linear_4002_23015)"/>
<path d="M47.2748 26.9987C50.42 34.9762 42.5621 36.3439 41.1192 34.6811C40.9081 34.4393 40.685 34.2551 40.4563 34.121C42.4311 34.3885 45.5318 31.8179 43.6222 28.0901C43.1968 27.2587 42.6479 26.6227 42.0389 26.1597C39.7835 22.8517 35.3151 23.5221 34.7099 26.1785C34.676 26.3283 34.6328 26.4661 34.5808 26.5933C34.5263 26.4824 34.4705 26.3696 34.4154 26.2569C34.1028 25.4073 33.792 24.4067 33.5032 23.3918C34.817 20.3619 42.403 21.9113 46.3757 25.4443C46.756 25.9373 47.0618 26.4573 47.2748 26.9987Z" fill="url(#paint34_linear_4002_23015)"/>
<path d="M46.1827 55.2459C46.0003 55.2553 45.8161 55.2741 45.6319 55.3011C45.2341 54.5317 44.741 53.4466 44.2373 52.2819V50.7168C44.8519 52.2154 45.5643 53.9046 46.1827 55.2459Z" fill="#FFC20E"/>
<path d="M44.921 3.57412C46.1452 5.75568 45.8551 6.29762 45.1766 8.06003C44.951 8.64959 44.8934 9.16084 44.9623 9.57935C43.9743 9.37323 43.3935 8.36327 43.9912 6.80009C44.6691 5.03768 44.9592 4.49637 43.7356 2.31481C43.7231 2.29288 43.7105 2.27095 43.698 2.24902C44.1723 2.55289 44.5908 2.98519 44.921 3.57412Z" fill="url(#paint35_linear_4002_23015)"/>
<path d="M43.8307 49.7177H43.1584C42.9705 49.2616 42.7907 48.8199 42.624 48.407C42.8771 48.3269 43.082 48.2617 43.228 48.2153C43.3959 48.6389 43.6008 49.152 43.8301 49.7177H43.8307Z" fill="#FFC20E"/>
<path d="M46.3757 25.4443C42.4029 21.9113 34.8169 20.3619 33.5031 23.3918C33.3033 22.6907 33.1141 21.9828 32.9424 21.3149C35.498 19.2248 43.322 21.4803 46.3757 25.4443Z" fill="url(#paint36_linear_4002_23015)"/>
<path d="M43.6221 28.09C45.5317 31.8178 42.4311 34.3884 40.4563 34.1209C40.2201 33.9824 39.9782 33.8979 39.7395 33.8578C39.7276 33.8503 39.7157 33.8421 39.7044 33.834C38.068 32.6586 35.2473 33.4443 36.0361 35.5224C36.8337 37.6182 39.6186 42.2952 41.4788 45.3269C41.48 45.3282 41.4806 45.3294 41.4813 45.3307C41.5508 45.466 41.6172 45.5944 41.6799 45.7147C41.6072 45.7392 41.5683 45.7523 41.5683 45.7523C41.5683 45.7523 41.715 46.1289 41.9568 46.741C41.2263 45.5863 35.9942 37.2692 34.8495 34.2631C34.0613 32.1843 36.8826 31.3999 38.5178 32.5753C40.2696 33.8308 44.6158 31.0848 42.4361 26.8307C42.3133 26.5907 42.1805 26.367 42.0389 26.1597C42.6478 26.6227 43.1967 27.2586 43.6221 28.09Z" fill="url(#paint37_linear_4002_23015)"/>
<path d="M43.4567 48.0873C43.4736 48.1186 43.4824 48.1343 43.4824 48.1343C43.4824 48.1343 43.3928 48.1625 43.2286 48.2151C43.1992 48.1412 43.171 48.0698 43.144 48.0015C43.1986 48.0873 43.2274 48.133 43.2274 48.133C43.2274 48.133 43.3088 48.1174 43.4573 48.0873H43.4567Z" fill="url(#paint38_linear_4002_23015)"/>
<path d="M43.4566 48.0876C43.3081 48.1177 43.2267 48.1333 43.2267 48.1333C43.2267 48.1333 43.1979 48.0876 43.1434 48.0018C42.9003 47.3884 42.7537 47.0112 42.7537 47.0112C42.7537 47.0112 42.7925 46.9981 42.8658 46.9736C43.1703 47.5557 43.3858 47.9567 43.4566 48.0876Z" fill="url(#paint39_linear_4002_23015)"/>
<path d="M43.1435 48.0014C43.1705 48.0696 43.1987 48.1411 43.2281 48.215C43.0821 48.2614 42.8773 48.3265 42.6241 48.4067C42.4036 47.8616 42.2056 47.3667 42.0427 46.9563C42.2069 46.9037 42.2965 46.8755 42.2965 46.8755C42.2965 46.8755 42.2877 46.8598 42.2708 46.8285C42.3077 46.8216 42.3478 46.8135 42.393 46.8047C42.7507 47.3792 43.0163 47.8002 43.1435 48.0014Z" fill="url(#paint40_linear_4002_23015)"/>
<path d="M45.1848 46.1641C44.0589 46.5688 43.1686 46.8714 42.866 46.9735C42.8259 46.8965 42.784 46.8156 42.7407 46.7323C43.3152 46.6114 44.193 46.4166 45.1848 46.1641Z" fill="url(#paint41_linear_4002_23015)"/>
<path d="M42.7405 46.7324C42.7838 46.8157 42.8257 46.8966 42.8658 46.9736C42.7925 46.9981 42.7537 47.0112 42.7537 47.0112C42.7537 47.0112 42.9003 47.3884 43.1434 48.0018C43.0162 47.8006 42.7506 47.3796 42.3928 46.8051C42.4906 46.785 42.6077 46.7606 42.7405 46.7324Z" fill="url(#paint42_linear_4002_23015)"/>
<path d="M42.4361 26.8308C44.6157 31.0849 40.2695 33.8309 38.5178 32.5754C36.8825 31.4 34.0613 32.1844 34.8495 34.2632C35.9941 37.2693 41.2262 45.5864 41.9568 46.7411C41.9568 46.7411 41.9574 46.7417 41.9574 46.7423C41.985 46.8106 42.0131 46.8821 42.0426 46.9566C40.5922 47.4171 33.3101 49.7321 30.549 50.6168C28.7415 51.1963 28.2948 52.9982 30.2257 54.0489C30.3936 54.572 30.8736 55.0839 31.7275 55.4642C32.2644 55.7023 32.6936 55.8846 33.0507 56.0926C33.1228 56.2329 33.1923 56.3864 33.2606 56.5575C31.7751 55.659 29.7897 55.2042 27.3431 55.2042C25.602 55.2042 24.1378 55.3984 22.9205 55.7931C22.8609 55.3896 22.5145 55.0068 21.6167 54.7167C21.1787 54.5758 19.7383 55.0457 18.0699 55.706H10.6945C9.73588 53.4612 8.70588 50.9288 8.40828 49.7446C8.06181 48.3769 9.44831 47.1602 11.0735 48.1752C13.5784 49.7371 17.5743 46.6245 16.1227 42.2702C15.7286 41.0861 15.0952 40.2822 14.3659 39.7791C12.4224 36.6779 8.28924 37.7617 7.98036 39.6726C7.74918 41.123 6.31506 42.2733 5.1892 42.0027C3.71248 38.4891 1.33545 28.2473 1.33545 28.2473C1.33545 28.2473 6.92342 24.5183 9.87247 23.9293C10.1707 23.8711 10.4739 23.9193 10.7565 24.0459C11.0027 24.6179 11.0422 25.2808 10.7314 25.8647C10.3023 26.6723 10.7534 28.8288 12.3466 29.8732C13.2394 31.3781 15.1923 32.556 18.4696 30.9389C22.4487 28.9747 20.8109 25.7525 19.4182 25.0489C19.0322 24.3059 18.407 23.7696 17.8939 23.6675C17.8594 23.6606 17.8256 23.6524 17.7917 23.643C17.5875 22.8567 17.8619 21.8599 18.9796 21.0674C20.6042 19.9133 24.7524 18.9284 27.9452 18.3057C28.8862 20.6789 30.7959 25.3885 31.7313 26.9229C31.9487 27.28 32.2644 27.5206 32.6115 27.6346C32.7218 27.8445 32.8245 28.0287 32.9179 28.1816C33.4849 29.1151 34.7273 29.2554 35.4434 28.4021C35.6013 28.6527 35.5888 28.6032 35.4729 28.3658C35.6608 28.1296 35.8099 27.8219 35.8964 27.4385C36.4083 25.1943 39.6768 24.3673 42.0388 26.1598C42.1804 26.3671 42.3133 26.5908 42.4361 26.8308Z" fill="url(#paint43_linear_4002_23015)"/>
<path d="M42.7406 46.7322C42.6077 46.7604 42.4906 46.7848 42.3928 46.8049C42.1924 46.4822 41.9624 46.112 41.7112 45.7047C41.8095 45.6709 41.9549 45.6214 42.1403 45.5581C42.3584 45.991 42.5614 46.387 42.7406 46.7322Z" fill="url(#paint44_linear_4002_23015)"/>
<path d="M42.3929 46.8048C42.3478 46.8135 42.3077 46.8217 42.2707 46.8286C42.1999 46.6976 41.9844 46.2967 41.6799 45.7146C41.6893 45.7115 41.7 45.7077 41.7113 45.7046C41.9625 46.1118 42.1924 46.4821 42.3929 46.8048Z" fill="url(#paint45_linear_4002_23015)"/>
<path d="M42.2708 46.8286C42.2877 46.86 42.2965 46.8756 42.2965 46.8756C42.2965 46.8756 42.2069 46.9038 42.0427 46.9565C42.0133 46.8819 41.9851 46.8105 41.9575 46.7422C42.012 46.8286 42.0415 46.8744 42.0415 46.8744C42.0415 46.8744 42.1229 46.8587 42.2708 46.8286Z" fill="url(#paint46_linear_4002_23015)"/>
<path d="M42.0426 46.9565C42.2055 47.3669 42.4035 47.8619 42.624 48.4069C41.713 48.697 40.1774 49.1851 38.5046 49.7176H33.9961L34.0024 51.1511C33.1084 51.4362 32.3196 51.688 31.7344 51.8754C30.5434 52.2576 29.9438 53.1704 30.2257 54.0488C28.2948 52.9981 28.7415 51.1962 30.549 50.6167C33.3101 49.732 40.5922 47.417 42.0426 46.9565Z" fill="url(#paint47_linear_4002_23015)"/>
<path d="M42.2707 46.8288C42.1228 46.8589 42.0414 46.8745 42.0414 46.8745C42.0414 46.8745 42.0119 46.8288 41.9574 46.7423L41.9568 46.7411C41.715 46.129 41.5684 45.7524 41.5684 45.7524C41.5684 45.7524 41.6072 45.7393 41.6799 45.7148C41.9844 46.2969 42.1999 46.6979 42.2707 46.8288Z" fill="url(#paint48_linear_4002_23015)"/>
<path d="M41.7111 45.7046C41.6999 45.7077 41.6892 45.7115 41.6798 45.7146C41.6172 45.5943 41.5507 45.4659 41.4812 45.3306C41.5595 45.4584 41.6366 45.5831 41.7111 45.7046Z" fill="url(#paint49_linear_4002_23015)"/>
<path d="M43.698 2.24908C42.1605 1.26167 40.0353 1.6238 38.4082 2.37062C36.1847 3.39624 34.2656 5.67303 34.5031 8.14279C34.5683 8.81755 34.7186 9.45598 34.9905 9.99793C33.9123 9.42152 33.4468 8.22236 33.3165 6.88285C33.0796 4.41309 34.9987 2.13693 37.2222 1.11193C39.3317 0.142702 42.2789 -0.177452 43.698 2.24908Z" fill="#C1272D"/>
<path d="M41.4789 45.327C39.6187 42.2952 36.8338 37.6182 36.0362 35.5225C35.2474 33.4443 38.0681 32.6587 39.7045 33.834C39.7158 33.8422 39.7277 33.8503 39.7396 33.8578C38.4678 33.6448 37.2837 34.7086 37.4547 35.7305C37.8525 38.0931 40.2051 42.8641 41.4789 45.327Z" fill="url(#paint50_linear_4002_23015)"/>
<path d="M39.7395 33.8579C39.9782 33.898 40.22 33.9826 40.4562 34.121C40.1925 34.086 39.9488 33.9995 39.7395 33.8579Z" fill="url(#paint51_linear_4002_23015)"/>
<path d="M42.039 26.1595C39.677 24.367 36.4084 25.194 35.8965 27.4383C35.8101 27.8217 35.6609 28.1293 35.473 28.3655C35.3126 28.0366 34.9555 27.3474 34.5808 26.5931C34.6328 26.4659 34.676 26.3281 34.7099 26.1783C35.3151 23.5219 39.7835 22.8515 42.039 26.1595Z" fill="url(#paint52_linear_4002_23015)"/>
<path d="M37.6977 11.6841C38.5378 11.8808 39.3724 12.3025 38.5654 13.87C38.1851 14.6131 33.9147 16.2621 31.0841 17.2871C30.9481 16.6963 30.8704 16.3354 30.8704 16.3354C30.8704 16.3354 29.3912 16.549 27.4026 16.9231C27.3989 16.9131 27.397 16.908 27.397 16.908C27.397 16.908 36.8055 13.7303 37.38 12.6113C37.5698 12.2429 37.6688 11.9378 37.6977 11.6841Z" fill="#C1272D"/>
<path d="M35.7492 10.2737C36.4816 10.4347 37.8343 10.5087 37.6977 11.684C37.4258 11.6201 37.1532 11.58 36.9358 11.5324C35.9854 11.3244 35.3689 10.7568 34.9905 9.99805C35.216 10.119 35.4679 10.2123 35.7492 10.2737Z" fill="url(#paint53_linear_4002_23015)"/>
<path d="M35.4731 28.3657C35.589 28.6032 35.6015 28.6527 35.4436 28.4021C35.453 28.3902 35.463 28.3783 35.4731 28.3657Z" fill="#6D9D31"/>
<path d="M35.4729 28.3657C35.4628 28.3782 35.4528 28.3901 35.4434 28.402C35.3839 28.3074 35.3 28.1696 35.1878 27.9835C34.9842 27.6452 34.773 27.1822 34.5613 26.6403C34.5682 26.6246 34.5751 26.6089 34.5807 26.5933C34.9554 27.3476 35.3125 28.0368 35.4729 28.3657Z" fill="url(#paint54_linear_4002_23015)"/>
<path d="M35.1878 27.9834C35.3 28.1695 35.3839 28.3073 35.4435 28.4019C34.7273 29.2552 33.4849 29.1149 32.9179 28.1814C32.8246 28.0285 32.7218 27.8443 32.6116 27.6344C33.1723 27.8186 33.8151 27.6701 34.2568 27.142C34.4153 27.3938 34.4028 27.3443 34.2863 27.1063C34.3922 26.9741 34.4849 26.8187 34.5613 26.6401C34.7731 27.1821 34.9842 27.6451 35.1878 27.9834Z" fill="url(#paint55_linear_4002_23015)"/>
<path d="M34.5807 26.5933C34.575 26.6089 34.5682 26.6246 34.5613 26.6403C34.513 26.5168 34.4642 26.3884 34.4153 26.2568C34.4704 26.3696 34.5262 26.4824 34.5807 26.5933Z" fill="url(#paint56_linear_4002_23015)"/>
<path d="M34.4154 26.2565C34.4642 26.388 34.5131 26.5165 34.5613 26.6399C34.4849 26.8185 34.3922 26.9738 34.2863 27.106C34.1027 26.7282 33.6598 25.8762 33.23 24.9959C32.9167 24.1482 32.606 23.1477 32.3171 22.1327C32.4575 21.8082 32.6705 21.5369 32.9424 21.3145C33.1141 21.9823 33.3033 22.6903 33.5031 23.3914C33.4643 23.4803 33.4255 23.5699 33.3973 23.6664C33.3233 23.9321 33.8584 25.1168 34.4154 26.2565Z" fill="url(#paint57_linear_4002_23015)"/>
<path d="M34.2863 27.1064C34.4028 27.3445 34.4153 27.394 34.2568 27.1422C34.2669 27.1309 34.2769 27.119 34.2863 27.1064Z" fill="url(#paint58_linear_4002_23015)"/>
<path d="M34.2863 27.1062C34.2769 27.1188 34.2669 27.1307 34.2569 27.1419C34.1973 27.0473 34.1134 26.9101 34.0019 26.7247C33.7519 26.3087 33.4906 25.7047 33.23 24.9961C33.6598 25.8764 34.1027 26.7284 34.2863 27.1062Z" fill="url(#paint59_linear_4002_23015)"/>
<path d="M34.0263 56.9895V57.096C33.9805 57.0584 33.9336 57.0208 33.8853 56.9838C33.688 56.8316 33.4799 56.6894 33.2607 56.5572C33.1924 56.3861 33.1228 56.2326 33.0508 56.0923C33.4493 56.3228 33.7581 56.5854 34.0263 56.9895Z" fill="url(#paint60_linear_4002_23015)"/>
<path d="M34.0018 26.725C34.1133 26.9104 34.1972 27.0476 34.2568 27.1423C33.8151 27.6704 33.1722 27.8189 32.6115 27.6347C31.2532 25.0528 28.7296 18.5432 28.5898 18.1823C29.6493 17.9837 30.5634 17.8296 31.1868 17.73C31.4493 18.8546 31.8547 20.5117 32.317 22.1332C32.2782 22.2222 32.2387 22.3111 32.2118 22.4082C32.1378 22.6733 32.6723 23.8586 33.2299 24.9964C33.4905 25.705 33.7518 26.309 34.0018 26.725Z" fill="url(#paint61_linear_4002_23015)"/>
<path d="M33.5031 23.3916C33.792 24.4066 34.1027 25.4071 34.4154 26.2567C33.8584 25.117 33.3233 23.9323 33.3972 23.6666C33.4254 23.5702 33.4643 23.4806 33.5031 23.3916Z" fill="url(#paint62_linear_4002_23015)"/>
<path d="M32.3172 22.1328C32.606 23.1478 32.9168 24.1483 33.2301 24.996C32.6724 23.8583 32.138 22.6729 32.212 22.4079C32.2389 22.3107 32.2784 22.2218 32.3172 22.1328Z" fill="url(#paint63_linear_4002_23015)"/>
<path d="M30.5422 54.2055C31.8398 54.7806 32.5083 55.0325 33.0508 56.0925C32.6937 55.8845 32.2645 55.7022 31.7276 55.4641C30.8737 55.0838 30.3937 54.572 30.2258 54.0488C30.3248 54.1033 30.4307 54.156 30.5422 54.2055Z" fill="#6D9D31"/>
<path d="M32.056 17.5952C32.056 17.5952 32.4175 19.2712 32.9425 21.3149C32.6706 21.5373 32.4576 21.8086 32.3173 22.1331C31.8549 20.5117 31.4495 18.8545 31.187 17.7299C31.7333 17.6416 32.056 17.5952 32.056 17.5952Z" fill="url(#paint64_linear_4002_23015)"/>
<path d="M32.6117 27.6345C32.2646 27.5205 31.9488 27.2799 31.7314 26.9228C30.796 25.3884 28.8864 20.6788 27.9453 18.3056C28.1652 18.263 28.3801 18.2216 28.59 18.1821C28.7297 18.543 31.2534 25.0526 32.6117 27.6345Z" fill="url(#paint65_linear_4002_23015)"/>
<path d="M31.0842 17.2871C31.1149 17.4231 31.1494 17.5709 31.187 17.7301C30.5636 17.8297 29.6495 17.9838 28.59 18.1824C28.5856 18.1718 28.5837 18.1667 28.5837 18.1667C28.5837 18.1667 29.6488 17.8071 31.0842 17.2871Z" fill="url(#paint66_linear_4002_23015)"/>
<path d="M30.8704 16.335C30.8704 16.335 30.9481 16.6958 31.084 17.2867C29.6487 17.8067 28.5836 18.1663 28.5836 18.1663C28.5836 18.1663 28.5855 18.1713 28.5899 18.182C28.38 18.2214 28.1651 18.2628 27.9452 18.3054C27.6419 17.5391 27.4389 17.016 27.4026 16.9226C29.3912 16.5486 30.8704 16.335 30.8704 16.335Z" fill="#C1272D"/>
<path d="M27.4028 16.9229C27.4391 17.0162 27.6421 17.5394 27.9453 18.3056C24.7526 18.9284 20.6044 19.9133 18.9798 21.0673C17.8621 21.8599 17.5876 22.8567 17.7919 23.6429C16.4919 23.2883 15.7989 21.2233 17.7938 19.8086C19.5292 18.5756 24.1486 17.535 27.4028 16.9229Z" fill="#6D9D31"/>
<path d="M22.9206 55.7929C22.7609 55.8449 22.6055 55.9 22.4545 55.9589C22.3586 55.9677 22.2496 55.9846 22.1293 56.009L22.1932 55.7058H18.0701C19.7385 55.0454 21.1789 54.5755 21.6168 54.7165C22.5146 55.0066 22.8611 55.3894 22.9206 55.7929Z" fill="url(#paint67_linear_4002_23015)"/>
<path d="M22.4545 55.959C22.3373 56.0041 22.222 56.0517 22.1099 56.1012L22.1293 56.0091C22.2496 55.9847 22.3586 55.9678 22.4545 55.959Z" fill="#469E46"/>
<path d="M19.4183 25.0488C20.811 25.7524 22.4488 28.9746 18.4697 30.9388C15.1924 32.5558 13.2395 31.378 12.3467 29.8731C13.4337 30.586 15.052 30.7815 17.2843 29.6801C20.0354 28.3218 20.1005 26.3614 19.4183 25.0488Z" fill="#6D9D31"/>
<path d="M19.4182 25.049C19.3023 24.9901 19.1889 24.9494 19.0799 24.9274C18.4609 24.8034 17.9615 24.2959 17.7917 23.6431C17.8256 23.6525 17.8594 23.6606 17.8939 23.6675C18.407 23.7696 19.0323 24.3059 19.4182 25.049Z" fill="url(#paint68_linear_4002_23015)"/>
<path d="M16.1228 42.2704C17.5744 46.6247 13.5785 49.7373 11.0736 48.1753C9.44843 47.1604 8.06193 48.3771 8.4084 49.7448C8.706 50.9289 9.736 53.4613 10.6946 55.7062H10.0518C8.97603 53.2333 7.57826 49.8989 7.22302 48.4848C6.8753 47.1178 8.2643 45.9017 9.8895 46.9167C12.3931 48.4786 16.3878 45.366 14.9374 41.011C14.7814 40.5424 14.5878 40.1333 14.366 39.7793C15.0953 40.2824 15.7287 41.0862 16.1228 42.2704Z" fill="#6D9D31"/>
<path d="M14.3659 39.7789C12.2821 38.3398 9.42075 39.3535 9.16576 40.9311C8.84811 42.9216 6.2637 44.3482 5.32454 42.3107C5.28068 42.2149 5.23495 42.1121 5.18921 42.0025C6.31507 42.2731 7.74919 41.1228 7.98037 39.6724C8.28925 37.7615 12.4224 36.6776 14.3659 39.7789Z" fill="url(#paint69_linear_4002_23015)"/>
<path d="M10.7565 24.0459C11.7727 24.5008 12.5327 25.9668 11.9162 27.1246C11.6243 27.6747 11.7402 28.8495 12.3466 29.8732C10.7534 28.8288 10.3023 26.6723 10.7315 25.8647C11.0422 25.2808 11.0027 24.6179 10.7565 24.0459Z" fill="url(#paint70_linear_4002_23015)"/>
<path d="M10.7566 24.0456C10.474 23.919 10.1708 23.8708 9.87255 23.9291C6.9235 24.518 1.33553 28.2471 1.33553 28.2471C1.33553 28.2471 3.71256 38.4889 5.18928 42.0024C4.76951 41.9028 4.39359 41.6052 4.13797 41.052C2.67754 37.8768 0.150146 26.9884 0.150146 26.9884C0.150146 26.9884 5.73937 23.2593 8.68842 22.6698C9.51731 22.5069 10.3794 23.1691 10.7566 24.0456Z" fill="#6D9D31"/>
<defs>
<linearGradient id="paint0_linear_4002_23015" x1="57.4959" y1="77.3787" x2="90.3282" y2="44.5469" gradientUnits="userSpaceOnUse">
<stop stop-color="#FFF200"/>
<stop offset="1" stop-color="#FFC20E"/>
</linearGradient>
<linearGradient id="paint1_linear_4002_23015" x1="46.3006" y1="66.1832" x2="79.1323" y2="33.3514" gradientUnits="userSpaceOnUse">
<stop stop-color="#FFF200"/>
<stop offset="1" stop-color="#FFC20E"/>
</linearGradient>
<linearGradient id="paint2_linear_4002_23015" x1="44.7337" y1="-4.60708" x2="78.004" y2="28.6632" gradientUnits="userSpaceOnUse">
<stop stop-color="#ED1C24"/>
<stop offset="1" stop-color="#C1272D"/>
</linearGradient>
<linearGradient id="paint3_linear_4002_23015" x1="46.9345" y1="66.8173" x2="79.7663" y2="33.9849" gradientUnits="userSpaceOnUse">
<stop stop-color="#FFF200"/>
<stop offset="1" stop-color="#FFC20E"/>
</linearGradient>
<linearGradient id="paint4_linear_4002_23015" x1="38.3644" y1="1.76206" x2="71.6347" y2="35.0324" gradientUnits="userSpaceOnUse">
<stop stop-color="#ED1C24"/>
<stop offset="1" stop-color="#C1272D"/>
</linearGradient>
<linearGradient id="paint5_linear_4002_23015" x1="38.7675" y1="1.35748" x2="72.0384" y2="34.6287" gradientUnits="userSpaceOnUse">
<stop stop-color="#ED1C24"/>
<stop offset="1" stop-color="#C1272D"/>
</linearGradient>
<linearGradient id="paint6_linear_4002_23015" x1="33.8121" y1="6.31466" x2="67.0824" y2="39.585" gradientUnits="userSpaceOnUse">
<stop stop-color="#ED1C24"/>
<stop offset="1" stop-color="#C1272D"/>
</linearGradient>
<linearGradient id="paint7_linear_4002_23015" x1="34.5807" y1="5.54504" x2="67.8517" y2="38.8153" gradientUnits="userSpaceOnUse">
<stop stop-color="#ED1C24"/>
<stop offset="1" stop-color="#C1272D"/>
</linearGradient>
<linearGradient id="paint8_linear_4002_23015" x1="34.5319" y1="5.59455" x2="67.8022" y2="38.8649" gradientUnits="userSpaceOnUse">
<stop stop-color="#ED1C24"/>
<stop offset="1" stop-color="#C1272D"/>
</linearGradient>
<linearGradient id="paint9_linear_4002_23015" x1="45.1823" y1="-5.05653" x2="78.4526" y2="28.2138" gradientUnits="userSpaceOnUse">
<stop stop-color="#ED1C24"/>
<stop offset="1" stop-color="#C1272D"/>
</linearGradient>
<linearGradient id="paint10_linear_4002_23015" x1="29.69" y1="10.4375" x2="62.9591" y2="43.7072" gradientUnits="userSpaceOnUse">
<stop stop-color="#ED1C24"/>
<stop offset="1" stop-color="#C1272D"/>
</linearGradient>
<linearGradient id="paint11_linear_4002_23015" x1="31.6537" y1="8.47312" x2="64.924" y2="41.7434" gradientUnits="userSpaceOnUse">
<stop stop-color="#ED1C24"/>
<stop offset="1" stop-color="#C1272D"/>
</linearGradient>
<linearGradient id="paint12_linear_4002_23015" x1="37.4836" y1="57.3657" x2="70.3147" y2="24.5345" gradientUnits="userSpaceOnUse">
<stop stop-color="#FFF200"/>
<stop offset="1" stop-color="#FFC20E"/>
</linearGradient>
<linearGradient id="paint13_linear_4002_23015" x1="37.2085" y1="57.0911" x2="70.0402" y2="24.2587" gradientUnits="userSpaceOnUse">
<stop stop-color="#FFF200"/>
<stop offset="1" stop-color="#FFC20E"/>
</linearGradient>
<linearGradient id="paint14_linear_4002_23015" x1="29.5442" y1="10.5824" x2="62.8145" y2="43.8527" gradientUnits="userSpaceOnUse">
<stop stop-color="#ED1C24"/>
<stop offset="1" stop-color="#C1272D"/>
</linearGradient>
<linearGradient id="paint15_linear_4002_23015" x1="28.256" y1="11.8708" x2="61.5264" y2="45.1411" gradientUnits="userSpaceOnUse">
<stop stop-color="#ED1C24"/>
<stop offset="1" stop-color="#C1272D"/>
</linearGradient>
<linearGradient id="paint16_linear_4002_23015" x1="28.0987" y1="12.0286" x2="61.3684" y2="45.2983" gradientUnits="userSpaceOnUse">
<stop stop-color="#ED1C24"/>
<stop offset="1" stop-color="#C1272D"/>
</linearGradient>
<linearGradient id="paint17_linear_4002_23015" x1="21.4069" y1="18.7204" x2="54.6766" y2="51.9901" gradientUnits="userSpaceOnUse">
<stop stop-color="#ED1C24"/>
<stop offset="1" stop-color="#C1272D"/>
</linearGradient>
<linearGradient id="paint18_linear_4002_23015" x1="24.5527" y1="15.571" x2="57.8249" y2="48.8432" gradientUnits="userSpaceOnUse">
<stop stop-color="#ED1C24"/>
<stop offset="1" stop-color="#C1272D"/>
</linearGradient>
<linearGradient id="paint19_linear_4002_23015" x1="24.9008" y1="15.2257" x2="58.1711" y2="48.496" gradientUnits="userSpaceOnUse">
<stop stop-color="#ED1C24"/>
<stop offset="1" stop-color="#C1272D"/>
</linearGradient>
<linearGradient id="paint20_linear_4002_23015" x1="21.3699" y1="18.7574" x2="54.6396" y2="52.027" gradientUnits="userSpaceOnUse">
<stop stop-color="#ED1C24"/>
<stop offset="1" stop-color="#C1272D"/>
</linearGradient>
<linearGradient id="paint21_linear_4002_23015" x1="24.0834" y1="16.0457" x2="57.3524" y2="49.3141" gradientUnits="userSpaceOnUse">
<stop stop-color="#ED1C24"/>
<stop offset="1" stop-color="#C1272D"/>
</linearGradient>
<linearGradient id="paint22_linear_4002_23015" x1="36.5625" y1="56.4485" x2="69.3979" y2="23.6138" gradientUnits="userSpaceOnUse">
<stop stop-color="#FFF200"/>
<stop offset="1" stop-color="#FFC20E"/>
</linearGradient>
<linearGradient id="paint23_linear_4002_23015" x1="36.3938" y1="56.2661" x2="69.2137" y2="23.4463" gradientUnits="userSpaceOnUse">
<stop stop-color="#FFF200"/>
<stop offset="1" stop-color="#FFC20E"/>
</linearGradient>
<linearGradient id="paint24_linear_4002_23015" x1="36.2962" y1="56.1797" x2="69.1285" y2="23.3466" gradientUnits="userSpaceOnUse">
<stop stop-color="#FFF200"/>
<stop offset="1" stop-color="#FFC20E"/>
</linearGradient>
<linearGradient id="paint25_linear_4002_23015" x1="35.8082" y1="55.6917" x2="68.6412" y2="22.8586" gradientUnits="userSpaceOnUse">
<stop stop-color="#FFF200"/>
<stop offset="1" stop-color="#FFC20E"/>
</linearGradient>
<linearGradient id="paint26_linear_4002_23015" x1="21.7935" y1="18.3335" x2="55.0633" y2="51.6032" gradientUnits="userSpaceOnUse">
<stop stop-color="#ED1C24"/>
<stop offset="1" stop-color="#C1272D"/>
</linearGradient>
<linearGradient id="paint27_linear_4002_23015" x1="24.0764" y1="16.0488" x2="57.3473" y2="49.3198" gradientUnits="userSpaceOnUse">
<stop stop-color="#ED1C24"/>
<stop offset="1" stop-color="#C1272D"/>
</linearGradient>
<linearGradient id="paint28_linear_4002_23015" x1="42.5327" y1="62.4152" x2="75.3644" y2="29.5835" gradientUnits="userSpaceOnUse">
<stop stop-color="#FFF200"/>
<stop offset="1" stop-color="#FFC20E"/>
</linearGradient>
<linearGradient id="paint29_linear_4002_23015" x1="24.428" y1="15.6991" x2="57.6976" y2="48.9688" gradientUnits="userSpaceOnUse">
<stop stop-color="#ED1C24"/>
<stop offset="1" stop-color="#C1272D"/>
</linearGradient>
<linearGradient id="paint30_linear_4002_23015" x1="27.4803" y1="12.645" x2="60.7518" y2="45.916" gradientUnits="userSpaceOnUse">
<stop stop-color="#ED1C24"/>
<stop offset="1" stop-color="#C1272D"/>
</linearGradient>
<linearGradient id="paint31_linear_4002_23015" x1="22.1292" y1="17.9969" x2="55.3995" y2="51.2679" gradientUnits="userSpaceOnUse">
<stop stop-color="#ED1C24"/>
<stop offset="1" stop-color="#C1272D"/>
</linearGradient>
<linearGradient id="paint32_linear_4002_23015" x1="24.3038" y1="15.8228" x2="57.5741" y2="49.0925" gradientUnits="userSpaceOnUse">
<stop stop-color="#ED1C24"/>
<stop offset="1" stop-color="#C1272D"/>
</linearGradient>
<linearGradient id="paint33_linear_4002_23015" x1="25.4793" y1="14.6461" x2="58.7502" y2="47.917" gradientUnits="userSpaceOnUse">
<stop stop-color="#ED1C24"/>
<stop offset="1" stop-color="#C1272D"/>
</linearGradient>
<linearGradient id="paint34_linear_4002_23015" x1="26.8802" y1="13.2465" x2="60.1505" y2="46.5168" gradientUnits="userSpaceOnUse">
<stop stop-color="#ED1C24"/>
<stop offset="1" stop-color="#C1272D"/>
</linearGradient>
<linearGradient id="paint35_linear_4002_23015" x1="39.2089" y1="0.917659" x2="72.4786" y2="34.188" gradientUnits="userSpaceOnUse">
<stop stop-color="#ED1C24"/>
<stop offset="1" stop-color="#C1272D"/>
</linearGradient>
<linearGradient id="paint36_linear_4002_23015" x1="27.8487" y1="12.2779" x2="61.1191" y2="45.5482" gradientUnits="userSpaceOnUse">
<stop stop-color="#ED1C24"/>
<stop offset="1" stop-color="#C1272D"/>
</linearGradient>
<linearGradient id="paint37_linear_4002_23015" x1="17.5812" y1="12.0008" x2="50.9769" y2="45.3965" gradientUnits="userSpaceOnUse">
<stop stop-color="#8DC63F"/>
<stop offset="1" stop-color="#28903B"/>
</linearGradient>
<linearGradient id="paint38_linear_4002_23015" x1="35.7491" y1="55.6312" x2="68.58" y2="22.8006" gradientUnits="userSpaceOnUse">
<stop stop-color="#FFF200"/>
<stop offset="1" stop-color="#FFC20E"/>
</linearGradient>
<linearGradient id="paint39_linear_4002_23015" x1="17.808" y1="22.3155" x2="51.0809" y2="55.5876" gradientUnits="userSpaceOnUse">
<stop stop-color="#ED1C24"/>
<stop offset="1" stop-color="#C1272D"/>
</linearGradient>
<linearGradient id="paint40_linear_4002_23015" x1="12.2434" y1="17.3411" x2="45.6378" y2="50.7348" gradientUnits="userSpaceOnUse">
<stop stop-color="#8DC63F"/>
<stop offset="1" stop-color="#28903B"/>
</linearGradient>
<linearGradient id="paint41_linear_4002_23015" x1="18.7925" y1="21.3356" x2="52.0615" y2="54.6053" gradientUnits="userSpaceOnUse">
<stop stop-color="#ED1C24"/>
<stop offset="1" stop-color="#C1272D"/>
</linearGradient>
<linearGradient id="paint42_linear_4002_23015" x1="17.85" y1="22.2748" x2="51.121" y2="55.5463" gradientUnits="userSpaceOnUse">
<stop stop-color="#ED1C24"/>
<stop offset="1" stop-color="#C1272D"/>
</linearGradient>
<linearGradient id="paint43_linear_4002_23015" x1="7.50796" y1="22.0748" x2="40.9036" y2="55.4698" gradientUnits="userSpaceOnUse">
<stop stop-color="#8DC63F"/>
<stop offset="1" stop-color="#28903B"/>
</linearGradient>
<linearGradient id="paint44_linear_4002_23015" x1="18.105" y1="22.0196" x2="51.3759" y2="55.2912" gradientUnits="userSpaceOnUse">
<stop stop-color="#ED1C24"/>
<stop offset="1" stop-color="#C1272D"/>
</linearGradient>
<linearGradient id="paint45_linear_4002_23015" x1="12.6537" y1="16.9296" x2="46.0487" y2="50.324" gradientUnits="userSpaceOnUse">
<stop stop-color="#8DC63F"/>
<stop offset="1" stop-color="#28903B"/>
</linearGradient>
<linearGradient id="paint46_linear_4002_23015" x1="12.4221" y1="17.1573" x2="45.8194" y2="50.554" gradientUnits="userSpaceOnUse">
<stop stop-color="#8DC63F"/>
<stop offset="1" stop-color="#28903B"/>
</linearGradient>
<linearGradient id="paint47_linear_4002_23015" x1="7.55807" y1="22.024" x2="40.9537" y2="55.4196" gradientUnits="userSpaceOnUse">
<stop stop-color="#8DC63F"/>
<stop offset="1" stop-color="#28903B"/>
</linearGradient>
<linearGradient id="paint48_linear_4002_23015" x1="12.5753" y1="17.0095" x2="45.9689" y2="50.4039" gradientUnits="userSpaceOnUse">
<stop stop-color="#8DC63F"/>
<stop offset="1" stop-color="#28903B"/>
</linearGradient>
<linearGradient id="paint49_linear_4002_23015" x1="12.8235" y1="16.7654" x2="46.2147" y2="50.1565" gradientUnits="userSpaceOnUse">
<stop stop-color="#8DC63F"/>
<stop offset="1" stop-color="#28903B"/>
</linearGradient>
<linearGradient id="paint50_linear_4002_23015" x1="20.5717" y1="19.5549" x2="53.8389" y2="52.8221" gradientUnits="userSpaceOnUse">
<stop stop-color="#ED1C24"/>
<stop offset="1" stop-color="#C1272D"/>
</linearGradient>
<linearGradient id="paint51_linear_4002_23015" x1="17.8487" y1="11.7406" x2="51.239" y2="45.1312" gradientUnits="userSpaceOnUse">
<stop stop-color="#8DC63F"/>
<stop offset="1" stop-color="#28903B"/>
</linearGradient>
<linearGradient id="paint52_linear_4002_23015" x1="25.8446" y1="14.2812" x2="59.1155" y2="47.5522" gradientUnits="userSpaceOnUse">
<stop stop-color="#ED1C24"/>
<stop offset="1" stop-color="#C1272D"/>
</linearGradient>
<linearGradient id="paint53_linear_4002_23015" x1="32.8991" y1="7.22756" x2="66.1694" y2="40.4979" gradientUnits="userSpaceOnUse">
<stop stop-color="#ED1C24"/>
<stop offset="1" stop-color="#C1272D"/>
</linearGradient>
<linearGradient id="paint54_linear_4002_23015" x1="23.8202" y1="16.3064" x2="57.0905" y2="49.5766" gradientUnits="userSpaceOnUse">
<stop stop-color="#ED1C24"/>
<stop offset="1" stop-color="#C1272D"/>
</linearGradient>
<linearGradient id="paint55_linear_4002_23015" x1="23.21" y1="16.9165" x2="56.4803" y2="50.1868" gradientUnits="userSpaceOnUse">
<stop stop-color="#ED1C24"/>
<stop offset="1" stop-color="#C1272D"/>
</linearGradient>
<linearGradient id="paint56_linear_4002_23015" x1="24.082" y1="16.0426" x2="57.3554" y2="49.3162" gradientUnits="userSpaceOnUse">
<stop stop-color="#ED1C24"/>
<stop offset="1" stop-color="#C1272D"/>
</linearGradient>
<linearGradient id="paint57_linear_4002_23015" x1="24.765" y1="15.3612" x2="58.0353" y2="48.6315" gradientUnits="userSpaceOnUse">
<stop stop-color="#ED1C24"/>
<stop offset="1" stop-color="#C1272D"/>
</linearGradient>
<linearGradient id="paint58_linear_4002_23015" x1="23.6248" y1="16.5038" x2="56.8919" y2="49.7707" gradientUnits="userSpaceOnUse">
<stop stop-color="#ED1C24"/>
<stop offset="1" stop-color="#C1272D"/>
</linearGradient>
<linearGradient id="paint59_linear_4002_23015" x1="23.9004" y1="16.226" x2="57.1714" y2="49.4969" gradientUnits="userSpaceOnUse">
<stop stop-color="#ED1C24"/>
<stop offset="1" stop-color="#C1272D"/>
</linearGradient>
<linearGradient id="paint60_linear_4002_23015" x1="3.24651" y1="26.3367" x2="36.6415" y2="59.7316" gradientUnits="userSpaceOnUse">
<stop stop-color="#8DC63F"/>
<stop offset="1" stop-color="#28903B"/>
</linearGradient>
<linearGradient id="paint61_linear_4002_23015" x1="24.6716" y1="15.4551" x2="57.9419" y2="48.7254" gradientUnits="userSpaceOnUse">
<stop stop-color="#ED1C24"/>
<stop offset="1" stop-color="#C1272D"/>
</linearGradient>
<linearGradient id="paint62_linear_4002_23015" x1="24.6309" y1="15.4955" x2="57.9012" y2="48.7658" gradientUnits="userSpaceOnUse">
<stop stop-color="#ED1C24"/>
<stop offset="1" stop-color="#C1272D"/>
</linearGradient>
<linearGradient id="paint63_linear_4002_23015" x1="24.668" y1="15.4585" x2="57.9376" y2="48.7288" gradientUnits="userSpaceOnUse">
<stop stop-color="#ED1C24"/>
<stop offset="1" stop-color="#C1272D"/>
</linearGradient>
<linearGradient id="paint64_linear_4002_23015" x1="26.2243" y1="13.9025" x2="59.4946" y2="47.1721" gradientUnits="userSpaceOnUse">
<stop stop-color="#ED1C24"/>
<stop offset="1" stop-color="#C1272D"/>
</linearGradient>
<linearGradient id="paint65_linear_4002_23015" x1="18.5781" y1="11.0047" x2="51.9731" y2="44.4003" gradientUnits="userSpaceOnUse">
<stop stop-color="#8DC63F"/>
<stop offset="1" stop-color="#28903B"/>
</linearGradient>
<linearGradient id="paint66_linear_4002_23015" x1="26.1146" y1="14.0123" x2="59.3849" y2="47.2826" gradientUnits="userSpaceOnUse">
<stop stop-color="#ED1C24"/>
<stop offset="1" stop-color="#C1272D"/>
</linearGradient>
<linearGradient id="paint67_linear_4002_23015" x1="-2.77438" y1="32.3565" x2="30.6212" y2="65.7521" gradientUnits="userSpaceOnUse">
<stop stop-color="#8DC63F"/>
<stop offset="1" stop-color="#28903B"/>
</linearGradient>
<linearGradient id="paint68_linear_4002_23015" x1="11.8849" y1="17.6974" x2="45.2823" y2="51.0942" gradientUnits="userSpaceOnUse">
<stop stop-color="#8DC63F"/>
<stop offset="1" stop-color="#28903B"/>
</linearGradient>
<linearGradient id="paint69_linear_4002_23015" x1="-0.813517" y1="30.3967" x2="32.5815" y2="63.7917" gradientUnits="userSpaceOnUse">
<stop stop-color="#8DC63F"/>
<stop offset="1" stop-color="#28903B"/>
</linearGradient>
<linearGradient id="paint70_linear_4002_23015" x1="7.10826" y1="22.4746" x2="40.5032" y2="55.8696" gradientUnits="userSpaceOnUse">
<stop stop-color="#8DC63F"/>
<stop offset="1" stop-color="#28903B"/>
</linearGradient>
</defs>
</svg>
