<svg xmlns="http://www.w3.org/2000/svg" width="20" height="20" fill="none"><path fill="#898989" d="M10.001 7a3 3 0 1 0 0 6 3 3 0 0 0 0-6Zm0-2a5 5 0 1 1 0 10 5 5 0 0 1 0-10Zm6.5-.25a1.25 1.25 0 1 1-2.5 0 1.25 1.25 0 0 1 2.5 0ZM10.001 2c-2.474 0-2.878.007-4.029.058-.784.037-1.31.142-1.798.332a2.886 2.886 0 0 0-1.08.703 2.89 2.89 0 0 0-.704 1.08c-.19.49-.295 1.015-.331 1.798C2.007 7.075 2 7.461 2 10c0 2.475.007 2.878.058 4.029.037.783.142 1.31.331 1.797.17.435.37.748.702 1.08.337.336.65.537 1.08.703.494.191 1.02.297 1.8.333C7.075 17.994 7.461 18 10 18c2.475 0 2.878-.007 4.029-.058.782-.037 1.308-.142 1.797-.331a2.91 2.91 0 0 0 1.08-.703c.337-.336.538-.649.704-1.08.19-.492.296-1.018.332-1.8.052-1.103.058-1.49.058-4.028 0-2.474-.007-2.878-.058-4.029-.037-.782-.143-1.31-.332-1.798a2.913 2.913 0 0 0-.703-1.08 2.884 2.884 0 0 0-1.08-.704c-.49-.19-1.016-.295-1.798-.331C12.926 2.006 12.541 2 10.001 2Zm0-2c2.717 0 3.056.01 4.123.06 1.064.05 1.79.217 2.427.465.66.254 1.216.598 1.772 1.153.508.5.902 1.105 1.153 1.772.247.637.415 1.363.465 2.428.047 1.066.06 1.405.06 4.122 0 2.717-.01 3.056-.06 4.122-.05 1.065-.218 1.79-.465 2.428a4.884 4.884 0 0 1-1.153 1.772c-.5.508-1.105.902-1.772 1.153-.637.247-1.363.415-2.427.465-1.067.047-1.406.06-4.123.06-2.717 0-3.056-.01-4.123-.06-1.064-.05-1.789-.218-2.427-.465a4.89 4.89 0 0 1-1.772-1.153A4.904 4.904 0 0 1 .526 16.55c-.248-.637-.415-1.363-.465-2.428C.013 13.056.001 12.717.001 10c0-2.717.01-3.056.06-4.122.05-1.066.217-1.79.465-2.428a4.88 4.88 0 0 1 1.153-1.772A4.897 4.897 0 0 1 3.451.525C4.088.277 4.813.11 5.878.06 6.945.013 7.284 0 10.001 0Z"/></svg>