<svg width="258" height="62" viewBox="0 0 258 62" fill="none" xmlns="http://www.w3.org/2000/svg">
<path d="M68.82 14.0103V42.7836C68.82 43.0535 69.0301 43.2839 69.2968 43.3052C70.8136 43.4322 72.4968 43.4322 74.2664 43.3052C75.7106 43.1954 77.4738 42.9884 79.6488 42.6748C79.5698 43.1122 79.5304 43.5868 79.5304 44.0999C79.5304 44.5372 79.5752 45.0674 79.6605 45.6423H62.5352V14.0178C62.8626 14.0466 63.2829 14.0978 63.8034 14.1692C64.5629 14.2994 65.3426 14.3026 65.8077 14.1788L67.348 14.1724C67.9346 14.0914 68.42 14.0359 68.82 14.0103ZM89.3469 15.5858C88.4338 15.7127 87.8248 15.7159 87.3853 15.5922H85.845C85.3021 15.5175 84.8872 15.4706 84.5725 15.4407V45.6434H90.5352V15.4343C90.1917 15.4599 89.8013 15.509 89.3469 15.5858ZM95.252 15.4119C95.3096 15.8396 95.3384 16.2674 95.3384 16.6876C95.3384 17.238 95.3117 17.7255 95.2605 18.1404H96.2557C99.077 17.7831 101.445 17.6018 103.263 17.6018C103.552 17.6018 103.786 17.8354 103.786 18.1234V45.6423H109.57V18.1244C109.57 17.8364 109.804 17.6028 110.094 17.6028C111.414 17.6028 113.305 17.7234 115.718 17.9623C116.327 18.0508 116.976 18.1063 117.651 18.1308C117.583 17.7148 117.583 17.2359 117.654 16.7015C117.578 16.2738 117.583 15.8407 117.667 15.413H95.252V15.4119ZM122.411 15.4119V45.6423H138.745C138.664 45.0962 138.623 44.5991 138.623 44.1906C138.623 43.7202 138.658 43.2796 138.727 42.8732C137.612 43.0428 136.374 43.1794 135.047 43.2711C133.503 43.3916 131.372 43.4546 128.718 43.4546C128.428 43.4546 128.196 43.2199 128.196 42.9298V31.2444C128.196 30.9575 128.428 30.7218 128.718 30.7218H133.089C134.545 30.8082 135.717 30.8924 136.886 30.9778L137.754 31.0386C137.73 30.9234 137.7 30.7932 137.667 30.6535L137.651 28.5522C137.651 28.4914 137.659 28.4348 137.679 28.3836C137.692 28.342 137.704 28.3015 137.717 28.2631C136.178 28.453 134.77 28.534 133.088 28.534H128.716C128.427 28.534 128.195 28.2994 128.195 28.0114V18.1244C128.195 17.8364 128.427 17.6028 128.716 17.6028C131.941 17.6028 135.324 17.8119 138.786 18.2279C138.675 17.75 138.622 17.2935 138.622 16.8679C138.622 16.3591 138.675 15.8706 138.787 15.413H122.411V15.4119ZM163.332 36.3527C163.208 32.6204 160.336 29.3042 154.783 26.5266C150.668 24.406 148.671 22.3463 148.671 20.2343C148.671 16.8295 150.664 14.9607 154.439 14.8242C157.006 14.8242 158.982 16.2002 160.321 18.918C160.463 18.4412 160.657 17.829 160.912 17.0599C161.22 16.2439 161.481 15.5612 161.7 14.9948C159.727 13.8194 157.349 13.1644 154.625 13.0503C147.775 13.413 144.319 16.5682 144.08 22.6951C144.08 26.8242 146.695 30.1394 151.859 32.5383C156.174 34.4999 158.36 36.7452 158.36 39.2124C158.085 42.6759 156.02 44.4871 152.219 44.6236C148.458 44.4924 146.106 42.725 145.212 39.3586H145.145C144.903 41.1879 144.522 42.9916 144.008 44.7271C146.297 45.5922 148.671 46.0892 151.074 46.2087C158.66 46.2087 162.847 42.6119 163.332 36.3527ZM173.321 32.0018C173.231 32.0092 173.097 32.0316 172.99 32.1415C172.891 32.2354 172.836 32.3666 172.836 32.4999V45.6423H166.834V15.4066H177.646C183.838 15.4066 186.905 17.7714 187.018 22.6343C187.064 25.2807 186.337 27.3863 184.859 28.8903C182.825 30.9628 179.266 32.0124 174.279 32.0124C173.973 32.0124 173.665 32.0082 173.321 32.0018ZM173.267 30.4796C173.498 30.5148 173.747 30.5308 174 30.5308C174.737 30.5308 175.587 30.3879 176.526 30.1074C179.249 29.3287 180.761 27.1143 181.016 23.4919C180.761 19.4076 179.154 17.1367 176.209 16.7399H173.339C173.063 16.7399 172.837 16.966 172.837 17.2412V29.9868C172.837 30.2332 173.02 30.4455 173.267 30.4796ZM211.028 15.4066V45.6423H227.388C227.308 45.0919 227.266 44.5863 227.266 44.1671C227.266 43.6871 227.3 43.237 227.376 42.8252C226.247 42.9991 225.001 43.1367 223.67 43.2295C222.113 43.35 220.048 43.4108 217.354 43.4108C217.077 43.4108 216.853 43.1858 216.853 42.9106V31.2412C216.853 30.9671 217.077 30.741 217.354 30.741H222.199C224.018 30.8508 225.677 30.9554 227.194 31.0599C227.168 30.9351 227.139 30.7964 227.1 30.6439L227.084 28.5511C227.084 28.4946 227.092 28.4391 227.111 28.3911C227.128 28.3367 227.145 28.2855 227.161 28.2364C225.648 28.4167 223.98 28.5106 222.199 28.5106H217.354C217.077 28.5106 216.853 28.2844 216.853 28.0114V18.1372C216.853 17.862 217.077 17.637 217.354 17.637C220.584 17.637 223.973 17.8503 227.436 18.2663C227.321 17.7788 227.266 17.3138 227.266 16.8818C227.266 16.3623 227.321 15.8695 227.441 15.4055L211.028 15.4066ZM241.551 45.6434H231.589V15.4066L244.403 15.4044C253.043 15.9911 257.471 20.645 257.94 29.5975C257.36 39.6636 251.845 45.061 241.551 45.6434ZM251.219 29.6263C251.219 21.3148 247.488 17.0983 240.13 17.0983H237.91C237.636 17.0983 237.411 17.3244 237.411 17.5996V43.4514C237.411 43.7255 237.636 43.9516 237.91 43.9516H239.873C243.632 43.9516 246.502 42.725 248.401 40.3047C250.267 37.9218 251.219 34.3271 251.219 29.6263ZM190.37 15.4066V45.6423H206.727C206.648 45.0919 206.604 44.5863 206.604 44.1671C206.604 43.6871 206.64 43.237 206.712 42.8252C205.582 42.9991 204.338 43.1367 203.01 43.2295C201.452 43.35 199.385 43.4108 196.691 43.4108C196.417 43.4108 196.191 43.1858 196.191 42.9106V31.2412C196.191 30.9671 196.417 30.741 196.691 30.741H201.538C203.36 30.8508 205.015 30.9554 206.533 31.0599C206.507 30.9351 206.477 30.7964 206.44 30.6439L206.423 28.5511C206.423 28.4946 206.434 28.4391 206.45 28.3911C206.468 28.3367 206.483 28.2855 206.496 28.2364C204.987 28.4167 203.32 28.5106 201.538 28.5106H196.691C196.417 28.5106 196.191 28.2844 196.191 28.0114V18.1372C196.191 17.862 196.417 17.637 196.691 17.637C199.921 17.637 203.311 17.8503 206.774 18.2663C206.661 17.7788 206.604 17.3138 206.604 16.8818C206.604 16.3623 206.664 15.8695 206.776 15.4055L190.37 15.4066Z" fill="#093071"/>
<path d="M47.0919 30.0585L32.9298 15.8975L26.8967 23.554L33.4023 30.0585C34.0018 30.6591 34.0018 31.6404 33.4023 32.2399L31.5197 34.1225C31.5197 34.1225 32.7879 36.0201 32.8466 36.1364C33.1389 36.7231 33.2093 38.1001 32.3794 38.7305L17.5847 50.0863C17.5815 53.8964 17.5773 61.7343 17.5826 61.7375C17.5858 61.7385 47.0919 32.2409 47.0919 32.2409C47.6925 31.6393 47.6925 30.6601 47.0919 30.0585Z" fill="#5E8CDA"/>
<path d="M14.1967 31.8418C13.5972 31.2424 13.5972 30.2642 14.1967 29.6626L16.0804 27.7789L14.793 25.9282C14.1786 25.0578 14.3706 23.8216 15.2186 23.1741L30.0143 11.8162L30.025 0.173561L30.0154 0.167161L30.0079 0.156494L0.504954 29.6626C-0.0955791 30.2642 -0.0955791 31.2424 0.506021 31.844L14.6671 46.005L20.7012 38.3453L14.1967 31.8418Z" fill="#093071"/>
<path d="M24.0501 41.1912L17.2031 48.0381L24.0501 41.1912Z" fill="white"/>
<path d="M37.4705 7.26813C37.6678 7.26813 37.8662 7.39293 37.9537 7.56893C38.1094 7.89106 37.9046 8.19293 37.6988 8.45213L24.7334 24.9087C24.5468 25.1476 24.5329 25.6073 24.7036 25.8559C24.7036 25.8559 31.702 36.0041 31.943 36.3519C32.2086 36.7348 32.2268 37.8687 31.6177 38.3295L10.7729 54.3316C10.4764 54.5599 10.3078 54.6335 10.102 54.6356C9.9153 54.6228 9.72224 54.4959 9.64224 54.3359C9.48651 54.018 9.69237 53.7097 9.89611 53.4473L22.8593 36.994C23.047 36.7465 23.063 36.3049 22.8902 36.0468L15.655 25.6393C15.1953 24.9865 15.3382 24.0596 15.974 23.5732L36.8241 7.56893C37.1622 7.30546 37.334 7.26813 37.4705 7.26813ZM37.4705 7.00146C37.2198 7.00146 36.9852 7.10386 36.6598 7.35773L15.8129 23.362C15.0641 23.9348 14.8966 25.0239 15.4374 25.7929L22.6716 36.1983C22.7782 36.3572 22.7654 36.6751 22.647 36.8319L9.68597 53.2831C9.51531 53.5028 9.1601 53.9604 9.40224 54.4543C9.52384 54.6996 9.80331 54.8831 10.0838 54.9023C10.4102 54.9001 10.6417 54.7689 10.935 54.5439L31.7798 38.5396C32.5009 37.9935 32.503 36.6921 32.1617 36.1993C31.9206 35.8516 24.9233 25.7033 24.9233 25.7033C24.8166 25.5497 24.8273 25.2201 24.9436 25.0729L37.9078 8.61746C38.0785 8.402 38.4348 7.95186 38.1937 7.45266C38.0604 7.1828 37.7713 7.00146 37.4705 7.00146Z" fill="#5E8CDA"/>
<path d="M31.4131 36.391C31.5816 36.6459 31.732 37.607 31.3107 37.927L10.4616 53.9291C10.2867 54.0657 10.1736 54.1297 10.1245 54.1265C10.0531 54.1307 10.1043 54.0038 10.2963 53.7574L23.2552 37.3105C23.5827 36.8881 23.604 36.1926 23.3032 35.7585L16.0701 25.3489C16.0701 25.3489 31.2445 36.135 31.4131 36.391Z" fill="#F5CD21"/>
<path d="M31.4148 36.3911L24.2906 26.1436C23.9887 25.7084 24.0132 25.0119 24.3375 24.598L37.2975 8.1447C37.4906 7.89937 37.5407 7.77563 37.4714 7.77563C37.4191 7.77563 37.305 7.83643 37.1332 7.97297L16.2842 23.9762C15.865 24.2972 15.7679 24.918 16.0719 25.35L31.4148 36.3911Z" fill="#FDDD75"/>
</svg>
