<svg width="155" height="64" viewBox="0 0 155 64" fill="none" xmlns="http://www.w3.org/2000/svg">
<path d="M4.67664 64.0001H0V15.0242C3.71922 13.8459 7.62256 13.2199 11.5627 13.183C14.1036 13.1462 16.6444 13.5881 19.038 14.4719C21.1738 15.2452 23.1623 16.4604 24.8193 18.0438C26.4396 19.5904 27.6916 21.4316 28.5017 23.5306C29.3855 25.7032 29.7906 28.0599 29.7906 30.4166C29.7906 33.4362 29.275 36.0139 28.244 38.1865C27.2865 40.2486 25.8872 42.053 24.1565 43.526C22.4626 44.9253 20.5109 45.9563 18.3751 46.5824C16.2394 47.2452 13.9931 47.5766 11.7468 47.5766C10.5316 47.5766 9.35328 47.503 8.17492 47.3188C6.99655 47.1347 5.81818 46.8769 4.67664 46.5824V64.0001ZM24.4511 30.3062C24.4511 26.4028 23.3464 23.236 21.1738 20.8056C19.0012 18.412 15.9079 17.1968 11.9678 17.1968C10.7158 17.1968 9.50058 17.2705 8.24856 17.4178C7.03337 17.5651 5.81818 17.8597 4.67664 18.2647V42.1635C5.78136 42.5317 6.88608 42.8263 8.02762 43.0841C9.13234 43.3418 10.2371 43.4523 11.3786 43.4523C15.3924 43.4523 18.5593 42.3108 20.916 40.0277C23.2727 37.7814 24.4511 34.5409 24.4511 30.3062Z" fill="black"/>
<path d="M39.2168 47.2451V0H43.9303V47.2083H39.2168V47.2451Z" fill="black"/>
<path d="M82.5595 42.3108C81.0497 43.9678 79.1717 45.2935 77.1096 46.1773C75.0474 47.061 72.5434 47.5029 69.6343 47.5029C67.2039 47.5398 64.7735 47.0979 62.5273 46.1036C60.5756 45.2567 58.8449 43.9678 57.4824 42.3476C56.1199 40.7642 55.0888 38.923 54.4628 36.9345C53.7632 34.8723 53.4318 32.6997 53.4318 30.5271C53.3581 27.9126 53.8 25.2613 54.647 22.7941C55.3466 20.7688 56.4881 18.9276 57.9611 17.3441C59.3236 15.9448 60.9807 14.8401 62.8219 14.1404C64.6999 13.4408 66.6884 13.1094 68.6769 13.1094C73.6113 13.1094 77.3673 14.6192 79.8713 17.6755C82.3754 20.6951 83.5906 25.114 83.5169 30.9322H58.2189C58.3662 34.7619 59.4709 37.7814 61.533 40.0277C63.5952 42.2739 66.4306 43.4155 69.9657 43.4155C71.8069 43.4523 73.6481 43.1209 75.3788 42.4212C77.0727 41.7216 78.5457 40.6537 79.7609 39.2912L82.5595 42.3108ZM78.7666 26.992C78.7666 25.6663 78.5457 24.3407 78.1406 23.0887C77.7356 21.9471 77.1464 20.8792 76.3362 19.9955C75.4893 19.0749 74.4214 18.3752 73.2799 17.9333C70.4444 16.9022 67.3144 16.9022 64.4789 17.9333C63.3742 18.3752 62.3432 19.038 61.533 19.9218C60.7229 20.8424 60.0601 21.8735 59.5445 22.9782C58.9185 24.2302 58.5503 25.5927 58.3662 26.992H78.7666Z" fill="black"/>
<path d="M114.412 21.4683C113.381 20.1058 112.093 19.0011 110.583 18.191C109.073 17.4545 107.379 17.0862 105.722 17.1599C103.328 17.1599 101.635 17.6018 100.677 18.4487C99.7197 19.2589 99.2042 20.4372 99.241 21.6892C99.2042 22.4994 99.462 23.3095 99.9039 23.9723C100.383 24.6352 100.972 25.1875 101.671 25.5926C102.482 26.0713 103.328 26.4764 104.212 26.7709C105.17 27.1024 106.164 27.4338 107.232 27.7652C108.521 28.1703 109.773 28.6121 111.062 29.0909C112.314 29.5327 113.492 30.1587 114.56 30.932C115.591 31.6685 116.475 32.6259 117.137 33.7307C117.837 34.9827 118.169 36.4188 118.132 37.8918C118.169 39.3279 117.8 40.7272 117.137 42.0161C116.475 43.2312 115.554 44.2623 114.449 45.0724C113.234 45.9562 111.872 46.5822 110.435 46.9505C106.459 47.9815 102.224 47.7606 98.3941 46.2876C96.1478 45.2934 94.1225 43.7836 92.5391 41.9424L96.2215 38.7019C98.6887 41.8688 101.856 43.4154 105.759 43.4154C108.3 43.4154 110.178 42.9367 111.43 41.9792C112.645 41.0218 113.271 39.8803 113.271 38.5546C113.308 37.634 113.087 36.7502 112.608 35.9401C112.129 35.2036 111.503 34.6144 110.767 34.1357C109.92 33.6202 109.036 33.1783 108.079 32.8837C107.048 32.5523 105.98 32.2209 104.875 31.8895C103.586 31.5212 102.334 31.1162 101.082 30.6743C99.9039 30.2692 98.7623 29.68 97.7312 28.9436C96.737 28.2439 95.89 27.3233 95.3009 26.2922C94.638 25.0402 94.3066 23.6041 94.3434 22.168C94.3434 19.1852 95.4113 16.9021 97.5839 15.2819C99.7566 13.6616 102.555 12.8515 106.017 12.8515C108.263 12.8147 110.472 13.2566 112.534 14.1035C114.449 14.9136 116.254 16.3498 118.021 18.3751L114.56 21.5419L114.412 21.4683Z" fill="black"/>
<path d="M126.932 47.2452V0.0737305H131.645V47.2452H126.932ZM131.682 29.8275L147.884 13.4776H154.218L137.611 29.6802L154.145 47.2084H147.59L131.682 29.8275Z" fill="black"/>
<path d="M55.641 63.9999H27.2129V59.5442H55.641V63.9999Z" fill="#53BCE6"/>
</svg>
